<?xml version="1.0" encoding="UTF-8"?>
<svg xmlns="http://www.w3.org/2000/svg" xmlns:xlink="http://www.w3.org/1999/xlink" width="28px" height="28px" viewBox="0 0 28 28" version="1.1">
<g id="surface1">
<path style=" stroke:none;fill-rule:nonzero;fill:rgb(25.882353%,52.156863%,95.686275%);fill-opacity:1;" d="M 9.644531 0 C 10.0625 0.125 10.4375 0.308594 10.824219 0.503906 C 10.894531 0.539062 10.960938 0.574219 11.03125 0.609375 C 11.570312 0.882812 12.109375 1.164062 12.644531 1.445312 C 12.753906 1.507812 12.867188 1.566406 12.980469 1.625 C 13.089844 1.683594 13.199219 1.742188 13.308594 1.800781 C 13.363281 1.832031 13.414062 1.859375 13.46875 1.890625 C 13.515625 1.914062 13.5625 1.941406 13.609375 1.96875 C 13.949219 2.085938 14.1875 2.042969 14.519531 1.902344 C 14.625 1.847656 14.730469 1.792969 14.832031 1.738281 C 14.917969 1.695312 14.917969 1.695312 15.007812 1.648438 C 15.1875 1.554688 15.371094 1.457031 15.550781 1.359375 C 15.667969 1.300781 15.789062 1.238281 15.90625 1.175781 C 16.605469 0.8125 16.605469 0.8125 17.292969 0.433594 C 17.34375 0.40625 17.398438 0.375 17.453125 0.34375 C 17.554688 0.289062 17.652344 0.234375 17.75 0.175781 C 17.9375 0.0742188 18.082031 0 18.292969 -0.00390625 C 18.507812 0.121094 18.566406 0.289062 18.675781 0.511719 C 18.71875 0.601562 18.761719 0.691406 18.808594 0.785156 C 18.855469 0.882812 18.902344 0.980469 18.949219 1.078125 C 19.019531 1.230469 19.09375 1.378906 19.167969 1.527344 C 19.214844 1.628906 19.265625 1.726562 19.3125 1.828125 C 19.519531 2.253906 19.738281 2.675781 19.960938 3.089844 C 20.019531 3.203125 20.078125 3.3125 20.136719 3.425781 C 20.164062 3.476562 20.191406 3.527344 20.222656 3.578125 C 20.300781 3.734375 20.300781 3.734375 20.363281 3.902344 C 20.457031 4.148438 20.523438 4.3125 20.765625 4.433594 C 20.972656 4.488281 21.175781 4.523438 21.390625 4.554688 C 21.554688 4.585938 21.722656 4.613281 21.886719 4.644531 C 21.980469 4.660156 22.070312 4.675781 22.167969 4.691406 C 22.519531 4.75 22.871094 4.820312 23.222656 4.890625 C 23.320312 4.90625 23.320312 4.90625 23.417969 4.925781 C 23.546875 4.953125 23.675781 4.976562 23.800781 5.003906 C 24.113281 5.0625 24.421875 5.125 24.730469 5.183594 C 24.785156 5.195312 24.839844 5.203125 24.898438 5.214844 C 25.023438 5.238281 25.152344 5.265625 25.277344 5.289062 C 25.359375 5.550781 25.351562 5.75 25.3125 6.019531 C 25.304688 6.101562 25.292969 6.1875 25.28125 6.273438 C 25.269531 6.363281 25.257812 6.453125 25.242188 6.546875 C 25.230469 6.640625 25.21875 6.734375 25.207031 6.828125 C 25.167969 7.128906 25.128906 7.425781 25.089844 7.722656 C 25.046875 8.023438 25.007812 8.320312 24.96875 8.617188 C 24.945312 8.800781 24.921875 8.988281 24.894531 9.171875 C 24.753906 9.898438 24.753906 9.898438 24.910156 10.589844 C 24.976562 10.65625 24.976562 10.65625 25.046875 10.726562 C 25.097656 10.777344 25.148438 10.828125 25.199219 10.882812 C 25.253906 10.933594 25.304688 10.984375 25.359375 11.039062 C 25.464844 11.144531 25.566406 11.25 25.667969 11.351562 C 25.722656 11.40625 25.773438 11.457031 25.824219 11.507812 C 26.023438 11.714844 26.210938 11.925781 26.394531 12.144531 C 26.578125 12.351562 26.761719 12.554688 26.949219 12.753906 C 27.023438 12.835938 27.097656 12.914062 27.171875 12.996094 C 27.296875 13.132812 27.425781 13.273438 27.554688 13.410156 C 27.601562 13.464844 27.652344 13.515625 27.703125 13.570312 C 27.769531 13.640625 27.769531 13.640625 27.832031 13.710938 C 27.921875 13.84375 27.921875 13.84375 27.921875 14.15625 C 27.832031 14.285156 27.832031 14.285156 27.707031 14.414062 C 27.664062 14.460938 27.617188 14.507812 27.570312 14.558594 C 27.519531 14.609375 27.472656 14.660156 27.421875 14.710938 C 27.320312 14.816406 27.21875 14.917969 27.121094 15.023438 C 27.046875 15.101562 27.046875 15.101562 26.96875 15.179688 C 26.796875 15.359375 26.625 15.546875 26.460938 15.734375 C 26.40625 15.796875 26.351562 15.855469 26.296875 15.917969 C 26.242188 15.980469 26.1875 16.039062 26.132812 16.101562 C 26.015625 16.230469 25.898438 16.363281 25.777344 16.492188 C 25.722656 16.558594 25.664062 16.621094 25.605469 16.6875 C 25.492188 16.816406 25.371094 16.9375 25.25 17.058594 C 25.164062 17.148438 25.164062 17.148438 25.078125 17.238281 C 25.027344 17.289062 24.976562 17.339844 24.921875 17.390625 C 24.628906 17.882812 24.863281 18.691406 24.929688 19.230469 C 24.949219 19.375 24.949219 19.375 24.96875 19.527344 C 25 19.785156 25.03125 20.039062 25.0625 20.296875 C 25.097656 20.5625 25.128906 20.824219 25.160156 21.085938 C 25.226562 21.601562 25.289062 22.117188 25.355469 22.632812 C 24.902344 22.804688 24.4375 22.882812 23.96875 22.972656 C 23.878906 22.988281 23.789062 23.003906 23.699219 23.023438 C 23.417969 23.078125 23.132812 23.128906 22.851562 23.183594 C 22.570312 23.234375 22.285156 23.289062 22.003906 23.34375 C 21.828125 23.378906 21.652344 23.410156 21.476562 23.441406 C 21.355469 23.464844 21.355469 23.464844 21.234375 23.488281 C 21.164062 23.503906 21.09375 23.515625 21.023438 23.527344 C 20.832031 23.566406 20.832031 23.566406 20.609375 23.644531 C 20.496094 23.820312 20.496094 23.820312 20.394531 24.042969 C 20.355469 24.125 20.3125 24.210938 20.269531 24.296875 C 20.226562 24.386719 20.183594 24.476562 20.140625 24.566406 C 20.046875 24.753906 19.957031 24.9375 19.867188 25.125 C 19.820312 25.214844 19.777344 25.308594 19.730469 25.402344 C 19.550781 25.765625 19.367188 26.121094 19.175781 26.476562 C 19.144531 26.539062 19.113281 26.597656 19.082031 26.65625 C 18.84375 27.105469 18.601562 27.554688 18.355469 28 C 17.9375 27.875 17.5625 27.691406 17.175781 27.496094 C 17.105469 27.460938 17.039062 27.425781 16.96875 27.390625 C 16.492188 27.148438 16.019531 26.902344 15.546875 26.652344 C 15.484375 26.621094 15.421875 26.589844 15.359375 26.554688 C 15.105469 26.421875 14.855469 26.289062 14.605469 26.148438 C 14.539062 26.109375 14.472656 26.074219 14.402344 26.035156 C 14.351562 26.003906 14.296875 25.972656 14.242188 25.941406 C 13.804688 25.828125 13.28125 26.210938 12.898438 26.40625 C 12.796875 26.457031 12.796875 26.457031 12.691406 26.507812 C 12.214844 26.75 11.742188 26.996094 11.269531 27.246094 C 11.207031 27.277344 11.144531 27.3125 11.082031 27.34375 C 10.828125 27.480469 10.574219 27.613281 10.320312 27.75 C 10.25 27.785156 10.183594 27.820312 10.109375 27.859375 C 10.054688 27.890625 10 27.917969 9.941406 27.949219 C 9.800781 28 9.800781 28 9.566406 27.921875 C 9.445312 27.722656 9.445312 27.722656 9.316406 27.457031 C 9.292969 27.410156 9.269531 27.359375 9.246094 27.3125 C 9.167969 27.15625 9.09375 27 9.015625 26.84375 C 8.9375 26.683594 8.859375 26.523438 8.78125 26.363281 C 8.730469 26.253906 8.675781 26.148438 8.625 26.042969 C 8.328125 25.4375 8.015625 24.839844 7.691406 24.25 C 7.621094 24.109375 7.621094 24.109375 7.53125 23.851562 C 7.335938 23.570312 7.171875 23.554688 6.847656 23.492188 C 6.769531 23.480469 6.695312 23.46875 6.617188 23.453125 C 6.535156 23.441406 6.457031 23.425781 6.375 23.410156 C 6.195312 23.375 6.015625 23.34375 5.835938 23.3125 C 5.480469 23.25 5.128906 23.179688 4.777344 23.109375 C 4.710938 23.097656 4.648438 23.085938 4.582031 23.074219 C 4.453125 23.046875 4.324219 23.023438 4.199219 22.996094 C 3.886719 22.9375 3.578125 22.875 3.269531 22.816406 C 3.214844 22.804688 3.160156 22.796875 3.101562 22.785156 C 2.976562 22.761719 2.847656 22.734375 2.722656 22.710938 C 2.640625 22.449219 2.648438 22.25 2.6875 21.980469 C 2.695312 21.898438 2.707031 21.8125 2.71875 21.726562 C 2.730469 21.636719 2.742188 21.546875 2.757812 21.453125 C 2.773438 21.3125 2.773438 21.3125 2.792969 21.171875 C 2.832031 20.871094 2.871094 20.574219 2.910156 20.277344 C 2.953125 19.976562 2.992188 19.679688 3.03125 19.382812 C 3.054688 19.199219 3.078125 19.011719 3.105469 18.828125 C 3.242188 18.105469 3.242188 18.105469 3.097656 17.417969 C 3.054688 17.375 3.011719 17.335938 2.96875 17.292969 C 2.921875 17.242188 2.878906 17.195312 2.828125 17.148438 C 2.753906 17.074219 2.753906 17.074219 2.679688 17 C 2.578125 16.894531 2.476562 16.792969 2.375 16.6875 C 2.328125 16.640625 2.277344 16.59375 2.230469 16.542969 C 2.085938 16.394531 1.949219 16.246094 1.816406 16.089844 C 1.542969 15.773438 1.257812 15.464844 0.972656 15.15625 C 0.644531 14.800781 0.320312 14.441406 0 14.078125 C 0.125 13.773438 0.335938 13.554688 0.558594 13.320312 C 0.636719 13.234375 0.714844 13.152344 0.792969 13.066406 C 0.832031 13.027344 0.871094 12.984375 0.910156 12.945312 C 1.03125 12.8125 1.152344 12.675781 1.269531 12.535156 C 1.492188 12.28125 1.722656 12.03125 1.953125 11.785156 C 2.097656 11.628906 2.242188 11.476562 2.386719 11.320312 C 2.53125 11.164062 2.683594 11.007812 2.835938 10.851562 C 2.910156 10.777344 2.910156 10.777344 2.984375 10.699219 C 3.046875 10.640625 3.046875 10.640625 3.109375 10.578125 C 3.363281 10.089844 3.136719 9.292969 3.070312 8.769531 C 3.058594 8.671875 3.046875 8.574219 3.03125 8.472656 C 3 8.214844 2.96875 7.960938 2.9375 7.703125 C 2.902344 7.4375 2.871094 7.175781 2.839844 6.914062 C 2.773438 6.398438 2.710938 5.882812 2.644531 5.367188 C 3.097656 5.195312 3.5625 5.117188 4.03125 5.027344 C 4.167969 5.003906 4.167969 5.003906 4.300781 4.976562 C 4.582031 4.921875 4.867188 4.871094 5.148438 4.816406 C 5.429688 4.765625 5.714844 4.710938 5.996094 4.65625 C 6.171875 4.621094 6.347656 4.589844 6.523438 4.558594 C 6.605469 4.542969 6.683594 4.527344 6.765625 4.511719 C 6.835938 4.496094 6.90625 4.484375 6.976562 4.472656 C 7.167969 4.433594 7.167969 4.433594 7.390625 4.355469 C 7.488281 4.191406 7.574219 4.03125 7.65625 3.855469 C 7.683594 3.804688 7.707031 3.753906 7.734375 3.699219 C 7.785156 3.589844 7.839844 3.480469 7.894531 3.371094 C 8.003906 3.140625 8.117188 2.914062 8.230469 2.683594 C 8.285156 2.570312 8.339844 2.457031 8.398438 2.34375 C 8.621094 1.890625 8.847656 1.441406 9.085938 0.996094 C 9.128906 0.910156 9.128906 0.910156 9.175781 0.824219 C 9.324219 0.542969 9.480469 0.269531 9.644531 0 Z M 9.644531 0 "/>
<path style=" stroke:none;fill-rule:nonzero;fill:rgb(98.431373%,99.215686%,99.607843%);fill-opacity:1;" d="M 18.511719 8.554688 C 18.816406 8.679688 19.019531 8.886719 19.242188 9.117188 C 19.28125 9.15625 19.324219 9.195312 19.363281 9.238281 C 19.488281 9.363281 19.613281 9.488281 19.734375 9.617188 C 19.820312 9.699219 19.90625 9.785156 19.992188 9.871094 C 20.199219 10.082031 20.40625 10.289062 20.609375 10.5 C 20.265625 10.847656 19.917969 11.191406 19.574219 11.539062 C 18.917969 12.191406 18.261719 12.84375 17.609375 13.5 C 17.210938 13.894531 16.816406 14.289062 16.421875 14.683594 C 16.074219 15.03125 15.726562 15.375 15.382812 15.722656 C 15.199219 15.90625 15.015625 16.089844 14.832031 16.269531 C 14.628906 16.472656 14.425781 16.679688 14.21875 16.882812 C 14.128906 16.972656 14.128906 16.972656 14.035156 17.066406 C 13.980469 17.121094 13.925781 17.175781 13.867188 17.234375 C 13.820312 17.28125 13.773438 17.328125 13.722656 17.378906 C 13.605469 17.496094 13.605469 17.496094 13.535156 17.65625 C 13.480469 17.65625 13.429688 17.65625 13.378906 17.65625 C 13.378906 17.707031 13.378906 17.757812 13.378906 17.8125 C 13.328125 17.8125 13.273438 17.8125 13.222656 17.8125 C 13.222656 17.863281 13.222656 17.914062 13.222656 17.964844 C 13.171875 17.964844 13.121094 17.964844 13.066406 17.964844 C 13.066406 18.019531 13.066406 18.070312 13.066406 18.121094 C 13.015625 18.121094 12.964844 18.121094 12.910156 18.121094 C 12.910156 18.171875 12.910156 18.226562 12.910156 18.277344 C 12.859375 18.277344 12.808594 18.277344 12.753906 18.277344 C 12.753906 18.328125 12.753906 18.378906 12.753906 18.433594 C 12.703125 18.433594 12.652344 18.433594 12.601562 18.433594 C 12.601562 18.484375 12.601562 18.535156 12.601562 18.589844 C 12.546875 18.589844 12.496094 18.589844 12.445312 18.589844 C 12.445312 18.640625 12.445312 18.691406 12.445312 18.746094 C 12.394531 18.746094 12.339844 18.746094 12.289062 18.746094 C 12.289062 18.796875 12.289062 18.847656 12.289062 18.898438 C 12.238281 18.898438 12.1875 18.898438 12.132812 18.898438 C 12.132812 18.953125 12.132812 19.003906 12.132812 19.054688 C 12.082031 19.054688 12.03125 19.054688 11.976562 19.054688 C 11.976562 19.105469 11.976562 19.160156 11.976562 19.210938 C 11.925781 19.210938 11.875 19.210938 11.820312 19.210938 C 11.820312 19.261719 11.820312 19.3125 11.820312 19.367188 C 11.769531 19.367188 11.71875 19.367188 11.667969 19.367188 C 11.667969 19.417969 11.667969 19.46875 11.667969 19.523438 C 11.414062 19.410156 11.246094 19.273438 11.050781 19.082031 C 10.988281 19.023438 10.929688 18.960938 10.871094 18.902344 C 10.808594 18.839844 10.742188 18.777344 10.679688 18.710938 C 10.582031 18.613281 10.582031 18.613281 10.480469 18.511719 C 10.34375 18.375 10.207031 18.238281 10.070312 18.101562 C 9.859375 17.890625 9.648438 17.679688 9.433594 17.46875 C 9.300781 17.335938 9.167969 17.199219 9.035156 17.066406 C 8.972656 17.003906 8.910156 16.941406 8.84375 16.875 C 8.785156 16.816406 8.726562 16.757812 8.667969 16.699219 C 8.613281 16.644531 8.5625 16.59375 8.511719 16.539062 C 8.398438 16.410156 8.398438 16.410156 8.398438 16.253906 C 8.355469 16.238281 8.3125 16.21875 8.265625 16.199219 C 8.046875 16.074219 7.894531 15.921875 7.71875 15.742188 C 7.65625 15.675781 7.59375 15.613281 7.53125 15.546875 C 7.484375 15.5 7.4375 15.449219 7.390625 15.398438 C 7.511719 15.097656 7.703125 14.910156 7.933594 14.683594 C 7.972656 14.648438 8.007812 14.609375 8.046875 14.570312 C 8.167969 14.453125 8.289062 14.332031 8.410156 14.214844 C 8.492188 14.132812 8.574219 14.050781 8.65625 13.972656 C 8.855469 13.773438 9.054688 13.574219 9.253906 13.378906 C 9.519531 13.472656 9.707031 13.566406 9.902344 13.765625 C 9.949219 13.808594 9.992188 13.851562 10.039062 13.898438 C 10.082031 13.945312 10.128906 13.992188 10.175781 14.039062 C 10.222656 14.085938 10.265625 14.132812 10.316406 14.179688 C 10.65625 14.523438 10.65625 14.523438 10.65625 14.699219 C 10.703125 14.71875 10.746094 14.738281 10.792969 14.761719 C 11.035156 14.894531 11.191406 15.085938 11.371094 15.292969 C 11.503906 15.417969 11.503906 15.417969 11.667969 15.394531 C 11.855469 15.304688 11.941406 15.207031 12.070312 15.046875 C 12.269531 14.804688 12.476562 14.59375 12.714844 14.390625 C 12.941406 14.191406 13.144531 13.996094 13.339844 13.765625 C 13.582031 13.476562 13.855469 13.238281 14.140625 12.988281 C 14.300781 12.839844 14.441406 12.6875 14.582031 12.523438 C 14.828125 12.234375 15.097656 11.992188 15.386719 11.746094 C 15.546875 11.597656 15.6875 11.445312 15.828125 11.277344 C 16.070312 10.988281 16.34375 10.746094 16.628906 10.5 C 16.839844 10.308594 17.019531 10.097656 17.203125 9.878906 C 17.414062 9.648438 17.648438 9.445312 17.886719 9.246094 C 18.050781 9.105469 18.050781 9.105469 18.171875 8.925781 C 18.207031 8.882812 18.242188 8.835938 18.277344 8.789062 C 18.328125 8.789062 18.378906 8.789062 18.433594 8.789062 C 18.460938 8.710938 18.484375 8.636719 18.511719 8.554688 Z M 18.511719 8.554688 "/>
<path style=" stroke:none;fill-rule:nonzero;fill:rgb(31.764706%,52.54902%,86.27451%);fill-opacity:1;" d="M 1.089844 14.464844 C 1.070312 14.523438 1.050781 14.582031 1.035156 14.640625 C 0.988281 14.859375 0.988281 14.859375 1.121094 15.023438 C 1.199219 15.101562 1.199219 15.101562 1.277344 15.179688 C 1.554688 15.464844 1.554688 15.464844 1.554688 15.632812 C 1.734375 15.683594 1.914062 15.734375 2.101562 15.789062 C 2.101562 15.84375 2.105469 15.894531 2.109375 15.949219 C 2.207031 16.277344 2.414062 16.476562 2.644531 16.722656 C 2.617188 16.773438 2.59375 16.824219 2.566406 16.878906 C 2.371094 16.671875 2.175781 16.464844 1.976562 16.253906 C 1.921875 16.199219 1.867188 16.140625 1.8125 16.082031 C 1.648438 15.90625 1.484375 15.730469 1.320312 15.554688 C 1.269531 15.5 1.214844 15.441406 1.164062 15.382812 C 1.113281 15.328125 1.0625 15.277344 1.015625 15.21875 C 0.96875 15.171875 0.925781 15.125 0.882812 15.074219 C 0.769531 14.921875 0.730469 14.804688 0.699219 14.621094 C 0.933594 14.464844 0.933594 14.464844 1.089844 14.464844 Z M 1.089844 14.464844 "/>
<path style=" stroke:none;fill-rule:nonzero;fill:rgb(34.509804%,53.333333%,85.098039%);fill-opacity:1;" d="M 26.367188 12.210938 C 26.453125 12.300781 26.542969 12.386719 26.628906 12.472656 C 26.71875 12.5625 26.808594 12.652344 26.902344 12.742188 C 27.167969 13.007812 27.433594 13.273438 27.6875 13.554688 C 27.734375 13.601562 27.777344 13.648438 27.824219 13.699219 C 27.921875 13.84375 27.921875 13.84375 27.921875 14.15625 C 27.820312 14.304688 27.820312 14.304688 27.6875 14.445312 C 27.644531 14.496094 27.601562 14.542969 27.558594 14.59375 C 27.523438 14.628906 27.492188 14.664062 27.457031 14.699219 C 27.429688 14.621094 27.402344 14.546875 27.378906 14.464844 C 27.429688 14.390625 27.480469 14.3125 27.535156 14.234375 C 27.609375 14.039062 27.625 13.960938 27.546875 13.765625 C 27.515625 13.714844 27.488281 13.664062 27.457031 13.609375 C 27.429688 13.554688 27.40625 13.5 27.382812 13.441406 C 27.304688 13.273438 27.304688 13.273438 27.066406 13.222656 C 26.761719 12.933594 26.484375 12.621094 26.367188 12.210938 Z M 26.367188 12.210938 "/>
<path style=" stroke:none;fill-rule:nonzero;fill:rgb(29.411765%,53.72549%,93.333333%);fill-opacity:1;" d="M 26.445312 15.476562 C 26.519531 15.503906 26.597656 15.527344 26.679688 15.554688 C 26.621094 15.613281 26.621094 15.613281 26.5625 15.667969 C 26.191406 16.03125 25.847656 16.40625 25.511719 16.800781 C 25.355469 16.566406 25.355469 16.566406 25.382812 16.359375 C 25.402344 16.296875 25.417969 16.238281 25.433594 16.179688 C 25.511719 16.179688 25.585938 16.179688 25.667969 16.179688 C 25.691406 16.101562 25.71875 16.023438 25.746094 15.945312 C 25.847656 15.945312 25.949219 15.945312 26.054688 15.945312 C 26.082031 15.839844 26.105469 15.738281 26.132812 15.632812 C 26.234375 15.632812 26.339844 15.632812 26.445312 15.632812 C 26.445312 15.582031 26.445312 15.53125 26.445312 15.476562 Z M 26.445312 15.476562 "/>
<path style=" stroke:none;fill-rule:nonzero;fill:rgb(29.803922%,51.764706%,89.803922%);fill-opacity:1;" d="M 1.246094 12.523438 C 1.269531 12.597656 1.296875 12.675781 1.320312 12.753906 C 1.226562 12.898438 1.226562 12.898438 1.09375 13.042969 C 1.050781 13.089844 1.003906 13.140625 0.960938 13.1875 C 0.925781 13.226562 0.890625 13.261719 0.855469 13.300781 C 0.882812 13.351562 0.90625 13.402344 0.933594 13.457031 C 0.832031 13.457031 0.726562 13.457031 0.621094 13.457031 C 0.613281 13.503906 0.601562 13.550781 0.59375 13.601562 C 0.542969 13.765625 0.542969 13.765625 0.390625 13.921875 C 0.414062 14.113281 0.414062 14.113281 0.464844 14.3125 C 0.464844 14.386719 0.464844 14.464844 0.464844 14.542969 C 0.3125 14.390625 0.160156 14.238281 0 14.078125 C 0.128906 13.765625 0.347656 13.542969 0.578125 13.300781 C 0.8125 13.050781 1.046875 12.804688 1.246094 12.523438 Z M 1.246094 12.523438 "/>
<path style=" stroke:none;fill-rule:nonzero;fill:rgb(31.372549%,53.72549%,90.588235%);fill-opacity:1;" d="M 23.253906 22.554688 C 23.632812 22.625 23.632812 22.625 23.722656 22.710938 C 23.9375 22.695312 24.148438 22.664062 24.363281 22.636719 C 24.578125 22.632812 24.578125 22.632812 24.890625 22.789062 C 24.296875 22.890625 23.707031 22.996094 23.101562 23.101562 C 23.101562 22.859375 23.140625 22.761719 23.253906 22.554688 Z M 23.253906 22.554688 "/>
<path style=" stroke:none;fill-rule:nonzero;fill:rgb(35.686275%,55.294118%,86.666667%);fill-opacity:1;" d="M 4.199219 5.054688 C 4.199219 5.105469 4.199219 5.160156 4.199219 5.210938 C 4.113281 5.230469 4.023438 5.253906 3.933594 5.273438 C 3.839844 5.304688 3.75 5.335938 3.65625 5.367188 C 3.628906 5.445312 3.605469 5.519531 3.578125 5.601562 C 3.5 5.574219 3.421875 5.546875 3.34375 5.523438 C 3.34375 5.472656 3.34375 5.417969 3.34375 5.367188 C 3.164062 5.367188 2.984375 5.367188 2.800781 5.367188 C 2.820312 5.445312 2.820312 5.445312 2.839844 5.527344 C 2.882812 5.785156 2.886719 6.023438 2.882812 6.285156 C 2.882812 6.375 2.882812 6.464844 2.878906 6.558594 C 2.878906 6.628906 2.878906 6.695312 2.878906 6.765625 C 2.851562 6.765625 2.828125 6.765625 2.800781 6.765625 C 2.75 6.304688 2.699219 5.84375 2.644531 5.367188 C 2.941406 5.265625 3.207031 5.183594 3.507812 5.125 C 3.605469 5.105469 3.605469 5.105469 3.703125 5.085938 C 3.890625 5.054688 3.890625 5.054688 4.199219 5.054688 Z M 4.199219 5.054688 "/>
<path style=" stroke:none;fill-rule:nonzero;fill:rgb(34.509804%,54.901961%,88.627451%);fill-opacity:1;" d="M 20.378906 4.042969 C 20.40625 4.09375 20.4375 4.140625 20.46875 4.191406 C 20.652344 4.402344 20.773438 4.417969 21.042969 4.472656 C 21.125 4.488281 21.210938 4.503906 21.296875 4.519531 C 21.425781 4.546875 21.425781 4.546875 21.558594 4.570312 C 21.648438 4.585938 21.734375 4.605469 21.824219 4.621094 C 22.042969 4.664062 22.261719 4.703125 22.476562 4.746094 C 22.476562 4.769531 22.476562 4.796875 22.476562 4.820312 C 22.402344 4.820312 22.324219 4.820312 22.246094 4.820312 C 22.144531 4.820312 22.046875 4.816406 21.941406 4.816406 C 21.792969 4.816406 21.792969 4.816406 21.640625 4.816406 C 21.398438 4.804688 21.398438 4.804688 21.234375 4.898438 C 21.066406 4.828125 21.066406 4.828125 20.921875 4.746094 C 20.921875 4.691406 20.921875 4.640625 20.921875 4.589844 C 20.792969 4.5625 20.664062 4.539062 20.535156 4.511719 C 20.507812 4.433594 20.480469 4.355469 20.457031 4.277344 C 20.402344 4.277344 20.351562 4.277344 20.300781 4.277344 C 20.324219 4.199219 20.351562 4.125 20.378906 4.042969 Z M 20.378906 4.042969 "/>
<path style=" stroke:none;fill-rule:nonzero;fill:rgb(32.941176%,55.294118%,90.588235%);fill-opacity:1;" d="M 18.277344 0.015625 C 18.484375 0.0976562 18.519531 0.1875 18.609375 0.382812 C 18.632812 0.4375 18.660156 0.496094 18.6875 0.550781 C 18.746094 0.699219 18.746094 0.699219 18.746094 0.855469 C 18.59375 0.832031 18.59375 0.832031 18.433594 0.777344 C 18.40625 0.699219 18.382812 0.625 18.355469 0.542969 C 18.015625 0.386719 17.785156 0.378906 17.421875 0.464844 C 18.03125 -0.0078125 18.03125 -0.0078125 18.277344 0.015625 Z M 18.277344 0.015625 "/>
<path style=" stroke:none;fill-rule:nonzero;fill:rgb(34.509804%,53.72549%,86.666667%);fill-opacity:1;" d="M 7.777344 24.109375 C 8.007812 24.390625 8.160156 24.699219 8.316406 25.023438 C 8.34375 25.078125 8.371094 25.128906 8.394531 25.183594 C 8.449219 25.292969 8.5 25.398438 8.554688 25.503906 C 8.609375 25.617188 8.664062 25.726562 8.726562 25.835938 C 8.753906 25.890625 8.785156 25.945312 8.8125 26.003906 C 8.839844 26.050781 8.867188 26.101562 8.894531 26.152344 C 8.945312 26.289062 8.945312 26.289062 8.867188 26.523438 C 8.699219 26.203125 8.53125 25.886719 8.363281 25.566406 C 8.308594 25.457031 8.25 25.351562 8.191406 25.242188 C 8.109375 25.085938 8.027344 24.929688 7.949219 24.773438 C 7.921875 24.726562 7.894531 24.679688 7.867188 24.628906 C 7.808594 24.511719 7.753906 24.386719 7.699219 24.265625 C 7.726562 24.214844 7.75 24.164062 7.777344 24.109375 Z M 7.777344 24.109375 "/>
<path style=" stroke:none;fill-rule:nonzero;fill:rgb(33.333333%,54.117647%,88.235294%);fill-opacity:1;" d="M 2.722656 10.890625 C 2.746094 10.964844 2.773438 11.042969 2.800781 11.121094 C 2.675781 11.28125 2.542969 11.4375 2.410156 11.589844 C 2.410156 11.640625 2.410156 11.691406 2.410156 11.746094 C 2.257812 11.820312 2.257812 11.820312 2.101562 11.898438 C 2.101562 11.976562 2.101562 12.054688 2.101562 12.132812 C 1.96875 12.242188 1.96875 12.242188 1.796875 12.347656 C 1.742188 12.382812 1.6875 12.417969 1.628906 12.453125 C 1.554688 12.488281 1.554688 12.488281 1.476562 12.523438 C 1.425781 12.496094 1.375 12.472656 1.320312 12.445312 C 1.378906 12.386719 1.378906 12.386719 1.4375 12.332031 C 1.898438 11.875 2.339844 11.410156 2.722656 10.890625 Z M 2.722656 10.890625 "/>
<path style=" stroke:none;fill-rule:nonzero;fill:rgb(32.54902%,53.333333%,88.235294%);fill-opacity:1;" d="M 15.710938 26.679688 C 15.863281 26.679688 16.019531 26.679688 16.179688 26.679688 C 16.179688 26.730469 16.179688 26.78125 16.179688 26.832031 C 16.253906 26.832031 16.332031 26.832031 16.410156 26.832031 C 16.410156 26.882812 16.410156 26.9375 16.410156 26.988281 C 16.542969 26.988281 16.542969 26.988281 16.671875 26.984375 C 16.957031 26.988281 16.957031 26.988281 17.109375 27.066406 C 17.109375 27.144531 17.109375 27.21875 17.109375 27.300781 C 17.214844 27.300781 17.316406 27.300781 17.421875 27.300781 C 17.421875 27.378906 17.421875 27.453125 17.421875 27.535156 C 17.027344 27.414062 16.671875 27.246094 16.304688 27.058594 C 16.246094 27.027344 16.191406 27 16.128906 26.96875 C 15.992188 26.898438 15.851562 26.828125 15.710938 26.753906 C 15.710938 26.730469 15.710938 26.703125 15.710938 26.679688 Z M 15.710938 26.679688 "/>
<path style=" stroke:none;fill-rule:nonzero;fill:rgb(29.803922%,52.54902%,87.843137%);fill-opacity:1;" d="M 21.234375 23.179688 C 21.425781 23.253906 21.425781 23.253906 21.621094 23.332031 C 21.621094 23.359375 21.621094 23.382812 21.621094 23.410156 C 21.554688 23.421875 21.484375 23.429688 21.410156 23.441406 C 20.890625 23.511719 20.890625 23.511719 20.476562 23.796875 C 20.378906 23.988281 20.378906 23.988281 20.300781 24.265625 C 20.191406 23.9375 20.308594 23.792969 20.457031 23.488281 C 20.507812 23.410156 20.558594 23.335938 20.609375 23.253906 C 20.886719 23.246094 20.886719 23.246094 21.15625 23.253906 C 21.179688 23.230469 21.207031 23.203125 21.234375 23.179688 Z M 21.234375 23.179688 "/>
<path style=" stroke:none;fill-rule:nonzero;fill:rgb(32.156863%,53.333333%,87.058824%);fill-opacity:1;" d="M 25.121094 10.890625 C 25.585938 11.265625 25.976562 11.683594 26.367188 12.132812 C 26.316406 12.160156 26.265625 12.183594 26.210938 12.210938 C 26.210938 12.261719 26.210938 12.3125 26.210938 12.367188 C 26.132812 12.339844 26.058594 12.316406 25.976562 12.289062 C 26.027344 12.289062 26.082031 12.289062 26.132812 12.289062 C 26.097656 12.230469 26.0625 12.171875 26.027344 12.113281 C 25.898438 11.898438 25.898438 11.898438 25.832031 11.726562 C 25.804688 11.679688 25.773438 11.636719 25.746094 11.589844 C 25.679688 11.578125 25.617188 11.566406 25.550781 11.554688 C 25.484375 11.539062 25.421875 11.527344 25.355469 11.511719 C 25.257812 11.328125 25.257812 11.328125 25.199219 11.121094 C 25.175781 11.046875 25.148438 10.96875 25.121094 10.890625 Z M 25.121094 10.890625 "/>
<path style=" stroke:none;fill-rule:nonzero;fill:rgb(35.294118%,55.686275%,88.627451%);fill-opacity:1;" d="M 2.722656 21.855469 C 2.746094 21.855469 2.773438 21.855469 2.800781 21.855469 C 2.800781 22.085938 2.800781 22.316406 2.800781 22.554688 C 2.878906 22.554688 2.953125 22.554688 3.035156 22.554688 C 3.035156 22.503906 3.035156 22.453125 3.035156 22.398438 C 3.085938 22.398438 3.136719 22.398438 3.1875 22.398438 C 3.214844 22.453125 3.238281 22.503906 3.265625 22.554688 C 3.421875 22.554688 3.574219 22.554688 3.734375 22.554688 C 3.734375 22.605469 3.734375 22.660156 3.734375 22.710938 C 3.3125 22.785156 3.046875 22.804688 2.644531 22.632812 C 2.671875 22.375 2.695312 22.121094 2.722656 21.855469 Z M 2.722656 21.855469 "/>
<path style=" stroke:none;fill-rule:nonzero;fill:rgb(27.45098%,50.196078%,88.235294%);fill-opacity:1;" d="M 12.753906 18.277344 C 12.808594 18.304688 12.859375 18.328125 12.910156 18.355469 C 12.910156 18.433594 12.910156 18.507812 12.910156 18.589844 C 12.796875 18.691406 12.683594 18.789062 12.5625 18.882812 C 12.4375 18.980469 12.4375 18.980469 12.3125 19.117188 C 12.210938 19.210938 12.210938 19.210938 11.976562 19.210938 C 11.976562 19.160156 11.976562 19.109375 11.976562 19.054688 C 12.027344 19.054688 12.082031 19.054688 12.132812 19.054688 C 12.132812 19.003906 12.132812 18.953125 12.132812 18.898438 C 12.183594 18.898438 12.234375 18.898438 12.289062 18.898438 C 12.289062 18.847656 12.289062 18.796875 12.289062 18.746094 C 12.339844 18.746094 12.390625 18.746094 12.445312 18.746094 C 12.445312 18.691406 12.445312 18.640625 12.445312 18.589844 C 12.496094 18.589844 12.546875 18.589844 12.601562 18.589844 C 12.601562 18.539062 12.601562 18.484375 12.601562 18.433594 C 12.652344 18.433594 12.703125 18.433594 12.753906 18.433594 C 12.753906 18.382812 12.753906 18.332031 12.753906 18.277344 Z M 12.753906 18.277344 "/>
<path style=" stroke:none;fill-rule:nonzero;fill:rgb(28.235294%,51.372549%,89.019608%);fill-opacity:1;" d="M 11.121094 15.011719 C 11.429688 15.011719 11.738281 15.011719 12.054688 15.011719 C 11.902344 15.242188 11.902344 15.242188 11.746094 15.476562 C 11.492188 15.449219 11.433594 15.398438 11.257812 15.199219 C 11.214844 15.136719 11.167969 15.074219 11.121094 15.011719 Z M 11.121094 15.011719 "/>
<path style=" stroke:none;fill-rule:nonzero;fill:rgb(38.823529%,57.254902%,86.666667%);fill-opacity:1;" d="M 24.1875 5.132812 C 24.597656 5.167969 24.96875 5.21875 25.355469 5.367188 C 25.328125 5.625 25.304688 5.878906 25.277344 6.144531 C 25.253906 6.144531 25.226562 6.144531 25.199219 6.144531 C 25.199219 5.914062 25.199219 5.683594 25.199219 5.445312 C 25.132812 5.433594 25.066406 5.425781 25 5.414062 C 24.871094 5.394531 24.871094 5.394531 24.738281 5.375 C 24.609375 5.359375 24.609375 5.359375 24.476562 5.339844 C 24.410156 5.320312 24.339844 5.304688 24.265625 5.289062 C 24.242188 5.238281 24.214844 5.1875 24.1875 5.132812 Z M 24.1875 5.132812 "/>
<path style=" stroke:none;fill-rule:nonzero;fill:rgb(34.901961%,54.901961%,85.490196%);fill-opacity:1;" d="M 24.734375 9.253906 C 24.757812 9.253906 24.785156 9.253906 24.8125 9.253906 C 24.808594 9.335938 24.804688 9.417969 24.804688 9.5 C 24.800781 9.605469 24.796875 9.714844 24.796875 9.820312 C 24.792969 9.871094 24.792969 9.925781 24.789062 9.980469 C 24.785156 10.234375 24.792969 10.394531 24.929688 10.617188 C 24.96875 10.65625 25.003906 10.691406 25.042969 10.734375 C 24.96875 10.734375 24.890625 10.734375 24.8125 10.734375 C 24.636719 10.519531 24.578125 10.386719 24.570312 10.109375 C 24.578125 10.027344 24.585938 9.945312 24.597656 9.863281 C 24.605469 9.78125 24.613281 9.699219 24.621094 9.617188 C 24.65625 9.410156 24.65625 9.410156 24.734375 9.253906 Z M 24.734375 9.253906 "/>
<path style=" stroke:none;fill-rule:nonzero;fill:rgb(36.078431%,55.294118%,85.882353%);fill-opacity:1;" d="M 3.035156 8.167969 C 3.085938 8.167969 3.136719 8.167969 3.1875 8.167969 C 3.1875 8.398438 3.1875 8.628906 3.1875 8.867188 C 3.238281 8.867188 3.292969 8.867188 3.34375 8.867188 C 3.320312 9.175781 3.292969 9.484375 3.265625 9.800781 C 3.242188 9.800781 3.214844 9.800781 3.1875 9.800781 C 3.164062 9.601562 3.136719 9.402344 3.109375 9.203125 C 3.105469 9.144531 3.097656 9.089844 3.089844 9.03125 C 3.050781 8.742188 3.023438 8.460938 3.035156 8.167969 Z M 3.035156 8.167969 "/>
<path style=" stroke:none;fill-rule:nonzero;fill:rgb(33.333333%,54.901961%,89.803922%);fill-opacity:1;" d="M 7 23.179688 C 7.128906 23.179688 7.257812 23.179688 7.390625 23.179688 C 7.390625 23.304688 7.390625 23.433594 7.390625 23.566406 C 7.03125 23.515625 6.671875 23.464844 6.300781 23.410156 C 6.300781 23.386719 6.300781 23.359375 6.300781 23.332031 C 6.53125 23.332031 6.761719 23.332031 7 23.332031 C 7 23.28125 7 23.230469 7 23.179688 Z M 7 23.179688 "/>
<path style=" stroke:none;fill-rule:nonzero;fill:rgb(32.156863%,54.117647%,89.019608%);fill-opacity:1;" d="M 26.445312 15.476562 C 26.519531 15.503906 26.597656 15.527344 26.679688 15.554688 C 26.632812 15.597656 26.589844 15.640625 26.542969 15.6875 C 26.488281 15.742188 26.429688 15.800781 26.371094 15.855469 C 26.316406 15.914062 26.257812 15.96875 26.199219 16.027344 C 26.050781 16.167969 26.050781 16.167969 25.976562 16.332031 C 25.925781 16.332031 25.875 16.332031 25.820312 16.332031 C 25.796875 16.230469 25.769531 16.128906 25.746094 16.023438 C 25.847656 15.996094 25.949219 15.972656 26.054688 15.945312 C 26.082031 15.839844 26.105469 15.738281 26.132812 15.632812 C 26.234375 15.632812 26.339844 15.632812 26.445312 15.632812 C 26.445312 15.582031 26.445312 15.53125 26.445312 15.476562 Z M 26.445312 15.476562 "/>
<path style=" stroke:none;fill-rule:nonzero;fill:rgb(32.941176%,55.294118%,88.627451%);fill-opacity:1;" d="M 27.6875 13.84375 C 27.847656 13.878906 27.847656 13.878906 28 13.921875 C 27.871094 14.230469 27.671875 14.449219 27.457031 14.699219 C 27.429688 14.621094 27.402344 14.546875 27.378906 14.464844 C 27.429688 14.390625 27.480469 14.3125 27.535156 14.234375 C 27.5625 14.128906 27.585938 14.027344 27.609375 13.921875 C 27.636719 13.898438 27.664062 13.871094 27.6875 13.84375 Z M 27.6875 13.84375 "/>
<path style=" stroke:none;fill-rule:nonzero;fill:rgb(32.941176%,53.72549%,87.843137%);fill-opacity:1;" d="M 9.644531 0 C 10.089844 0.144531 10.089844 0.144531 10.265625 0.234375 C 10.265625 0.285156 10.265625 0.335938 10.265625 0.390625 C 9.972656 0.488281 9.847656 0.417969 9.566406 0.3125 C 9.59375 0.207031 9.617188 0.105469 9.644531 0 Z M 9.644531 0 "/>
<path style=" stroke:none;fill-rule:nonzero;fill:rgb(34.117647%,56.862745%,92.156863%);fill-opacity:1;" d="M 3.265625 10.1875 C 3.316406 10.265625 3.371094 10.34375 3.421875 10.421875 C 3.3125 10.683594 3.191406 10.808594 2.957031 10.964844 C 2.902344 10.914062 2.851562 10.863281 2.800781 10.8125 C 2.863281 10.75 2.925781 10.691406 2.988281 10.632812 C 3.203125 10.4375 3.203125 10.4375 3.265625 10.1875 Z M 3.265625 10.1875 "/>
<path style=" stroke:none;fill-rule:nonzero;fill:rgb(26.666667%,50.980392%,89.803922%);fill-opacity:1;" d="M 13.222656 17.8125 C 13.378906 17.890625 13.378906 17.890625 13.535156 18.042969 C 13.457031 18.148438 13.378906 18.25 13.300781 18.355469 C 13.171875 18.328125 13.042969 18.304688 12.910156 18.277344 C 12.910156 18.226562 12.910156 18.175781 12.910156 18.121094 C 12.960938 18.121094 13.015625 18.121094 13.066406 18.121094 C 13.066406 18.070312 13.066406 18.019531 13.066406 17.964844 C 13.117188 17.964844 13.167969 17.964844 13.222656 17.964844 C 13.222656 17.914062 13.222656 17.863281 13.222656 17.8125 Z M 13.222656 17.8125 "/>
<path style=" stroke:none;fill-rule:nonzero;fill:rgb(30.588235%,54.117647%,89.411765%);fill-opacity:1;" d="M 7 4.589844 C 6.914062 4.707031 6.914062 4.707031 6.765625 4.820312 C 6.519531 4.835938 6.519531 4.835938 6.300781 4.820312 C 6.273438 4.769531 6.25 4.71875 6.222656 4.667969 C 6.710938 4.476562 6.710938 4.476562 7 4.589844 Z M 7 4.589844 "/>
<path style=" stroke:none;fill-rule:nonzero;fill:rgb(33.333333%,54.117647%,89.019608%);fill-opacity:1;" d="M 8.089844 2.957031 C 8.140625 2.957031 8.191406 2.957031 8.246094 2.957031 C 8.277344 3.230469 8.253906 3.328125 8.097656 3.5625 C 8.042969 3.621094 7.988281 3.675781 7.933594 3.734375 C 7.882812 3.734375 7.832031 3.734375 7.777344 3.734375 C 7.863281 3.460938 7.953125 3.207031 8.089844 2.957031 Z M 8.089844 2.957031 "/>
<path style=" stroke:none;fill-rule:nonzero;fill:rgb(34.509804%,56.078431%,88.235294%);fill-opacity:1;" d="M 11.199219 26.910156 C 11.40625 26.910156 11.609375 26.910156 11.820312 26.910156 C 11.578125 27.117188 11.347656 27.210938 11.042969 27.300781 C 11.097656 27.171875 11.148438 27.042969 11.199219 26.910156 Z M 11.199219 26.910156 "/>
<path style=" stroke:none;fill-rule:nonzero;fill:rgb(29.019608%,52.54902%,92.54902%);fill-opacity:1;" d="M 7.542969 23.878906 C 7.832031 23.863281 7.914062 23.867188 8.167969 24.035156 C 8.117188 24.160156 8.0625 24.289062 8.011719 24.421875 C 7.632812 24.140625 7.632812 24.140625 7.542969 23.878906 Z M 7.542969 23.878906 "/>
<path style=" stroke:none;fill-rule:nonzero;fill:rgb(35.686275%,55.686275%,87.843137%);fill-opacity:1;" d="M 10.34375 0.390625 C 10.722656 0.4375 11.023438 0.601562 11.355469 0.777344 C 11.355469 0.804688 11.355469 0.828125 11.355469 0.855469 C 10.921875 0.882812 10.921875 0.882812 10.761719 0.75 C 10.726562 0.707031 10.691406 0.664062 10.65625 0.621094 C 10.492188 0.53125 10.492188 0.53125 10.34375 0.464844 C 10.34375 0.441406 10.34375 0.414062 10.34375 0.390625 Z M 10.34375 0.390625 "/>
<path style=" stroke:none;fill-rule:nonzero;fill:rgb(37.647059%,56.470588%,87.843137%);fill-opacity:1;" d="M 20.457031 23.488281 C 20.582031 23.488281 20.710938 23.488281 20.84375 23.488281 C 20.796875 23.53125 20.75 23.574219 20.703125 23.617188 C 20.515625 23.816406 20.414062 24.015625 20.300781 24.265625 C 20.191406 23.941406 20.3125 23.789062 20.457031 23.488281 Z M 20.457031 23.488281 "/>
<path style=" stroke:none;fill-rule:nonzero;fill:rgb(81.960784%,90.980392%,98.431373%);fill-opacity:1;" d="M 13.609375 13.457031 C 13.636719 13.507812 13.664062 13.558594 13.6875 13.609375 C 13.5625 13.769531 13.433594 13.925781 13.300781 14.078125 C 13.25 14.078125 13.199219 14.078125 13.144531 14.078125 C 13.257812 13.816406 13.402344 13.648438 13.609375 13.457031 Z M 13.609375 13.457031 "/>
<path style=" stroke:none;fill-rule:nonzero;fill:rgb(81.960784%,90.980392%,98.431373%);fill-opacity:1;" d="M 14.855469 12.210938 C 14.882812 12.261719 14.90625 12.3125 14.933594 12.367188 C 14.808594 12.527344 14.679688 12.679688 14.542969 12.832031 C 14.492188 12.832031 14.441406 12.832031 14.390625 12.832031 C 14.5 12.570312 14.648438 12.40625 14.855469 12.210938 Z M 14.855469 12.210938 "/>
<path style=" stroke:none;fill-rule:nonzero;fill:rgb(81.960784%,90.980392%,98.431373%);fill-opacity:1;" d="M 16.101562 10.964844 C 16.125 11.019531 16.152344 11.070312 16.179688 11.121094 C 16.050781 11.28125 15.921875 11.4375 15.789062 11.589844 C 15.738281 11.589844 15.6875 11.589844 15.632812 11.589844 C 15.746094 11.328125 15.890625 11.160156 16.101562 10.964844 Z M 16.101562 10.964844 "/>
<path style=" stroke:none;fill-rule:nonzero;fill:rgb(81.960784%,90.980392%,98.431373%);fill-opacity:1;" d="M 17.34375 9.722656 C 17.371094 9.773438 17.394531 9.824219 17.421875 9.878906 C 17.296875 10.035156 17.167969 10.191406 17.035156 10.34375 C 16.980469 10.34375 16.929688 10.34375 16.878906 10.34375 C 16.988281 10.082031 17.136719 9.914062 17.34375 9.722656 Z M 17.34375 9.722656 "/>
<path style=" stroke:none;fill-rule:nonzero;fill:rgb(34.509804%,54.117647%,83.921569%);fill-opacity:1;" d="M 27.144531 14.699219 C 27.222656 14.726562 27.296875 14.75 27.378906 14.777344 C 27.171875 14.984375 26.96875 15.1875 26.753906 15.398438 C 26.753906 15.058594 26.921875 14.953125 27.144531 14.699219 Z M 27.144531 14.699219 "/>
<path style=" stroke:none;fill-rule:nonzero;fill:rgb(36.862745%,54.901961%,88.627451%);fill-opacity:1;" d="M 9.488281 27.609375 C 9.554688 27.648438 9.554688 27.648438 9.625 27.683594 C 9.789062 27.761719 9.9375 27.808594 10.109375 27.84375 C 9.957031 27.894531 9.804688 27.945312 9.644531 28 C 9.59375 27.871094 9.542969 27.742188 9.488281 27.609375 Z M 9.488281 27.609375 "/>
<path style=" stroke:none;fill-rule:nonzero;fill:rgb(33.72549%,55.686275%,92.156863%);fill-opacity:1;" d="M 1.398438 15.554688 C 1.632812 15.632812 1.863281 15.710938 2.101562 15.789062 C 2.023438 15.90625 2.023438 15.90625 1.945312 16.023438 C 1.488281 15.730469 1.488281 15.730469 1.398438 15.554688 Z M 1.398438 15.554688 "/>
<path style=" stroke:none;fill-rule:nonzero;fill:rgb(40.784314%,57.647059%,86.27451%);fill-opacity:1;" d="M 0.464844 13.378906 C 0.492188 13.453125 0.519531 13.53125 0.542969 13.609375 C 0.402344 13.8125 0.25 13.980469 0.078125 14.15625 C 0.078125 13.742188 0.195312 13.675781 0.464844 13.378906 Z M 0.464844 13.378906 "/>
<path style=" stroke:none;fill-rule:nonzero;fill:rgb(43.137255%,61.176471%,86.666667%);fill-opacity:1;" d="M 1.246094 12.523438 C 1.269531 12.597656 1.296875 12.675781 1.320312 12.753906 C 1.167969 12.910156 1.015625 13.0625 0.855469 13.222656 C 0.804688 13.195312 0.753906 13.171875 0.699219 13.144531 C 0.878906 12.9375 1.058594 12.734375 1.246094 12.523438 Z M 1.246094 12.523438 "/>
<path style=" stroke:none;fill-rule:nonzero;fill:rgb(36.862745%,56.470588%,89.019608%);fill-opacity:1;" d="M 9.101562 26.910156 C 9.253906 26.988281 9.253906 26.988281 9.410156 27.066406 C 9.410156 27.167969 9.410156 27.273438 9.410156 27.378906 C 9.460938 27.402344 9.515625 27.429688 9.566406 27.457031 C 9.515625 27.507812 9.464844 27.558594 9.410156 27.609375 C 9.308594 27.378906 9.207031 27.148438 9.101562 26.910156 Z M 9.101562 26.910156 "/>
<path style=" stroke:none;fill-rule:nonzero;fill:rgb(40.784314%,57.254902%,87.058824%);fill-opacity:1;" d="M 25.121094 6.300781 C 25.148438 6.300781 25.171875 6.300781 25.199219 6.300781 C 25.175781 6.660156 25.148438 7.019531 25.121094 7.390625 C 25.097656 7.390625 25.070312 7.390625 25.042969 7.390625 C 25.027344 7.265625 25.011719 7.144531 24.996094 7.019531 C 24.988281 6.949219 24.976562 6.882812 24.96875 6.8125 C 24.964844 6.59375 25.007812 6.484375 25.121094 6.300781 Z M 25.121094 6.300781 "/>
</g>
</svg>
