<?xml version="1.0" encoding="UTF-8"?>
<svg version="1.1" viewBox="0 0 1200 800" width="1280" height="1280" xmlns="http://www.w3.org/2000/svg">
<path transform="translate(0)" d="m0 0h1200v800h-1200z" fill="#968F87"/>
<path transform="translate(456)" d="m0 0h744v118l-12 12h-2l-1 3-12 9-1 3-5 5-2 4h-2l-2 7-3 4-1 4-4 4-1 3h-2l-2 7-6 10-3 8-4 5h-2v2l-11 4-13 3-9 2-4 1-13 1-6 2-17 3-14 1-10 2-15 2-15 3-38 5-23 2-11 4-9 5-5 3-27 3-30 10-10 3-5 1v2h-2l-1 6-3 2-15 2-46 6-13 2-13 1-13 2-15 1-2-20-3-11-10 3-9 4-6 3h-2v6l6 4 2 3 2 7v4l-9 1-2 1-10 1-2 2-18 3-27 4-17 4-20 3-28 4-15 2v-2h-3v2l-7 1v-5l-1-3 5 1v-1l-6-2 1-3 6 2v-2l-6-2-1-4h2v2h2l-3-3-2-1v-3l2-1-2-1-1-8v-5l-8 1-5 1-1-2-2 3h2l-1 2-4 1-2-1-1 3-3-2v-2h-2l3 6-4-1-1 2-3 1-1 2 3 1v2l-4-2-2 2 3 2v4l4-1 6 2 1 5h-2v-3l-5-1-2-1v2l5 2 3 2v2h3v4l-4-1-4-5-3 1 1 2 4 1 5 5v2h-3v-2l-6-1-4-4-3-4v-3l-4-1-2-5h3v2l6 2v-2h-2v-3l-15-1-1 2-5-2-2-2v-4l-11 2v-5l4 1v-3l12-4 1 6h-2v2h3v3h2v-2l4 1 2 1 2-2 1-2-4 1-1-3-3-1-4-2-1-7-2-5h-4l-2-4 7 2 9 3v2l4 2-3-4 4-1-1-7h5v3h6v2l2-1v-3l-4-2-1-4 1-3h-2v-4h-2l1-4 3-1 4 1 2-3 9-2 1-2-1-3-7-2-2-4-3-17 1-5 3 1-1-6 6-2 3-3 3-1h7l3 2 4 14 1 9 1 6-1 3-8 2 2 4 4 1 13-1 12-2-1-5-7-2-2-2-1-9-2-9v-6l7 6 5 5 5 4-3-7-5-7-4-4-3-5-5 1-4-6-9-3-11 1-10 5-4 4h-2l-1-7-8 2-1-4h-4l-1 7h-5l1-3h-3v-2h-4v5l2 2 2 8 10 1 2 5 2 13v5h-2l1 5v3h-2l-1 3-5-1-2-5h-7v2h-6l-1-2v-6l-3 1-1-7 2-1 5 1 2-4h-2v-2l-4-1 2-4-5-5-3-1-3-8v-11l1-6-3-5-7-3 1-2 5-2h3v-5l-2-3-8-1-7 2v3l9 2-1 3-10 2-2-4v-2l-6-5 1-3 6-4 3-3 4-2 1-2h-2v-2l-6-2h-3l-1-7 2-6 6-1 3 2v2h20l10-4 9-5 3 2 5 1h10l5-3h2l1-6-7-2h-5l-3-5-4-25-2-3v-3l-4-2-8-3h-14l-10 3-7 4-1 2-3 1-3 6-8 2-2 3 2 8-2 1h-7l-2-3 1-5 5-2-1-5-4-4-4-2v-12l-2-9-4-3-8-1-3-2 1-7 12-5h2v-2l5-4 2-8 1-11 8 1 12-3h8l5-4-1-5-2-3-5-3z" fill="#DDD8D2"/>
<path transform="translate(1170,208)" d="m0 0h17l13 2v590h-119l2-8-4-14-3-5v-14l-8-15-3-9-4-5-4-10-3-11-4-7-6-14-8-13-2-5-4-1-7 3 1 11 3 17 3 6v2l6 1 1 3-3 4h-16l-3-2 1-5v-7l-7-29-6-4 1-4 3-3-1-15 4-8v-5l-4-4-6-9v-3h-2l-7-10-4-2-1-6-18-1-10-4-8-6-6-12-1-3v-11l3-9-1-8-7-8v-2l-3-1-4-6v-3l-4-2-5-5v-3h-2v-3h-2l-1-3-2-1-1-4-2-1v-2l-3-1-6-7-1-5v-2l-1-4-3-1-3-6-11 7-8 2-11-1-9-4v-2l-3-1 1-5 4-1 5 6 4 2 9 1 9-4 1-2h2l2-5 1-3h-2l-1-5v-2l-2-3-9-1v-3l-4-1h4v-2l2-1-2-4 1-5-9-1 4-2 5-1v-4h-2l-1-5-2-4 1-3h-2l-2-6-1-2-1-10-3-9-9-2-1-1-3-16-2-5-4-21-3-19-3-15-2-19 5-3 5-12 2-6 14-5h2v2l5-1 7 2h2v4l5 2 17 3 2 2 1 16 1 3 6-2 7-3 14-3 10-2 34-4 10-2 26-3 3-1 14-1 18-2 45-6 9-2 16-5 10-5 7-7 3-4h2l2-5 7-9 2-5 3-3 5-8 3-5z" fill="#213416"/>
<path transform="translate(802,376)" d="m0 0h13l17 3 3 1v-4h5v3l3-1v4h2v5l-1 1-9 1 7 2 1 4-1 2 2 4 6-1-2 4-1 3-5-1 3 5v2l-2 1 1 3-4-1-1 1 7 1v2l-3 2 3 3-2 3v-4h-4l-1 2 3-1 1 2-1 2h2v2l4 1-2 4h-2v-2h-2l1 4h-3l-1 2-1 1 4 1-2 5 4 1-4 2-1 5 3 1-4 2h-3v2l8 1-3 4v2h2v3l4 1-1 5 4 1 1 4h-7l-3 1 1 5h6l3-1 4 2v2h-4v3h-2v2l5-2 3 2v9h5l1 9h-2v-2h-6l4 4 2 4-1 5 5-2v8l-3 4h-2v8l3 1h3l1 7-3 3-1 5-4 3 2 5 8 4 2 6 1 12v8l3 5 2 10v11l-5 3 1 7 12 3v9l1 5-5 3h-13l-3 4h-2l-2 4-4 12-8 8-1 5 1 4 8 2 2 7 2 14v16l4 6v2h-6l-2 7-1 1-1 9-4 4 1 10-2 5v5l-7 6h-8l-5-12-10 1-11-5-5-4-3-9 3-4 8-2 5 1v4h8l5-3 5-7 13-4 4-5-1-6-1-2-8-3-3-7-5-22-3-5-3-3-3-1v-2l-11-2-7 1-9 3-2 1h-6l-2-2-10 2-8 3-4 3-2 9h-4l-9-8-9-4h-14l-10 1-4-4v-2l-4-1-6 3-5 5v9l1 7-4 7h-3l-3-6-6-5-4-10v-7l-3-11-3-2-3-12-4-4 1-6 2-3v-6l-4-2v-2l9-4 4-2 3-5 3-2 8 6h12l7-2 7-1 3-4-1-5-2-2-6-2-1-2-1-11-2-8v-7l7-4 4-2h9v2h2l3 17 1 13-5 4-1 4 4 4h12l16-3 2-1v-5l-4-3-5-2-2-3-2-10-3-18-2-4-5-4-7-5h-7l-13 4-5 3h-3l-2-6-2-13-2-8-8-1-13 6-1 1v5l3 3 6 1 1 2v9l-5 2 5 2 2 2 2 13 1 2 2 16v5l-5 2-5 1-9-3h-12l-4-9 1-4 4-1 2 3h3v-6l-6-1-1-8 8-4 1-2h2l-3-6-3-2h-10l-4-3-4-10-1-1h-8l-1 9-5 1-4-7v-4l-11 2v6l-1 1h-6l-5-5-8-4-4-5-2-1-1-5 3-5 9-3h3l2-4 5-1 2-13-2-3-2-7-2-4-1-5-5 2-1 1h-8l-5-5v-2h2v-2l3-2 3-7v-15l4-3h2v-6l-4-4h-7l-6 3-7-1-3-8-6-4 1-5-5-1v2l-5-1-3-1v2l7 6h3l1 11-4 1-3-2-1-3h-5l-1 3 4 1v3l-5 1v2l-11-2-8 1-7-3-2-6 3-2 5 2v2l6 2h8l-2-5-2-3 2-5-5-3h-3v-2h-2v-2l-5-1-1-1v-7l4-1 5 2 3-4-4 1-5-5-9-4v-3l3-1-3-1h2v-4h4v3l3-1 1-4h18l24-4 29-4 26-6 4-1h8v-2l11-1v-2l10-1 6-1h2l8-1 3 1v-2l11-2-3-1 1-3 7 1 3-1 24-1h30l29-1 5-1h1v-2l10-1z" fill="#DDD8D2"/>
<path transform="translate(1155,361)" d="m0 0h9l10 4 5 5 5 6 3 5 7 9 6 7v249l-13 5-5 4-5-1-3-5-11 4h-3v5h8l2 3 4 24v8l-8 4-1 3-4-1-6-5-1-2-2-12-1-2h-6l-3 1-1 2-3-1-4-8-8-5-6-15v-2l-9-1-5-5-2-1v-3l5-1h15l6 4 5 4 2 3 4 1-1-5-4-8-6-7h-36l-2-6-5-1-3-6-1-3-5-2-2-6-5-2 1-8-5-2-3-3-3-2 2-6h-2l-1-23-8-13-8-6-8-3 1-2h2l-1-6-4-2-3-1-1-6 2-1-4-2-1-6-2-1-1-6v-3-2h-6v-5h-7l-1-4 8-2h-2v-2h-3l-2-9-2-1 1-4h-2v-2l-2-1v-8h-2l-2-7h-3l-5-14v-2l-2-2 1-2h-2l-3-10-4-4 1-4-3-3v-5l-4-2-2-5-4-4v-2l-3-2-4-7v-2l10-2 7-2 24-4 32-3 33-5 22-2 42-5 5-1z" fill="#979088"/>
<path transform="translate(1198,118)" d="m0 0h2v92h-8l-10-1h-12l-8 6-5 9-4 6h-2l-1 5-10 14-12 12-10 5-18 6-31 4-21 3-32 3-12 2-24 3-12 2-25 3-10 2-17 4-8 4-3-1-1-3-1-16-1-1-17-3-5-3v-4l-4 1-7-2h-3v-2l-16 6-3 10-4 8-4 2 2 19 4 20 4 25 2 10v4l-4 1v3l-3 1v-2l-9 1v4l-13-2-9-1h-11l-3 1-5 1-3-1 1 3-2 1v-2l-7 2-27 1h-31l-23 1-4 1-6-1-1 2 3-1v3l-11 1v2h-11l-1 2-5-1-2 1h-10v2l-11 1v2l-17 3-21 5-29 4-4-1-2-2-6-1-2-3h5l-1-5h2l-1-3-38 6-2-1 1-4 4-2h3l-1-16-6-32-4-30-4-13-1-3h-4l-1-4 2-2 10-4h3l-1-2 5-1v3l3-2-2-2 2-2h4l1 7-4 1-1 2 5-2 1 1 2 13v6l2 7v2l6-2 2 1v-2l4 1 26-4 16-2 24-4 13-3 27-4 18-3 2-2 10-1 2-1h9l-4-13-7-5 1-6 10-5 7-3 5-2h5l2 3 2 8 1 10v10l3-1 22-2 3-1 21-2 35-5 20-3 11-1 2-1 2-6h2v-2l11-4 32-10 9-2 20-2 5-3 16-8 13-2 22-2 29-4 12-2 9-2 17-2 3-1 14-1 20-4 12-2h6l5-2 15-3 13-4h2v-2l5-5 4-10 6-9 2-6h2l1-4 2-3h2l1-6 3-4 2-5h2l2-6 3-3h2l1-4 9-7 10-9z" fill="#81D670"/>
<path transform="translate(295,340)" d="m0 0h3l2 4 4 16 2 2 27-5 24-3 23-4 21-4 20-3 9-1 1 2 3-1 4 1v3l4 2v2l10-5 14-3h13l8 3h5l1-1 11-1v-2l5 2 2 3-1 6-10 2h-3l1 4v12l-2 6-4 7-16 8-16 4-1 1v5h14l17-3h15l8 5 3 5 2 5v10l-5 8-6 8-9 5-8 4-12 3-14 1-11-2-7-4-2-4v-9-2h-8v2l-12 1-1 3-31 4-16 4-19 4-26 4-5 2-14 3-15 3-9 3-7 2-6-1-1-1h-8l-5 2h-5l-3 2-20 3-4 1-1 2-10 2-7 2-6 2-2 1h-16l-22 1-19 3-8-1-2-3 1-4-1-4 4-3-4-3v-10l2-3-1-1v-6l2-5-1-1 1-13 2-6-6-1v-7l-2-4 2-6 13-2 25-2 2-3 6-1 2-7 7-1 2-3 17-3 24-5 1-3-3-11-2-1h-9l-1-4 27-7 14-4 16-4z" fill="#6AAE49"/>
<path transform="translate(891,442)" d="m0 0 1 2 4 2v3l4 2 5 8v3l5 2 2 2v6h-2v2l3 1 4 10v9l4 2 2 4 3 1 1 4 5 3 1 4h2l3 4v4l6 1 3 8 5 4 2 4 6 3 2 5-10 7-5 7v7l1 2 4-1h23l3 5 6 5 2 3v-4l-4-2-5-6 6 1 7 8-1 5-3 5-4 5-8 3 8-1 9-5 4-5h5l3 8 5 5v3l3 1 1 3 4 2v2l3 1 3 5 6 7 4 6 5 4 4 7-1 3 4 2 10 11 5 3 4 4v2l3-2-3-11-7-8-7-10-2-7-5-5-5-12-6-8-1-4 1-2 7-2h5l9-6 4-5 2-5v-14l-6-12-2-3 4 2 7 12 1 16-1 7h2l-1 6 5 3 6 6-2 6 6 2 1 6 5 2 4 7v2h5l2 6h36l8 9 4 8-1 4-5-1-5-5-5-4-2-1h-20v3l5 2 2 3 9 2 6 15v2l4 2 5 3 3 6v2l4-1 3-2h6l3 6 1 11 3 1v2l4 2 3 1 1-4 7-3v-8l-3-15-1-9-1-2-8-1v-5l14-5 3 3 1 3 5-1 8-5 9-2v154h-119l2-8-4-14-3-5v-14l-8-15-3-9-4-5-4-10-3-11-4-7-6-14-8-13-2-5-4-1-7 3 1 11 3 17 3 6v2l6 1 1 3-3 4h-16l-3-2 1-5v-7l-7-29-6-4 1-4 3-3-1-15 4-8v-5l-4-4-6-9v-3h-2l-7-10-4-2-1-6-18-1-10-4-8-6-6-12-1-3v-11l3-9-1-8-7-8v-2l-3-1-4-6v-3l-4-2-5-5v-3h-2v-3h-2l-1-3-2-1-1-4-2-1v-2l-3-1-6-7-1-5v-2l-1-4-3-1-3-6-11 7-8 2-11-1-9-4v-2l-3-1 1-5 4-1 5 6 4 2 9 1 9-4 1-2h2l2-5 1-3h-2l-1-5v-2l-2-3-6-1 3-2h9l-2-4z" fill="#2D2B25"/>
<path transform="translate(853,320)" d="m0 0 2 3 3 16 4 19 2 8 6 3 3-1 6 3 19 3h28l7 5 5 3 9 4 5 4 1 3 8 3 1 4 3 1 3 6v2l3 1v3l4 1 1 8 1 7 4 8 2 9 3 4 2 6 3 10 3 7 1 8 5 8v8l1 5 3 1 2 10 6 10 1 7 1 1 1 8 2 1 21 1 5 2 9 6 5 8 2 7v12l-4 8-7 6h-2l-1 2-2 1-12 1v5l5 6 4 7 3 8 1 3 4 2 3 8 7 10v2l4 2 3 5 2 10-4 1-6-7-5-3-10-11-2-1-1-5-4-6-6-5-5-8-5-5-1-3-3-3-4-2-1-3-2-1-1-3-5-5-2-4v-4h-5l-2 4-8 6-6 2h-6l1-2 8-3 5-6 2-5-1-4-5-6h-3l4 5 3 3-1 4-6-8-4-3-1-3h-23l-5 1-1-3v-7l6-8 9-7-2-4-6-3-4-6-4-3-1-7-6-1-2-5-1-3h-2l-2-4-5-3v-4l-4-1-3-5-2-1-1-9-4-10-2-1v-2h2l-2-7-5-3-4-8-5-5-2-4h-3l1 8-15 2v-3l-4-1h4v-2l2-1-2-4 1-5-9-1 6-3 10 4 4 5 2-4-3-3-2-1 1-3-2-2-2 1-1-6-3-3-1-6-2-1-4-12-2-8-2-6-6-1 1-3 2-1-1-5-4-15-6-30-1-4z" fill="#1A1E11"/>
<path transform="translate(1134,376)" d="m0 0h10l5 3 2 3-15 6-1 5 2 2 7 2 2 6 4 20 4 17 2 12-3 3-3 1v5l4-1 17-1 5-2 1-4-9-1-2-6v-7l3-3 5 1 15 12v2l-3 1v5h14v69h-2l-2 5-1 2h-2l-1 8-5 3-5 1 7 3 2 4-1 3-5 1-9-5 3-4-4-4v-2l-5-1-1-3-3-2 2-5h-2v-2h-2v-2l7-1v-1l-5-1v-2h-2l-1 3-3-17-1-4-10 3-7 3-2 5 6-1v3l1-2 5 1v8h2v5h-6v2l3 1-5 1-1-2 1-1-2-2-4 1v-3l2-2-2-1 1-3-3-1-2 5-2-1 1-2-4 1 1-4-5-2-4-1v-2l-4-1v-2l-4 1v-2l-5 1-5-4-2-4-6 5-3-2 2-5 4-3-1-1-4-1-4-4-1 2h-4l-1-3h3l-5-1 1-5-4-2 1 3h-4l-2-5 4-1-1-2h6v-2l-10-1-1 3h-2v-3l-5-1 1-2h2v-3l-4-1 1-2-5 1-1-2 1-6 1-3v-10l-4-11-7-9-7-4-6-1h-11l-2-2-5-2-1-3v-5l-4-1-3-4-1-5-3-2v-2l-6-1-1-5 7-3 18-2h12l10-2 2 1h12l7-1h14l24-1 11-1h10z" fill="#DCD7D1"/>
<path transform="translate(295,340)" d="m0 0h3l2 4 4 18-2 2-4-1-5-9-5-3-5-1h-8l-18 5-1 1v7l1 10h2l1 3 2 15 1 2 16-1v-2l6-1 3-14 1-1h10v-2h2v4h-2l1 5h2l1 3 9 2-1 3-3-1 2 5h5 3l2 1v-6h2v2h4v2l3 1 1-2h3l-1-4-2-7 1-3 11-6 9-6 2-2h5l2 3 1 5 8-6 7-4 12-3 8 3 6 5 3 5 3 11 4 27 2 5 8 1 2 4-7 3-21 4-8 2h-4l-1-4 4-1 2-5v-11l-3-20-5-10-1-3-12 1-4 3-1 5h-2l3 12 4 28 1 1 8 1-1 5-17 4-9 2-4 1-2 3h-4l-1 5h-2v2l-5 2-1 2h-2v2l-5 1-2-4h2l-1-3v-3-2h-3l-1 4-7-1-15 3-1 3-2-1h-7l-7 2h-7l-1 2-11 2-2 2h-2l-2 3-2-1h-2l-10 2-1 2h-18v-3l5-1 1 1 3-4 8-1 2-4h2v-19l-1-4-6-42-4-20-1-3-2-1h-9l-1-4 27-7 14-4 16-4z" fill="#63A240"/>
<path transform="translate(233,378)" d="m0 0 3 3 5 35 2 16 1 1v17l-5 6-9 3-2 3-2-1h-4v3l7-1h10l2-2 14-3v2l2-3 4-2 11-2 1-1 12-2 2-1h7l2 1 3-3 7-1 5 2 4 3v2l-4 1-3-2v-2l-6-1 1 2 3 1 1 4-7 1-4-2-1-2-1 3-1 2-6-1-2-2-1 5-3-1 2 6h-2v-3l-4-2 3-2-4 2v2l-3-1-1 2h-2l-1-4h-2l1 4-6 4h-6l-3 2-20 3-4 1-1 2-10 2-7 2-6 2-2 1h-16l-22 1-19 3-8-1-2-3 1-4-1-4 4-3-4-3v-10l2-3-1-1v-6l2-5-1-1 1-13 2-6-6-1v-7l-2-4 2-6 13-2 25-2 2-3 6-1 2-7 7-1 2-3 17-3z" fill="#528C2C"/>
<path transform="translate(1170,208)" d="m0 0h17l13 2v40l-2 1h-11l-10-1h-14v2h-2l-2 4-3 5-6 7-3 5-5 3-18 8-12 3-5 2-54 8-44 4-38 5-18 2-30 6-8 4-3 5-5 2-9 1-6 4-7-1-3-5v-2h-2l-3-6v-4l7-1 14-1 2-6v-21h-12l-4 1-3-3-3-1-1-2-3-1v-2h-2v2l-5-1-1-2-5 3-6 1-1-1v7l4 7 1 7 3 1-2 7 3 1 1 6 3 9-2 2-1 3-2 4-1 3-3-6-1-8-2-3-3-18-2-10-4 1-4 4-2 1 2 14v7l-2-3-2-19 5-3 5-12 2-6 14-5h2v2l5-1 7 2h2v4l5 2 17 3 2 2 1 16 1 3 6-2 7-3 14-3 10-2 34-4 10-2 26-3 3-1 14-1 18-2 45-6 9-2 16-5 10-5 7-7 3-4h2l2-5 7-9 2-5 3-3 5-8 3-5z" fill="#36591F"/>
<path transform="translate(1198,118)" d="m0 0h2v31l-5 2-1 3-8 7-5 5-8 10-6 8-4 9-3 10-3 6-9 7-5 5-4 1v2h-3l-1 3-13 7-39 5-33 5-14 2-11 2-12 1-10 2-25 4-3 1-12 1-17 3-10 2-10-1-11 3h-3v2h-8l-3 5-5-1v-3l-4-2v3h-4v-2h-5l-2-2v2h-5v-2h-5l-1 1h-11l4-2 30-10 27-3 5-3 16-8 13-2 22-2 29-4 12-2 9-2 17-2 3-1 14-1 20-4 12-2h6l5-2 15-3 13-4h2v-2l5-5 4-10 6-9 2-6h2l1-4 2-3h2l1-6 3-4 2-5h2l2-6 3-3h2l1-4 9-7 10-9z" fill="#77CA61"/>
<path transform="translate(1198,149)" d="m0 0h2v61h-8l-10-1h-12l-8 6-5 9-4 6h-2l-1 5-10 14-12 12-10 5-18 6-31 4-21 3-32 3-12 2-24 3-12 2-25 3-10 2-17 4-8 4-3-1-1-3-1-16-1-1-17-3-5-3v-4l-4 1-7-2h-3v-2l-2-1 3-1 3 1 5-1 9 5v3l9 3h8l6 2v3l10-2v-2l6-2 28-4 8-1 8-2 12-1 17-3 25-4 18-3 19-2 12-2 28-3 18-3 13-4 9-7 4-5 8-13 5-10h2l3-11 5-12 6-9 8-9 4-6 8-7z" fill="#528D2C"/>
<path transform="translate(504,342)" d="m0 0 5 2 2 3-1 6-10 2h-3l1 4v12l-2 6-4 7-16 8-16 4-1 1v5h14l17-3h15l8 5 3 5 2 5v10l-5 8-6 8-9 5-8 4-12 3-14 1-11-2-7-4-2-4v-9l4-7 4-3h2v-3l-6-1-6-4-1-2v-8l4-2v-2l6-5v-2l-9-4v-2l-4-2-3-6-2-11 2-8 5-8 6-5 6-3 14-3h13l8 3h5l1-1 11-1z" fill="#223516"/>
<path transform="translate(536,284)" d="m0 0h4l1 7-4 1-1 2 5-2 1 1 2 13v6l2 7v2l1 1 4 23 3 16 2 13v5l8 1-2-3 4 2 3 7v4l7-1v-2l-4-1-1-2-4-4 1-3 3 2v2l7 1 3 1-2-4 1-3 3 2 2-2v2h2v4l3-1 2 1-2-14-1-2h-3l-1 2 2 1h-3l-3-6h2l-4-4h-2l-1 4-3-5-1-5-3-3v-2h3v-2h-3l1-4-3-7 5-1v-4-3l2 1v-2h-4l-1 4-3-5v-2h7v-4l9-1 5 1 2 3 4 1v-4l-2-1h3v-2l5-1-2 3-2-1v2l8 1 3 1 3 15 1 11 2 6 3 23 1 3 5 1 7-1 2 3v5l-4 2-2 2h-2l-4 3-2 2h2l3 3v2h-14l-3-1 2 5-6 2-24 3-4-1-2-2-6-1-2-3h5l-1-5h2l-1-3-38 6-2-1 1-4 4-2h3l-1-16-6-32-4-30-4-13-1-3h-4l-1-4 2-2 10-4h3l-1-2 5-1v3l3-2-2-2z" fill="#74C55D"/>
<path transform="translate(295,340)" d="m0 0h3l2 4 4 18-2 2-4-1-5-9-5-3-5-1h-8l-18 5-1 1v7l1 10h2l1 3 2 15 1 2 16-1v-2l6-1 3-14 1-1h5l1 1 4 27 1 6-2 2-5-1-3-6-1-3-7-1-1 1h-8v2l-7 2-1 1v7l1 2 2 20 1 6 3 1v2l17-2 10-3 6-4 6-7 4-10 3-3 4 1v17l-2 9-1 2-20 5h-2l-1 3-2-1h-7l-7 2h-7l-1 2-11 2-2 2h-2l-2 3-2-1h-2l-10 2-1 2h-18v-3l5-1 1 1 3-4 8-1 2-4h2v-19l-1-4-6-42-4-20-1-3-2-1h-9l-1-4 27-7 14-4 16-4z" fill="#1A2011"/>
<path transform="translate(525,326)" d="m0 0 2 4 3 21 5 27 1 12-1 4-7 3-1 3 9-1 33-5-2 7v2l-4 1 4 2h4v2l2 1-5 2-16 3h-28l1 3-5 1-3-2-1-5-3-6-8-5h-15l-17 3h-14l-1-1v-5l5-3 13-3 14-7h2l2-5 2-3 1-5v-16l13-2v-6l-4-4-2-1v2l-11 2-1 1h-5l-8-3h-13l-14 3-7 3-1-5-2-1v-2l-2-1 16-4 21-3 20-4z" fill="#75C65E"/>
<path transform="translate(1153,211)" d="m0 0v3l-6 12-7 10-7 6-6 4-15 4-30 4-16 2-14 2-20 2-22 4-14 2-17 3-17 2-7 2-10 1-28 4v2l-6 3-4-1-1-3-6-1h-7l-10-4v-3l-8-4-6 1-4-1-1 2-14 5-3 10-4 8-4 2 2 19 4 20 4 25 2 13h-6l-1-4v-4l1-6v-9l-1-5v-8h-2l-4-22-1-9v-12l4-3 4-10 2-2 1-9 7-3 15-1 3-1 3 1v2h5l-1-4 3 2v2h5v2h4v-3l5 2-1 3h5l3-5 8 1v-2l10-3 6-1 8 1 16-3 11-2 12-1 21-4 15-2 2-1 17-2 18-3 16-2 25-4 19-2 14-2 13-7 1-2h3v-2l5-3 3-1 1-3z" fill="#6BB049"/>
<path transform="translate(1168,17)" d="m0 0 9 2 8 7 4 6 3 8 2 10 2 6 4 9-1 6-3 3h-14l-6-8v-2h-2l1-9-3-16-4-3h-7l-2 2v11l3 10 2 6v7l-3 4-3 1h-8l-5-4-4-9v-11l-3-13-3-2h-9l-1 5v10l4 11 1 1v7l-2 5-10 2-5-3-5-6v-13l-2-11-3-6-1-4v-10l2-2h21l3-3 3-1h9l1 1 11 1 8-4z" fill="#979088"/>
<path transform="translate(716,289)" d="m0 0h6l3 2v2l3 1 2 10v11l6-2 6-3 6-2h13l9 4 5 5 3 12 3 11 3 23 11 2 1 6-24 1-5 1h-11l1-5 4-2 2-10v-2l-2-2-3-16-2-11-9-5-5-1v2l-5 1-2 3-1 11h2l3 16 1 12 3 4 7 2v4l-14 1-8 1h-11l-6 1-1-3 3-3 4-2 1-10 1-1-2-1-4-25-3-15-3-24 11 1z" fill="#243918"/>
<path transform="translate(233,378)" d="m0 0 3 3 5 35 2 16 1 1v17l-5 6-9 3-2 3-2-1h-4v3l7-1h10l2-2 14-3v2l2-3 4-2 11-2 1-1 12-2 2-1h7l2 1 3-3 7-1 5 2 4 3v2l-4 1-3-2v-2l-6-1 1 2 3 1 1 4-7 1-4-2-1-2-1 3-1 2-6-1-2-2-1 5-3-1 2 6h-2v-3l-4-2 3-2-4 2v2l-3-1-1 2h-2l-1-4h-2l1 4-6 4h-6l-3 2-20 3-4 1-1 2-10 2-7 2-3-1-2-4h2l-3-10-2-3v-3l-1-3-3-1-3-8-2 2-9-2-1-3 9 1-1-9h2l-1-5h3l5 1-1-9 3 1 5 5 2 6h-3l5 5v-11l-3-1 3-1v-2h-2l-2-8v-5l5 2-2-5 5-5 4 1 1-4h-2l2-4 4-1 1-5 4 3 1-3h2l-1-2-8 1-1-4 1-5z" fill="#528D2D"/>
<path transform="translate(387,358)" d="m0 0 9 3 6 5 3 5 3 11 4 27 2 5 8 1 2 4-7 3-21 4-8 2h-4l-1-4 4-1 2-5v-11l-3-20-5-10-1-3-12 1-4 3-1 5h-2l3 12 4 28 1 1 8 1-1 5-17 4-18 4h-4v-5l7-4v-15l-3-20-1-2v-6h-2v-2l-5-1v-7l9-5 9-6 2-2h5l2 3 1 5 8-6 7-4z" fill="#1A2711"/>
<path transform="translate(821,437)" d="m0 0 5 1 3 1v5l-6 4-4-1 2 2 2 7-1 9-4 6-10 5h-15l-2 1v3l17 2 11 1 10 2 5 2 5 6 1 2-1 10-8 6-6 3-10 2-18 1-12-5-3-4-1-7 6-9 1-2-4-1-4-4v-6l4-5h2l-7-8-2-2h-3l1-3 1-1-1-8 3-3 2-3h2v-2l5-3 7-2h7l9 2 4 2 1-3z" fill="#928B83"/>
<path transform="translate(368,374)" d="m0 0h12l4 6 3 7 3 20v11l-3 5-3 1v4l21-5 15-3 3-2v-2l5-1 2 2 2 7-2 2-3-2 2 5-1 3h-5l-5-2-3-1 2 6-4-1-1-5-2-1v-2h-6v3l5 2 3 2-1 3-6-2-2-1v-2h-2l-1-2-3 1v2l4 1-1 8-16 3-12 3-28 5-16 3-9 3-14 2-21 6-4 1-6-2-7-1-1-6h5l-1 5h2l1-3 1 2h2l-1-3 5-1-1 2 2 2v3h2l-2-6 4-2-2-4 4 2v2l4-1v2h2l1-3 1-2 3 1 1 1h4 3v-3l-4-1-1-3 8 1-1 3h4l3 1-5-5-4-1v-2l10-1 3 2 1-4h3l2 4-1 4h-2l2 3h5v-2l4-4h4l-1-3h2l2-5h4l2-3 6-2 21-4 3-1 1-4h-8l-2-2-4-28-2-12h2v-5z" fill="#6BB04A"/>
<path transform="translate(424,342)" d="m0 0h6l1 2 3-1 4 1v3l4 2 1 3-4 4-4 8-1 8 3 12 5 5v2l9 3v4l-4 4h-2v2l-3 2v10l4 2 8 3v3l-6 4-1 3-3 1h-8v2l-12 1-1 3-15 2h-8v-7l-3-1v-2h2l1-4 1 5h2v2l8 2 1-2-5-2-3-2v-3l4-1 2 1v2l3 1 1 5 1-1-1-5 4 2 1-3v3l9 2-1-8h4l-2-7-3-1-12-1-2-2-4-24-3-14-1-6 2-1-3-4v-2l-2-1-3-4 1-2 2 1v2h2l-2-4h2l2-2 4 5 3 2h-2l3 6 3 1v-3l-4-1 4-1 1 1 1-2h-4v-2h2v-2h-2v-2l-1-1v-3l-3 1-4-1-3 1v2l-3-1-1-2-6 1-7-1 4-2 31-5z" fill="#75C65E"/>
<path transform="translate(1107,533)" d="m0 0 10 1v2l3-1 6 4 5 5 3 5 2 6v10l-4 12-11 7-8 1-15-4 6 21 9 3-1 2-17 3h-9l-1-4 7-3-1-9-8-44-2-5h-7l-2-1v-3l10-4h2v-2l4 1 2 6 5-1v-2z" fill="#2F2D26"/>
<path transform="translate(536,284)" d="m0 0h4l1 7-4 1-1 2 5-2 1 1 2 13v6l2 7v2l1 1 4 23 3 16 4 23 2 6h8l1 4-8 2-32 5-2-1 1-4 4-2h3l-1-16-6-32-4-30-4-13-1-3h-4l-1-4 2-2 10-4h3l-1-2 5-1v3l3-2-2-2z" fill="#213416"/>
<path transform="translate(631,60)" d="m0 0h13l12 4 7 9 4 10v13l-3 9-8 7-6 2-8 1h-10l-9-5-5-5-6-9-1-13 3-10 6-8 5-3z" fill="#979088"/>
<path transform="translate(1059,27)" d="m0 0h9l7 3 3 2v2l4 2 6 8 2 7v14l-4 10-7 5-13 3-10-1-10-5-7-8-4-10-1-13 4-10 6-5 4-1h8z" fill="#979088"/>
<path transform="translate(816,46)" d="m0 0h6l10 4 2 4 4 2 4 6 2 7v14l-5 10-5 4-10 3h-13l-9-4-5-4v-2h-2l-5-9-2-9 1-10 3-6 5-5 5-3z" fill="#979088"/>
<path transform="translate(679,175)" d="m0 0h9l12 6 9 12 2 10-2 11-5 8-9 6-3 1h-16l-12-6-6-8-3-7v-16l4-8h2l2-4 9-4z" fill="#948E86"/>
<path transform="translate(669,450)" d="m0 0 5 2 2 4 5 26 4 14 8 3 1 5-2 2-5 1h-16l-2-2-5 1-4 3-8 2-1 1h-17l-2-5-4-2-3-5-4-3 1-4 1-2-2-11-1-9-1-5h-9l-3-3 2-7 4 1-1-4 1-2h5l4 4h8l4 5 1 9 1 1 3 21 3 6 2 1h7l8-3 6-4 1-3-2-10-1-11-2-6h-10l-1 3-3 1-2-1 1-5 3-2 2-4 11-2z" fill="#979088"/>
<path transform="translate(1032,421)" d="m0 0 9 1 1 2h5l-1 3 5 1v2h-3l2 4v3l4 1 3 11 3 3-1 5-3 6-2 3-4 2-12 3-9-2-5-2 2 13 2 8 9 2 1 3-10 2-6 1h-11l-1-4 8-2 1-2h-2l-7-37-4-21-9 1v-4l11-4 5-1 2 7 5-2 8-5z" fill="#2C2A24"/>
<path transform="translate(1096,412)" d="m0 0h8l10 2 7 5 7 11 2 6v13l-3 8-6 5-11 4h-10l-14-7-7-11-2-3-1-5v-10l4-9 5-5z" fill="#918B83"/>
<path transform="translate(865,273)" d="m0 0 2 1v2l5 1v-2h2v2l4 1v2l4 1v2l6-1h10l2 1 1 21-2 6-4 1-11 1-5 1-2-1 3 7v3h2l3 5v2l5 1-1 4-2 4-3 3v8l-5 11-2 1-4 1v2h-3l-2 1h-4v-6-3l-2-1 1-3h2v2h2l-3-7-1-8 1-5h-2l-1-4 3-4 1-7-3-9 1-3-4-1 2-7-2-1-2-6-2-5-2-3v-8l4 1 2-2v2l3-2h3z" fill="#354425"/>
<path transform="translate(1029,148)" d="m0 0 5 1 3 3v7l-2 9-4 16-3 13-4 4-7-1-5-6-6-9v-2l-5 1-3 14-4 6h-7l-5-5-8-12-4-8-7-10-1-3h-2l-3-7 1-4 3-2 10-1 7 6 1 10 8 12v2h5l1-7v-8l-4-6v-7l1-3 2-1h12l6 8 1 7 7 12v2l4-2 2-11v-12l1-4z" fill="#979088"/>
<path transform="translate(967,384)" d="m0 0h5l-4 2h-3l5 9 3 2 1 4 3 2 3 6 2 1 2 6 2 3-2 3 3 1 2 3 2 10h2l3 9 3 8v3l3-1 2 5v3h2l1 8 1 3h2l1 3v2l2 4v5l4 1 2-1-1 3-2 1h-6l2 3h9l-2 2 1 3 4 1 2 3-1 4 1 4 2 7 5 2-3 1 2 5 6 4 2 4-3 3 3 2 1-2v3l4 1 5 5-6-2-2-2-4-1-21-1-3-2-1-8-2-4-1-5-5-9-2-10-2-1-2-5v-8l-5-9-2-9-7-21-4-6-2-9-4-10 1-8-2-1-6-12-2-2-1-8-4-7z" fill="#2E2C26"/>
<path transform="translate(723,445)" d="m0 0h14l10 5 5 7 2 7 1 2-1 3 2 5 2 11 2 3 9 1 2 1-1 5-2 2-9 1-9-3-2-2-5 1-5 4-13 4-10-1-9-5-2-4v-11l5-5 5-4 18-6 7-1-1-7-3-4-9-1-5 1-1 2h-2l-3 10-4 3-5 1-3-6 2-9 7-6z" fill="#928B83"/>
<path transform="translate(1024,541)" d="m0 0h14l5 2 9 6 5 8 2 7v12l-4 8-7 6h-2l-1 2-2 1-17-1-10-6v-2h-2l-6-11-1-5v-9l4-11h2v-2l8-4z" fill="#12130D"/>
<path transform="translate(661,315)" d="m0 0h15l3 2v3h2l2 8v5h-6l-1-4-5-5-4-2h-6l-5 3v6l5 5 6 3 5 1 12 6 6 9 1 4v10l-1 4h-2v2l-5 3h-2v2l-18 4h-15l-5-3-2-2-2-6v-11h5l1 6 5 2 5 5 2 1h7l6-1v-2h2l-3-10-7-4-10-3-10-7-4-5-1-7v-8l4-7 3-3z" fill="#233517"/>
<path transform="translate(797,560)" d="m0 0 11 3 9 6 3 5 1 6-1 4-8 2-14 1-12 2 3 9 3 5 9 3 7-2 5-4 4-4 7 1v7l-4 6-6 5-6 3-8 1-10-1-9-4-5-4v-2l-4-2-5-9-1-11 2-9 6-9 7-5 6-2z" fill="#958E86"/>
<path transform="translate(1198,118)" d="m0 0h2v15l-14 14h-2v2l-3 3h-2l-2 4-4 6-12 17-7 18-5 9h-2v2l-8 6-10 4-19 3-18 2-26 4-34 4-16 2-10 2-19 2-3 1-16 2-20 1-16 5-8 5-4-1 5-3 16-8 13-2 22-2 29-4 12-2 9-2 17-2 3-1 14-1 20-4 12-2h6l5-2 15-3 13-4h2v-2l5-5 4-10 6-9 2-6h2l1-4 2-3h2l1-6 3-4 2-5h2l2-6 3-3h2l1-4 9-7 10-9z" fill="#979088"/>
<path transform="translate(1124,218)" d="m0 0h5l-1 3 11-1-5 4-11 3-21 2-14 3-42 6-22 3-2 1-25 3-25 4-13 2-23 3-20 2v-2l-8 1-4 4-7 1-2 2h-3l-1-6v-2l9-2 24-2 10-6 14-4 20-1 16-2 13-2 16-2 3-1 58-7 18-3z" fill="#83D973"/>
<path transform="translate(711,53)" d="m0 0h9l7 1 6 4 5 8 5 23 1 5h2v2h2l1 7-2 2-8 1h-10l-2-2v-7l1-2v-8l-3-15-3-6-2-1h-9l-7 4-2 2v12l3 13 5 5 1 4-2 3-8 1h-11l-2-2 1-7 1-1-1-9-3-13v-6l-4-2-3-3-1-4 4-4 6-2h6l6 1 4-1z" fill="#979088"/>
<path transform="translate(918,156)" d="m0 0h13l10 4 7 9v7h-2l-2 4-26 3-2 1 1 6 3 5 3 3 7 2 6-1 8-7 6 3 1 3-4 6-8 6-5 1h-10l-9-3-8-6-7-10-2-6v-10l3-9 5-6 8-4z" fill="#979088"/>
<path transform="translate(1072,635)" d="m0 0h27l-1 3-7 2v7l3 14 2 4h12l6-3 3-7 2 3 3 12 1 7-3 1-4-6-2-1h-11l-4 2v7l5 16 4 3h17l11-3 5-4 4-7 2-3h2v9l-2 10-11 3-21 4-7 3h-9l-11-1-2-1v-6l1-2v-8l-1-4-3-1-1-2v-25l-2-13-2-6-8-2v-4z" fill="#12140D"/>
<path transform="translate(971,425)" d="m0 0 3 1 4 4 3 7 2 9 3 4 2 6 1 2v9l-5 6-8 4h-16l-4-1-2 2-6-1-6-10v-3h-2l1-4 7 1 1 2 3 1v2l10 4v2l10-1 5-4v-5l-6-4-20-5-10-5-4-5-1-4 3-7 9-5 2-1h13l6 2v-2z" fill="#12130D"/>
<path transform="translate(1150,217)" d="m0 0 1 2-10 16-8 7-6 4-15 4-30 4-16 2-14 2-20 2-22 4-14 2-17 3-17 2-7 2-10 1-28 4v2l-6 3-4-1-1-3-6-1h-7l-10-4v-3l-3-3 5 2 1 3 6 2h9l7-3 6-1 3-1 19-2 10-2 11-1 16-3 36-5 35-6 20-2 1-1 17-1 7-1 15-2 17-3 12-7 4-2 1-3h2v-2h2l2-4 5-5z" fill="#609A3D"/>
<path transform="translate(353,363)" d="m0 0h5l1 1v12l4 5v2h-2l3 12 4 28 1 1 8 1-1 5-17 4-18 4h-4v-5l7-4v-15l-3-20-1-2v-6h-2v-2l-5-1v-7l9-5 9-6z" fill="#192011"/>
<path transform="translate(233,378)" d="m0 0 3 3 5 35 2 16 1 1v17l-5 6-9 1h-3l-1-7-4-5 1-6 1-2-3 1-2-4h-3l-2-9-1 3-4-1 3-1v-2h-2l-2-8v-5l5 2-2-5 5-5 4 1 1-4h-2l2-4 4-1 1-5 4 3 1-3h2l-1-2-8 1-1-4 1-5z" fill="#5E993B"/>
<path transform="translate(554,318)" d="m0 0 4 1 7-1 7 1 2 2-1 3-7-1 3 5 1-2 5-1 2 6-5-3 3 4h-3v2l2 1-6 1v2l2 1-1 2 2 1-2 4h3v2h-3v2l3 1 3 8 1 2 1-4h2v2l4 2-1 3 3 4 1-3 5 2 1 7v8h-5v-4h-2l-2 2-3-3 2 7-4-1-7-2-3-3 2 5 3 1v2l3 1v2l-7 1-4-11v1l-4 1-1-2h-4l-3-18-4-20-2-12v-8l5-2 2 1z" fill="#77CA62"/>
<path transform="translate(601,321)" d="m0 0h5l3 15 1 11 2 6 3 23 1 3 10 3v4l-9 2-28 4h-5l1-5 7-4v-10l-3-20-4-12v-2l-5-1v-6l14-7z" fill="#233617"/>
<path transform="translate(490,399)" d="m0 0h15l8 5 3 5 2 5v10l-5 8-6 8-9 5-8 4-12 3-14 1-11-2-7-4-2-4v-9l4-7 4-3h2l1-3 1 3 2 1-1 1h3l2 10 5 6 6 2h15l10-4 5-5v-10l-5-5-3-2-10-1-13 2-1-4h2l-1-4 7 2-2 1v2l11-3h3l-1-4-7 2v-3h-2v2l-4 1 1-2h2l-1-2-7-1-4 1v-2h-2v2h-3l-1-2-4-1 1-2h14z" fill="#2D2C25"/>
<path transform="translate(716,289)" d="m0 0h6l4 4 1 7-2 5h-2l-1 3-4-1 2 6 4 1v2h-3l-1 2 4-1 1 2h-2l1 3h-2l1 2h5v3l-3-1 1 4-1 2h2v2h2l-1-4h5l1 6h2l3 16 1 12 3 4 7 2v4l-14 1-8 1h-11l-6 1-1-3 3-3 4-2 1-10 1-1-2-1-4-25-3-15-3-24 11 1z" fill="#233617"/>
<path transform="translate(318,414)" d="m0 0 4 1v17l-2 9-1 2-20 5h-2l-1 3-2-1h-7l-7 2h-7l-1 2-11 2-2 2h-2l-2 3-2-1h-2l-10 2-1 2h-18v-3l5-1 1 1 3-4 8-1 2-4h2v-14l1-11 5 1v-2l-3 1v-2h5l3 4v3h2v-5l2-2 1-5 4 2 3 5-1 3v-2h-3l1 3 3 1v2h2l1 6 3 1v2l17-2 10-3 6-4 6-7 4-10z" fill="#191F10"/>
<path transform="translate(846,289)" d="m0 0h4l4 15 2 13 2 4v7l2 1 1 5h3v10l3 8v2l-4-1-2 2-2-6-5-26v8l6 29 4 18 2 4-1 4-3 3 6 1 4 9 2 9 3 8h2l1 7 3 2 1 4 4 5v2l4 4-2 1-1 4-4-4v-2l-5-1-5-2 3-1v-4h-2l-1-5-2-4 1-3h-2l-2-6-1-2-1-10-3-9-9-2-1-1-3-16-2-5-4-21-3-19-1-3-2-24-1-6 5-3z" fill="#223616"/>
<path transform="translate(1191,288)" d="m0 0h9v73l-4-2-6-8-5-4-7-12-4-8-2-12v-13l2-10 7-3z" fill="#182610"/>
<path transform="translate(527,58)" d="m0 0 7 1 2 2 2 8 5 1 7 1 2 1v7l-6 3-5 2 1 11 2 11 2 7 1 1 15-1 3 3-3 6-10 5h-11l-6-3-5-6-4-17-2-12-2-3-6-3-2-3 4-6 4-2 3-11z" fill="#948D85"/>
<path transform="translate(738,146)" d="m0 0h14l5 4 1 5-2 3-7 1-5-2-5 1-1 3 1 7 7 4 1 4-1 3-3 2v9l3 11 2 13 7 3v5l-4 2-21 1-3-2 1-4 6-2-3-22-3-13-8-3v-6l5-3 1-13 4-6 5-4z" fill="#968F87"/>
<path transform="translate(1113,307)" d="m0 0h6l2 2 3 11-2 9-6 2-13-1-4 2-7-1-6-2h-8l-14-3h-37l-8 2h-15l-4-2 9-4 20-2h11l9-2 20-3 16-2 5-1 16-3z" fill="#182610"/>
<path transform="translate(958,11)" d="m0 0 8 1 2 1v6l-4 5-7 2-2 1 1 5 3 9 1 7-1 2v7l2 10 3 9 2 3-1 7-1 3-4 1h-8v-2h-2l-3-5v-12l-2-10-2-9-3-5-2-10 1-7 3-9 6-5z" fill="#979088"/>
<path transform="translate(831,163)" d="m0 0h7l4 4v5l-4 8-5 20-5 16-4 2-5-1-5-5-6-11-7-11-5-7-3-5-5-5 2-5 6-2h11l3 3v9l5 10 6 10 3 1 2-13 2-10-4-5v-5z" fill="#979088"/>
<path transform="translate(1031,424)" d="m0 0h6l9 6 5 9 1 6v10l-4 7-7 4h-9l-8-4-4-5-4-18v-6l11-8z" fill="#979088"/>
<path transform="translate(584,169)" d="m0 0 4 1 2 10v5l14-1 3 3-1 4-4 2-8 1 1 14 5 19 3 2 5-1 6-3 4 1-1 6-4 2v2l-7 2h-10l-7-3-3-4-5-28-2-7h-7l-2-2v-5l6-3 1-2h2l2-12z" fill="#968F87"/>
<path transform="translate(1008,31)" d="m0 0h8l4 4v7l-3 3-11 2-3 3v9l1 1 2 10 2 3v9l-2 4-4 1h-7l-6-7-1-5v-12l-3-12-3-3v-8l2-6h9l11-1z" fill="#979088"/>
<path transform="translate(1105,539)" d="m0 0h7l4 1v2l4 2 4 5 3 8v12l-3 6h-2l-1 3-4 2h-11l-9-6-2-4-4-21 5-5 6-4z" fill="#979088"/>
<path transform="translate(1193,652)" d="m0 0h7v73l-4-1-4-3v-2l-9-3-4-6-3-3v-4l18-4 1-5-6-1-3-4-6-20v-7l5-6z" fill="#979088"/>
<path transform="translate(884,41)" d="m0 0h7l4 3-1 8-6 2-8 2-2 3v10l3 12 3 3v6l-3 5-13 1-4-6v-5l1-1-1-9-3-15-3-4-1-7 2-5 2-1h18z" fill="#979088"/>
<path transform="translate(1,708)" d="m0 0 5 2v2l-2 1h4l1 7-3 1 3 1 2 6 1-5 3 3 2 3 1 2-3 2 2 4h-3l-4-4 1 3-2 1-2-4-3-2v10h2v3l6 1 3 10h-3l-2-1 3 4v2h2v-3h4l2 6 1 4 2-1-1-5-4-10 1-3 5 9v4h2v4l5 2v2l-3-1-2 2h-2v3h2v2l-4-1-2-8-5-2h-3v-2l-2 1v2l-5-2h-2v2l4 1 4 3-1 2h5l2 7-2 4-2-2-2-6 1-2h-3l1 6v22h-11v-91z" fill="#36332D"/>
<path transform="translate(525,326)" d="m0 0 2 4 3 21 2 12-5 1-4 1v2l-2-1-1-8 2-1-3-2 2-5 1-3-2-1-1-3h2l-1-3 3-4h-5l-1-4 1-1-4-1-3 1 3 3 3 6h-2v-2h-4l-4 1 1 3-2 1-2-1v2l-11 2-1 1h-5l-8-3h-13l-14 3-7 3-1-5-2-1v-2l-2-1 16-4 21-3 20-4z" fill="#75C65E"/>
<path transform="translate(295,340)" d="m0 0h3l2 4 4 18-2 2-4-1-5-9-5-3-5-1h-8l-18 5-1 1v7l1 10h2l1 3 1 15-2-2-1-7v-8l-15 2v-2l-5 3 1 12v14h-1l-3-22-1-6-3-11-2-1h-9l-1-4 27-7 14-4 16-4z" fill="#2D2D25"/>
<path transform="translate(1027,545)" d="m0 0h8l8 4 4 5 3 8 1 9-2 9-2 4-7 3h-8v-2l-5-1-5-10-3-10v-9l4-7h2v-2z" fill="#2D2B25"/>
<path transform="translate(282,398)" d="m0 0 5 1 5 5 2 5 9 1-1 5-5 1 4 1 4 6v2l-5-2v-5h-2l-1 3-2-2-2-6-1 5h-2v-3h-3l-2-4v5l1 5 3-1-1 3 1 1v3l-7 1-2-1v2l5 2 5 5 5 2-1 2-5 2-8 1h-9l-4-5-1-4-1-13-1-8-1-1v-7l4-3h5v-2l8-1z" fill="#5D9839"/>
<path transform="translate(485,416)" d="m0 0 10 1 8 6 1 2v10l-8 7-8 3h-15l-7-3-5-6-1-2v-8l5-5 10-3z" fill="#989189"/>
<path transform="translate(341,231)" d="m0 0h7l7 3 6 5 4 9v12l-4 10-4 5-10 5-10 1-9-2-1 1 1 10 2 10 1 2 9 1-1 2-21 5h-3v-2l6-3v-10l-2-12-2-17-3-18-2-3-6-1 5-4 5-3 3 1 1 4 4 2-2 3v9l3 14 5 5 4 2h9l8-4 5-8 1-3v-10l-4-10-7-6-5-1-9 3-5 2 5-5 5-3z" fill="#2D2B25"/>
<path transform="translate(368,374)" d="m0 0h12l4 6 3 7 2 14v7l-3-1-1 7v2 3l-3-1-1 3h-4v3h-2l-2-10h-2l2 6v4h-2l-2-4h-2l-2-12-4-25h2v-5z" fill="#69AE49"/>
<path transform="translate(661,315)" d="m0 0h15l3 2v3h2l2 8v5h-6l-1-4-5-5-4-2h-6l-5 3v6l5 5 1 3 7 7v3l-4 1-1 2h-9v2l4 1v1h-7l-10-7-4-5-1-7v-8l4-7 3-3z" fill="#273A1A"/>
<path transform="translate(580,65)" d="m0 0 6 2 3 4 2 13 2 10 3 13 3 3 3 1 1 6-7 3-16 2-5-2-1-4 5-4 1-5-3-17-3-8-6-4-1-4 2-4z" fill="#968F87"/>
<path transform="translate(331,394)" d="m0 0h2l1 7 1 1 1-4 2 2-4 4v6l5 3 2 2 3 1v1l1 2v10l-6 4h-2v5l8-1-1 3h-4l-1 5h-2v2l-5 2-1 2h-2v2l-5 1-2-4h2l-1-3v-3-2h-3l-1 4-5-2v-1h5l1-9 1-7v-13l-1-5 4-1-1-1-1-3 1-2h-2l-1 2-2-5v-1l-1-3h8l3 3h-6v2l5 1 2 5v-3l1-6h2z" fill="#66A844"/>
<path transform="translate(1097,419)" d="m0 0 7 1 6 3 7 12 1 3v12l-3 6-5 3h-9l-5-3-4-6-3-10-1-9 4-9z" fill="#DED9D3"/>
<path transform="translate(424,342)" d="m0 0h6l1 2 3-1 4 1v3l4 2 1 3-4 4-4 8-4 1 1-2-1-2h-4-1l-1 1 1 4 6 4-1 2-3-2h-3l-1 2-5-2-4-1 4 3 7 1 2 5-5 1-1 2v-2h-2l-3-3-13-5v-2l2-1-3-4v-2l-2-1-3-4 1-2 2 1v2h2l-2-4h2l2-2 4 5 3 2h-2l3 6 3 1v-3l-4-1 4-1 1 1 1-2h-4v-2h2v-2h-2v-2l-1-1v-3l-3 1-4-1-3 1v2l-3-1-1-2-6 1-7-1 4-2 31-5z" fill="#70BC54"/>
<path transform="translate(302,446)" d="m0 0 8 1 5 4v2l-4 1-3-2v-2l-6-1 1 2 3 1 1 4-7 1-4-2-1-2-1 3-1 2-6-1-2-2-1 5-3-1 2 6h-2v-3l-4-2 3-2-4 2v2l-3-1-1 2h-2l-1-4h-2l1 4-6 4h-6l-3 2-20 3-4 1-1 2h-7l-2-1-2-5 4 2 1 1 1-2-6-2-2-1v-3l-4-1h2l-5-11 1-5h2l2 11h2l1-2 1 4h2l-1-5 3 1 1 5v3l7-1h10l2-2 14-3v2l2-3 4-2 11-2 1-1 12-2 2-1h7l2 1 3-3z" fill="#599536"/>
<path transform="translate(677,184)" d="m0 0h9l5 5 5 9 1 12-3 8-2 2-6 2-7-1-5-4-4-7-1-3v-16l5-6z" fill="#DED9D3"/>
<path transform="translate(865,161)" d="m0 0h5l5 6 5 25 2 9 5 5 1 3-1 4-9 2h-13l-2-2 1-6 3-2v-10l-4-18-7-6v-6z" fill="#979088"/>
<path transform="translate(554,318)" d="m0 0 4 1 7-1 7 1 2 2-1 3-7-1 3 5 1-2 5-1 2 6-5-3 3 4h-3v2l2 1-6 1v2l2 1-1 2 2 1-2 4h3v2h-3v2l3 1 2 6-5 1-2-3v2h-2v-3h-2v2l-3 1 1 3-4-1-1-5h2v-2h-3v-2l-4-2-3-13-1-6v-8l5-2 2 1z" fill="#80D76F"/>
<path transform="translate(968,545)" d="m0 0 9 2 8 5 5 6 1 8-4 1-35 1-5 1-1-3v-7l6-8 7-5z" fill="#12130D"/>
<path transform="translate(536,284)" d="m0 0h4l1 7-4 1-1 2 5-2 1 1 2 13v6l2 7v3l-13 3h-7l-1-4-5-18-1-3h-4l-1-4 2-2 10-4h3l-1-2 5-1v3l3-2-2-2z" fill="#3C3933"/>
<path transform="translate(490,399)" d="m0 0h15l8 5 3 5 2 5v10l-5-1-1-1h-12l-5-4-10-1-13 2-1-4h2l-1-4 7 2-2 1v2l11-3h3l-1-4-7 2v-3h-2v2l-4 1 1-2h2l-1-2-7-1-4 1v-2h-2v2h-3l-1-2-4-1 1-2h14z" fill="#223516"/>
<path transform="translate(632,70)" d="m0 0h10l6 5 4 8 1 5-1 10-2 4h-2v2l-4 2-8-1-5-5-4-8-1-4v-9l3-6z" fill="#DED9D3"/>
<path transform="translate(275,349)" d="m0 0h8l6 2 6 4 3 6v2l4 1-14 4-16 3-8 2h-7l-2-10v-7l5-3z" fill="#979088"/>
<path transform="translate(443,353)" d="m0 0 3 3 1 2-2-5h5l4 2v2h-3l3 1 3 20 3 5 1 6-2 1v-2h-3l2 3-5 1-1 2-1-1-7-1-2-1v-2l-4-2-3-6-2-11 2-8 3-6h4z" fill="#213315"/>
<path transform="translate(717,261)" d="m0 0h5l2 3 2 8 1 10v11h-2v-2l-8-1 1 4-11-1v2h-2l-4-13-7-5 1-6 10-5 7-3z" fill="#928B83"/>
<path transform="translate(888,282)" d="m0 0h10l2 1 1 21-2 6-4 1-14 1-1-1h-9l2-9v-8l2-1 1-6h2l1-4 1 3z" fill="#213416"/>
<path transform="translate(716,289)" d="m0 0h6l4 4 1 7-2 5h-2l-1 3-4-1 2 6 4 1v2h-3l-1 2 4-1 1 2h-2l1 3h-2l1 2h5v3l-3-1 1 4-1 2h2v2h2l-1-4h5l2 6v5l-4-2v-2h-2l-1 3-1-3h-2l1 4-5 1h-3v-2h3v-2l-6 1-2-7-3-15-3-24 11 1z" fill="#233618"/>
<path transform="translate(393,381)" d="m0 0 1 2 5 1 1 3v7h4l-1 4-2 10 4-1-1 5 2-1v3h-2v2l6-3 12 2 2 4-7 3-21 4-8 2h-4l-1-4 4-1 2-5v-11l-1-8v-10l5-2 2-2-4-2h2z" fill="#192610"/>
<path transform="translate(812,55)" d="m0 0 8 1 2 4h2l4 8 1 3v11l-5 8-6 1-8-4-5-7-1-3v-13l3-6z" fill="#DED9D3"/>
<path transform="translate(462,350)" d="m0 0 6 1 7 7 3 10v13l-2 3h-2v2l-2 1h-7l-6-4-3-5-2-12v-7l4-7z" fill="#74C35B"/>
<path transform="translate(431,157)" d="m0 0 4 1 2 8 2 4-3 4 1 6 3-2h5l3 7-2 3-5 1 1 2 7 3v2l-9 2 2 4 11-1 3-5h6l1 5-1 2-7 1-4 1-1 4-5 4-4 1-1-6-3-1-4-10-5-15-2-5-1-4 3-3 1-4-3-6z" fill="#DDD8D2"/>
<path transform="translate(408,218)" d="m0 0h10l9 5 4 5 3 7v13l-4 9-7 6-6 3-6 1h-9l-8-4-5-5-4-10v-11l5-10 7-6 3 1h-2v2h-2l-3 10v10l2 8 4 7 6 4h10l6-4 3-4 2-8v-9l-4-10-4-6-10-3z" fill="#2E2C26"/>
<path transform="translate(863,434)" d="m0 0h11l-1 4 5 1 1 7 1 3h-3v5l-1 1-18 1-4 1-3 5-1 4-2 1-2-4v-3l-2-1 1-4-1-3 3-7 1 2 2-6 4-2 3-3 4-1z" fill="#2F2D27"/>
<path transform="translate(422,403)" d="m0 0h9v4l4 3 4 1v6l3 6h3v-3l2 1v2h3l-2 5-1 3-3 1h-8v2l-12 1-1 3-15 2h-8v-7l-3-1v-2h2l1-4 1 5h2v2l8 2 1-2-5-2-3-2v-3l4-1 2 1v2l3 1 1 5 1-1-1-5 4 2 1-3v3l9 2-1-8h4l-2-7-6-2 6-2 3 5 2-2-4-4v-2h-7l-1 4h-2v-2h-2l-1-4 6-2z" fill="#75C65E"/>
<path transform="translate(771,342)" d="m0 0h5l5 9 2 2 1 10 11 2 1 6-24 1-5 1h-11l1-5 4-2 2-10 4-4-2-1v-2h-2v-2l4 1 2-1v2h2l-1-6z" fill="#243817"/>
<path transform="translate(364,402)" d="m0 0h1l3 21 1 1 8 1-1 5-17 4-18 4h-4v-5l7-4v-18l2 1v3l8-1h3l4-4h1z" fill="#1B2311"/>
<path transform="translate(809,697)" d="m0 0 5 3 2 7 3 19-7 5-8-1-4-2-3-12-1-13 5-4z" fill="#DED9D3"/>
<path transform="translate(528,281)" d="m0 0 2 1v2l9-3 4 1 1 10v3l3 1-3 1v3l5 2v2h-2v-2h-2l2 4 5 2v2l-6-1v2l6 2-2 2-4-2v2l2 1-1 6-3-3 1-1v-5l-2-1v-8l-2-11-5 1 1-3h4l-1-7-5 2 2 3-4 1v-3l-5 4-7 2-6 3v4h4l3 6 4 16-1 5-12 1h-2l-4-2-1-4h-2l1-5 7 1 7 3v2h3l-4-3-2-4-4-1v-2h2l1-2 4 4v2l4 1v-4l-5-1-4-4-2-1v-2l7 2v3l1-4-6-2h-4l-1-4-3-2 3-3 4 3-3-3 2-4 6-1-2-2v-3h2v2l3 1 1-2 6-1-1-1z" fill="#9A938B"/>
<path transform="translate(356,481)" d="m0 0h2l4 20 4 31 3 16 4 6-6 2-7 1 1-10-3-19-3-20-3-15-1-1-8-1 1-4 9-4z" fill="#2E2C26"/>
<path transform="translate(318,414)" d="m0 0 4 1v17l-2 9-1 2-20 5h-2l-1 3-2-1h-17l1-3 1-1-1-2 7-1 9-4 9-3 8-9 4-10z" fill="#171B0F"/>
<path transform="translate(307,409)" d="m0 0 5 1v4h3v4l-4 10-8 9-4 2-5-1-7-3-2-4-5-2v-2l9-1-3-1v-2l2-2h-2l-2-7 1-4 2 2v3h3v3l2-4h3l2 6 1-2h2l1 5h2v2h2l-4-6v-2l-5 1 1-3h5l1-3v2h2v2l2-1 2-3 1-1h-3z" fill="#65A743"/>
<path transform="translate(283,369)" d="m0 0h5v2h2v2l4 1-5 1-3 12-3 3h-4v2l-16 2-3-7-1-14 10-2h11l2 4h4l-4-4z" fill="#5E993B"/>
<path transform="translate(1055,40)" d="m0 0h10l7 8 2 11-1 6-5 5-4 1-6-3-5-7-2-5v-10z" fill="#DED9D3"/>
<path transform="translate(1198,149)" d="m0 0h2v17l-11 7-5 5-5 3-6 8-5 5h-2l-1 3-3 3h-2l3-10 5-9 11-13 4-6 8-7z" fill="#609A3D"/>
<path transform="translate(799,492)" d="m0 0h15l13 3 2 2v5l-5 4-10 3h-12l-9-3-1-6 2-5z" fill="#DED9D3"/>
<path transform="translate(1153,384)" d="m0 0h4 1l1 7 5 1 4 2 4 8 1 6 2 4 3 2-1 5-8 7-4 4h-2l-2-6-6-32z" fill="#DDD8D2"/>
<path transform="translate(387,358)" d="m0 0 8 2v3h-2v5l-2 6 3 3h-2v4l-5 1 1 2 3 2-2 3-1 5h-1l-2-10-5-8v-2l-12 1-4 3-2 3v-2l-3-1-1-5 1-7h1l1 5 8-6 7-4z" fill="#192010"/>
<path transform="translate(858,363)" d="m0 0 4 4 3 13 1 5-4 4 6 1 4 9 2 9 3 8h2l1 7 3 2 1 4 4 5v2l4 4-2 1-1 4-4-4v-2l-5-1-5-2 3-1v-4h-2l-1-5-2-4 1-3h-2l-2-6-1-2-1-10-3-9-9-2-1-1-3-17 6 1-1-5z" fill="#2D2B25"/>
<path transform="translate(200,422)" d="m0 0 3 1 5 5 2 6h-3l5 5v-10l2 4 1 5 2 1-3 2 2 5 1 7-4-2-1-10-5-2v4h3l-1 3-4-1-1-2 1-2h-2v-6l-3 6v2l3 1v2l4 2-1 4-2-3-3 1v-4h-2l2 5 3 1 1 6h2l2 10 4-1 5 5 1 4-2 2-6 1-3-1-2-4h2l-3-10-2-3v-3l-1-3-3-1-3-8-2 2-9-2-1-3 9 1-1-9h2l-1-5h3l5 1z" fill="#5E993B"/>
<path transform="translate(596,315)" d="m0 0 3 1-2 2-2-1v2l8 1-2 2-7 4-9 4-4 2v6l1 2h-2v2l3 1 2 7-4 1-4-1-1 4-4-1-3-3v-2h3v-2h-3l1-4-3-7 5-1v-4-3l2 1v-2h-4l-1 4-3-5v-2h7v-4l9-1 5 1 2 3 4 1v-4l-2-1h3v-2z" fill="#7CD169"/>
<path transform="translate(597,571)" d="m0 0 6 1 6 5 2 7 9 4 3 5 1 8 7 3v3l-7 1-1 1h-14l-5-5 1-3 6-1 3 2v3h4l-3-6-4-5v-2l-4-2-6-4-1-4h-2l-2-6z" fill="#DED9D3"/>
<path transform="translate(353,363)" d="m0 0h5l1 1v12l4 5v2h-2l1 5-4-1-1 7h-4l-2-9-7-2v-2l-2 1v2l2 1-2 4-4-3v-2l-5-1v-7l9-5 9-6z" fill="#1B2312"/>
<path transform="translate(454,399)" d="m0 0 1 4 7 1 1 3h3v-2h2v2l4-2 5 1 2 1 1-2v4l-1 1h2v-2h2v3l5-2h2l2 5-7 1-8 1 1-3-5-1-1 4 2 2-10 5-3 1v2l-9 1 4-3-3-4-3-1v-2l-3-1 1-3 5-1-1-5 5 1 1-3-3 1-3-2z" fill="#1A2811"/>
<path transform="translate(231,423)" d="m0 0 1 2 4 1v2h3v2l4 2 1 1v17l-5 6h-3l-3-6-2-1v2l-3-1-2-9v-2l-4-10 1-4 7-1z" fill="#559030"/>
<path transform="translate(477)" d="m0 0h19l5 5 1 9-8 3-11 2h-7l-4-3v-6l5-6z" fill="#979088"/>
<path transform="translate(1151,357)" d="m0 0h14l9 3 4 4 7 10 2 5h2l5 5 1 4 3 2v2h2v5l-5-5-7-8-4-5-4-7-4-4v-2l-12-4-24 1-30 4-24 3-15 1-11 2h-10l4-2 14-2 26-3 7-2 29-2 12-3z" fill="#374328"/>
<path transform="translate(480,333)" d="m0 0h7l2 7h3l1 1 2-2 4 1-2 4-5-1v4h-5l-8-3h-13l-14 3-7 3-1-5-2-1v-2l-2-1 16-4 21-3z" fill="#73C25A"/>
<path transform="translate(414,495)" d="m0 0h15l6 4 3 5 4 25 3 7 2 3h-6l-8-4 2-4-1-9-4-5-3-2 4-3-2-9-4-4-2-1h-10l-8 4-3 5-2 7-4 1-1-1v-6l6-7 10-5z" fill="#2E2C26"/>
<path transform="translate(1159,528)" d="m0 0h3l1 2 1 4-1 2h2l3 12 4 21 2 4 8 1v3l-16 2h-9v-2h5l1-3v-9l-6-27 1-2-1-1-1-6z" fill="#33302A"/>
<path transform="translate(404,352)" d="m0 0 5 5 3 2h-2l3 6 3 1v-3l-4-1 4-1 1 1 1-2h-4v-2h2v-2h-2v-2l3 1 1 4 2-1 1-2 2 1 1-3 4 1 1 2 5 2 2-1-1 6-4 1 1-2-1-2h-4-1l-1 1 1 4 6 4-1 2-3-2h-3l-1 2-5-2-4-1 4 3 7 1 2 5-5 1-1 2v-2h-2l-3-3-13-5v-2l2-1-3-4v-2l-2-1-3-4 1-2 2 1v2h2l-2-4h2z" fill="#75C65E"/>
<path transform="translate(215,403)" d="m0 0 5 2-1 2-5-1 2 7 8 3h2l2 5-4 3-1 5 4 10 2 2h-3l3 9 2 1v-2l4 2 1 6h-9l-1-7-4-5 1-6 1-2-3 1-2-4h-3l-2-9-1 3-4-1 3-1v-2h-2l-2-8v-5l5 2-2-5z" fill="#5D973A"/>
<path transform="translate(661,315)" d="m0 0h15l3 2v3h2l2 8v5h-6l-1-4-5-5-4-2h-6l-5 3-1 6-7-2-1 4-1-5-2-1-5 4-2-2 4-7 3-3z" fill="#29401A"/>
<path transform="translate(795,445)" d="m0 0h6l6 4 3 5 1 6-2 5h-2v3l-3 2-7-1-5-4-3-6 1-9 2-3h2z" fill="#DED9D3"/>
<path transform="translate(417)" d="m0 0h18l2 5v7l-5 4-2 7-5-2-14-7 2-5z" fill="#DED9D3"/>
<path transform="translate(0,764)" d="m0 0 7 1 5 4-1 2h5l2 7-2 4-2-2-2-6 1-2h-3l1 6v22h-11z" fill="#393630"/>
<path transform="translate(953,431)" d="m0 0h7l9 3 7 7h3l2-4 2 9 3 4v5l-8-5-21-5-6-3-3-3 1-5z" fill="#1A1E11"/>
<path transform="translate(766,739)" d="m0 0 3 1 1 4 5 2 1 1 13 2 1 3 2 1-8 5h-6l-3-2h-9l-5 4-4-1-4-3v-3l7-5 4-8z" fill="#DED9D3"/>
<path transform="translate(247,439)" d="m0 0 4 1v2l-1 1v3l1 4 2-2h4v-2l3 1-2 1 2 5 2-1-1-2 6-1v2h5l-4 2h-3v2l-4 1-2 2h-2l-2 3-2-1h-2l-10 2-1 2h-18v-3l5-1 1 1 3-4 8-1 2-4h2l2-11h2z" fill="#15190F"/>
<path transform="translate(897,554)" d="m0 0h8l8 4 6 5 5 10v11l-3 8-4 6-8 4-3-1 6-4 3-4 1-4v-11l-2-7-5-8-7-5-10 1-5 1 3-4z" fill="#2E2C26"/>
<path transform="translate(1059,779)" d="m0 0 7 1 3 6 2 14h-16l-1-5-4-2-2-3 1-7z" fill="#2E2C26"/>
<path transform="translate(573,393)" d="m0 0 8 4-1 3 5 4-1-4 4 1 7 4v-3l-7-2-4-4 6 1v-2l5 2 6 3 1 2-1 2h4v2l-29 4-4-1-2-2-6-1-2-3h5l-1-5h2v-3z" fill="#82D371"/>
<path transform="translate(601,321)" d="m0 0h5l2 9v5l-3-1-1 1 1 3-4 1h-5l-1 3-5-2-3 1-1 2-1-4-5-1v-6l14-7z" fill="#273A1A"/>
<path transform="translate(331,394)" d="m0 0h2l1 7 1 1 1-4 2 2-4 4v6l5 3 2 2 3 1v1l1 3-1 6-3-3v3l-4-1-3-5 5 2-1-3h-6l-4-7 2 6-4-1 5 11v2l-4 1-3-4 2-4-1-1v-3l-2-1 1-3h2v-2h-2l-1-1-1 3-2-3 1-4h3l-1-1-1-3 1-2h-2l-1 2-2-5v-1l-1-3h8l3 3h-6v2l5 1 2 5v-3l1-6h2z" fill="#6CB44C"/>
<path transform="translate(399,348)" d="m0 0 2 4 2 1v-4l10 1v3l3-1v2h-2v2h2v2h-2v2h4l-1 4-1-2h-3l3 1v3l-4-1-2-3-1-4-4-5-2 2v3h-2v-2l-2 1v2l4 2 4 7-1 2h-3l-4-6-4-3-15-4-4-3v-3l9-2 14 1z" fill="#6DB64F"/>
<path transform="translate(838,313)" d="m0 0h1l3 17v5h2l2 13v9l-2 9h2l-1 5h6l-4 2v3l-3 1v-2h-3v-2h3v-2h-5l-1-4 1-3-1-4 1-2-4-1 2-4 1-9-2-11-2-4 3-1z" fill="#76C960"/>
<path transform="translate(639,362)" d="m0 0h5l1 6 5 2 5 5 5 2h7l1 2 3-2 2 2 2-3h3l1 3-1 2-15 3h-15l-5-3-2-2-2-6z" fill="#273E19"/>
<path transform="translate(602,616)" d="m0 0 5 1 3 3 7-1 6 4 1 7 5 2 6 4 5 1-1 4-5 4-5-1-5-4-4-8-6-6-12-2-4-4v-3z" fill="#DED9D3"/>
<path transform="translate(301,448)" d="m0 0 8 1-1 3h4l5 1 3 2-1 3-14 2-21 6-4 1-6-2-7-1-1-6h5l-1 5h2l1-3 1 2h2l-1-3 5-1-1 2 2 2v3h2l-2-6 4-2-2-4 4 2v2l4-1v2h2l1-3 1-2 3 1 1 1h4 3v-3l-4-1z" fill="#6CB34C"/>
<path transform="translate(738,473)" d="m0 0h4l2 6v5l-9 6-5 2-8-1-4-5 1-4 9-6 4-2z" fill="#DED9D3"/>
<path transform="translate(462,208)" d="m0 0h2l4 16 4 23 4 4 6 1v1l-24 4v-2l5-2 2-3-1-8-2-12-2-14-1-1-8-1 2-2z" fill="#2E2C26"/>
<path transform="translate(491,357)" d="m0 0h2l4 6v4h-3v3h2l1-2v8l-5 8-5-1-3 1-3-5-2-8h5l-4-4 1-4 3-3h3l1 2 1-2h2z" fill="#203115"/>
<path transform="translate(504,201)" d="m0 0h2l1 7 3 1v12l4 20 1 2 8 2v1l-19 3h-5l3-2 4-1v-10l-4-26-3-3h-6l3-2z" fill="#2E2C26"/>
<path transform="translate(764,702)" d="m0 0 8 3 2 1 2 11-1 7-7 5-5-1-2-3-7-3 5-5 5-2-1-12z" fill="#DED9D3"/>
<path transform="translate(452,361)" d="m0 0h1l1 9-2 4-1 1-2 4-2-1 1 3 5 1-1 4h3l1-4 4 1 1 6-2 1v-2h-3l2 3-5 1-1 2-1-1-7-1-2-1v-2l-4-2-2-3v-5l3-1 3 1 2-5-2-3 5-1h3l-1-2-3 1v-2l-2-1 7-1z" fill="#182410"/>
<path transform="translate(735,362)" d="m0 0 4 1 4 5 7 2v4l-14 1-8 1h-11l-6 1-1-3 3-3 4-2 1-2h8l1 1 5-5 5 2v-2z" fill="#243718"/>
<path transform="translate(368,352)" d="m0 0h8l4 4 7 2-4 2-11 4-8 6-4 2-2-8h-5l-5 4-1-3 1-3h2l-2-5h3l2 2 4-1 2 1-1-4h2v3h2v-3l5 1z" fill="#69AD47"/>
<path transform="translate(661,338)" d="m0 0 9 1 14 7 3 5-4 2-2 3h-3l-1-2h-5l-2 3-2-5 1-2-2 1v6l2 5-10-4-4-2 3-1-3-1v-2l7-1 2 1 1-3h4l-3-5-2-4-3-1z" fill="#31491F"/>
<path transform="translate(547,321)" d="m0 0 7 1 2 5-2 1 3 2-3 1 5 2 1-2 3 2 1-2v5l4 3-1 3-6-1-1 7 2 1-4 1-8-5-3-16z" fill="#75C65E"/>
<path transform="translate(631,383)" d="m0 0 1 2 4 2 3 3-1 4h-4v2h7l1-1h6v1h-5v2l-17 3-15 4h-5l-2-5h10l7 1v-2l-3-1v-2h-2l1-3 4-2 1-3v2l3-1 2-2h4z" fill="#84CE73"/>
<path transform="translate(857,268)" d="m0 0h7l-3 2-11 4-3 10-4 8-4 2 2 19 4 20 4 25 2 13h-6l-1-4v-4l1-6v-9l-1-5v-8h-2l-4-22-1-9v-12l4-3 4-10 2-2 1-7z" fill="#5D9A39"/>
<path transform="translate(473,485)" d="m0 0h3l2 6 2 1-1 3v9l4 20 3 5v2l-3 1h-7v-13l-5-25-1-2-8-1 4-2z" fill="#2E2C26"/>
<path transform="translate(1050,437)" d="m0 0 4 1 3 11 3 3-1 5-3 6-2 3-4 2-12 3-9-2-6-3v-5l9 4h9l7-4 3-6v-10z" fill="#302E28"/>
<path transform="translate(209,447)" d="m0 0h2l2 11h2l1-2 1 4h2l-1-5 3 1 1 5v3l7-1h9v2l3 1v2l-4 3-8 2-1 2h-7l-2-1-2-5 4 2 1 1 1-2-6-2-2-1v-3l-4-1h2l-5-11z" fill="#528C2D"/>
<path transform="translate(501,479)" d="m0 0h7l8 5 3 9 4 23 3 6v2l-9 1v-10l-2-13-3-12-4-5-5-2-11 1 3-3z" fill="#2E2C26"/>
<path transform="translate(266,403)" d="m0 0h7v4l3 3-2 1-5 1-1 1 9-1h3l3 6h-5v8l-3-3 1-3h-2l-1-2 1 8 4 2-4 2-5-2v2h2v3l5-1 1 4-7-2v-2h-2l-3-14v-5l-1-1v-7z" fill="#619F3E"/>
<path transform="translate(585,290)" d="m0 0h4l4 1h-2v2l3-1 4 1v3l-3 2v3l1-2 4-1 1 7-5 3-3 1-4 1-7-2-2-4 1-2h-2l1-8 8 2 4 2-7-4z" fill="#33312B"/>
<path transform="translate(969,673)" d="m0 0 6 2 5 5 4 5 3 10v7l-2 7-4 5-3 1v-7l1-5-2-15-6-10-3-4z" fill="#2E2C26"/>
<path transform="translate(212,382)" d="m0 0 1 3 2 4 3 2-2 4-4-2-6-2 2-3 1-2-6 1-3 4-2 4-5-2-1-2h6v-2l-7 2 1 5-5 2v6l-4-2v2l-10-1 2-5 6-1 2-7 7-1 2-3 17-3z" fill="#5F993C"/>
<path transform="translate(1015,463)" d="m0 0 4 4 4 5-1 4h2l-1 8-1 1 8 4 7 1 1 3-10 2-6 1h-11l-1-4 8-2 1-2h-2l-1-7v-10l-1-1z" fill="#13150E"/>
<path transform="translate(497,330)" d="m0 0h5l1 4h2l1-4h6l5 10h-2v-2h-4l-4 1 1 3-2 1-2-1v2l-11 2-3-1h2v-2h5l1-2-4-1v2l-6-1v-3l-2-2 1-4z" fill="#78CA62"/>
<path transform="translate(528,281)" d="m0 0 2 1v2l9-3 4 1 1 10v3l3 1-3 1v3l5 2v2h-2v-2h-2l2 4 5 2v2l-6-1v2l6 2-2 2-4-2v2l2 1-1 6-3-3 1-1v-5l-2-1v-8l-2-11-5 1 1-3h4l-1-7-5 2 2 3-4 1v-3l-5 4-7 2-6 3-2 2-3-2 2-4 6-1-2-2v-3h2v2l3 1 1-2 6-1-1-1z" fill="#979088"/>
<path transform="translate(1178,527)" d="m0 0 4 1 5 5 5-2 1 5-2 6-4 2-5 1 7 3 2 4-1 3-5 1-9-5 3-4-4-4v-6l5-1 2-4z" fill="#D7D2CC"/>
<path transform="translate(452,219)" d="m0 0 4 2v8l3 1 1 5-3 1h-5l1 6 5 2 2-4 1 1v7l-1 1h2v2l-9 1-4-7-2-5v-4l2-3h-3l1-5h2l-2-4 1-4z" fill="#DED9D3"/>
<path transform="translate(528,197)" d="m0 0h10l6 3 5 9v3h-2l3 5 2 8 2 10 5 5-16 3v-2l3-2 1-5-3-19-2-9-6-6-10-1z" fill="#2E2C26"/>
<path transform="translate(967,484)" d="m0 0 6 1v2l3-1 5 2 3 2v4l3 1h-3l1 5h-2l1 5h-5l-2-5-4 2-1 4-3 1 3 3 3-1-1 5-4-2-5-5 3-4v-3h-6v-4h6 2 3 2l1-2h2v-2l-9-2-1-3-3-1z" fill="#2D2B25"/>
<path transform="translate(955,570)" d="m0 0 9 1 3 3 4 5 2 7 3 1-1 4h-7l-6-3-6-7-2-5z" fill="#979088"/>
<path transform="translate(280,424)" d="m0 0 2 1-2 1zm-2 2h2v3l5 2 5 5 5 2-1 2-5 2-8 1h-9l-4-5-1-9 1 3h2v2l6 1v-3l-1 2-4-1v-3h-2v-2l7 1 2-2z" fill="#5F9B3C"/>
<path transform="translate(862,439)" d="m0 0h10l6 5 2 5-16 3-10 1-1-5 6-8z" fill="#979088"/>
<path transform="translate(582,339)" d="m0 0h3l4 11 2 9v8l-2 1v-2h-3l-1 2 2 1h-3l-3-6h2l-4-4h-2l-1 4-3-5v-4h3l-1-3 2-2 5 1 2-1-2-6-2-1v-2z" fill="#78CA62"/>
<path transform="translate(1,708)" d="m0 0 5 2v2l-2 1h4l1 7-3 1 3 1 2 6 1-5 3 3 2 3 1 2-3 2 2 4h-3l-4-4 1 3-2 1-2-4-3-2v8l-2-3v-3h-2v-24z" fill="#302E28"/>
<path transform="translate(522)" d="m0 0h31l1 4-5 4-5 2h-11l-8-5-3-3z" fill="#979088"/>
<path transform="translate(1158,792)" d="m0 0h14l9 4 1 4h-38l5-5 3-2z" fill="#12130D"/>
<path transform="translate(995,525)" d="m0 0 5 2 3-1v2h5l2 2 1 12-1 2 4 2-3 3-4-1-3-3-1-3-5-2-1-9-2-2-2 3h-2l1-4z" fill="#2D2B25"/>
<path transform="translate(406,425)" d="m0 0 4 1v2l3 1 1 5 1-1-1-5 4 2 1-3v3l15 2-1 2-9 1-1 3-15 2h-8v-7l-3-1v-2h2l1-4 1 5h2v2l8 2 1-2-5-2-3-2v-3z" fill="#77CB62"/>
<path transform="translate(592,286)" d="m0 0 6 4v2h3l2 10-2 5-7 4h-15l-2-6 1-3h-5v-2h4l1-7 6-5 7-1zm-7 4v4l7 4-4-2-8-2-1 8h2l-1 4 5 3 7 1 2-2 6-2 1-1-1-7-4 1-1 2 1-4 3-1-2-4h-3l-3 1v-2l2-1-5 1z" fill="#948D85"/>
<path transform="translate(1198,149)" d="m0 0h2v8l-6 3h-2v2l-3 1-5 5-3 4h-2l-1 4h-2v2h-2l-2 5-8 13-2 4h-2l3-10 5-9 11-13 4-6 8-7z" fill="#6BB049"/>
<path transform="translate(318,414)" d="m0 0 4 1v17l-2 9-1 2-7-1 2-1-1-6 2-4-4 1-1-1-4 5-2-1 7-8 4-10z" fill="#1C2712"/>
<path transform="translate(726,293)" d="m0 0 2 1 2 10v7l-3-1-1 4h2l2 8 5 1-1 10-6-3 1 4h-2v-2l-4 1 2-5v-2l3-1h-5v-4-3h-3l1-3 3 1-2-2-3-1-1-6h4l1-2h2l1-10z" fill="#395C21"/>
<path transform="translate(663,455)" d="m0 0h8l1 1 2 15 1 3v11l3 5 2 8 2 4h-6l-4-8-1-16-2-3-2-11-1-6-3-1z" fill="#2E2C26"/>
<path transform="translate(576,357)" d="m0 0h3v2l4 2-1 3 3 4 1-3 5 2 1 7v8h-5v-4h-2l-2 2-3-3-3-1v-4h-2v-6l1-5z" fill="#80D76F"/>
<path transform="translate(194,441)" d="m0 0 4 1 2-1v2l3 1v2l4 2-1 4-2-3-3 1v-4h-2l2 5 3 1 1 6h2l2 10 4-1 5 5 1 4-2 2-6 1-3-1-2-4h2l-3-10-2-3v-3l-1-3-3-1-3-8-2 2-9-2-1-3 9 1z" fill="#609A3D"/>
<path transform="translate(404,627)" d="m0 0 6 1 4 5 3 11 2 17 1 6-3 1-4-2v-12l-4-6v-12l-4-6z" fill="#2E2C26"/>
<path transform="translate(410,395)" d="m0 0h2v2h2l4 4 5 1-2-4 6 2 1 3h-6l2 4-4 1h-2v4h2v2h2l-1-4 7-1 4 4v2l3 1-4 3-2-5-7 2-8-1-2-2-2-10z" fill="#68AC46"/>
<path transform="translate(1169,653)" d="m0 0h5l2 5h2v11l5 20 3 8-10 1 1-3v-9l-6-27-2-3z" fill="#13140D"/>
<path transform="translate(421,517)" d="m0 0 3 1-16 8-4 6 1 7 3 3 9 1 2 1-6 3h-9l-6-3-2-4v-7l7-8 8-4z" fill="#2E2C26"/>
<path transform="translate(874,658)" d="m0 0 7 2 6 3 1 2v6l-2 2-11 1-3-1-2-5v-7z" fill="#DED9D3"/>
<path transform="translate(480,333)" d="m0 0h7l2 7h3l1 1 2-2 4 1-2 4-5-1v4h-5l-8-3-10-1 1-3 1-4z" fill="#77C860"/>
<path transform="translate(299,372)" d="m0 0h2v4h-2l1 5h2l1 3 9 2-1 3-3-1-1 2-1-1-1 2h2l-1 10-1-2h-2v-2l-2-1 1-2h-3l1 5h2v2l-4 1-4-27v-1h5z" fill="#619E3E"/>
<path transform="translate(777,770)" d="m0 0h6l4 2 2 5h3l2 3-1 5-2 2h-5l-7-3-4-9v-4z" fill="#DED9D3"/>
<path transform="translate(283,369)" d="m0 0h5v2h2v2l4 1-5 1-3 12h-2l-1-2-2-1-2-2v-4l-2-1-1 5h-4l-3-8-5-1v-1l5-1h11l2 4h4l-4-4z" fill="#64A241"/>
<path transform="translate(620,461)" d="m0 0h9l5 34 6 7 8 3v1h-7l-8-4-3-8-4-17-3-12z" fill="#2E2C26"/>
<path transform="translate(959,552)" d="m0 0h7l5 2 3 4-1 3-9 3-9 2-3-2 1-7z" fill="#2C2B24"/>
<path transform="translate(407,183)" d="m0 0 9 1 2 3v4h2l2 8 1 3-3 1-7-1-5-6 1-4-3-3v-5z" fill="#DDD8D2"/>
<path transform="translate(389,403)" d="m0 0 2 3 1 3 4 2-2 2h-2v5l4-2 3 3 9 1v2l2-1h6l1-3 3 1v-2l-2-2 5 1 1 3-7 3-21 4-8 2h-4l-1-4 4-1 2-5z" fill="#1E2C13"/>
<path transform="translate(916,417)" d="m0 0h2l-1 4-3 5h7v4l6 3-2 5h-17l-2-1 1-4 5-1-2-6-1-5 3-2h4z" fill="#2D2B25"/>
<path transform="translate(553,401)" d="m0 0 5 2v5h7l3 3-16 3h-16l-8-1 4-1 1-7 3-1 4 4h4l2-2 6 4h4l-4-5h2z" fill="#82CC71"/>
<path transform="translate(1184,423)" d="m0 0h5l1 3 4 2 6 4v12l-6-4-13-10-1-4z" fill="#DED9D3"/>
<path transform="translate(653,337)" d="m0 0 1 4v1l7 1 3 4 2-4 3 3v3l-4 1-1 2h-9v2l4 1v1h-7l-7-5 2-4h2l2-6v-3z" fill="#203315"/>
<path transform="translate(405,371)" d="m0 0 10 3 5 3v2h2l-1 3 2 6h3v3l1-3 3 1 3 6 4 5-5-2h-2l-1-2-5-3h-4l-1 3-3-7v-3l2-2-1-5-2 4v-2h-2l-2-6-3 7-2-3z" fill="#68AB46"/>
<path transform="translate(466,343)" d="m0 0h7l-4 2-2 6h-5l-4 1-2 5-2 2-5-2 3-1 2 1v-2l-8-1 2 4h-3l-2-4-1 2-3-1 7-6 6-3z" fill="#243717"/>
<path transform="translate(858,363)" d="m0 0 4 4 3 13 1 5-3 2v3h-7l-1-1-3-17 6 1-1-5z" fill="#37352E"/>
<path transform="translate(584,192)" d="m0 0 4 1 3 16 3 11 2 8 4 4 8 1-3 2h-7l-7-3-3-11v-5h2l-2-4-2-3-2-11z" fill="#2E2C26"/>
<path transform="translate(559,361)" d="m0 0 1 3 2 1v2l2 1 1 5 5 1-1-2-3-1 1-3 6 2 3 6 3 1 3 7-4-1-7-2-3-3 2 5 3 1v2l3 1v2l-7 1-4-11-5-8v-3l-2-1z" fill="#82D972"/>
<path transform="translate(872,558)" d="m0 0 4 1 1 3 4 3-2 2v7l4 21 2 2-1 6v9l-2-4-4-15-4-25-2-5-2-1z" fill="#2E2C26"/>
<path transform="translate(874,435)" d="m0 0 11 4 5 7 2 7-15 2v-3l-4-1h4v-2l2-1-2-4 1-5-9-1 4-2z" fill="#14150E"/>
<path transform="translate(857,471)" d="m0 0 5 5 5 3 9 1 9-4 1-2h2l-1 4 3 1-8 5-11 1-12-3-3-2v-2l-3-1 1-5z" fill="#2E2C26"/>
<path transform="translate(406,385)" d="m0 0 1 3h-2l1 5h3l2 10 1 10-5 3h-3v-2l1-1-4-2h3l-1-3h-2v-9l2-2-1-8z" fill="#192410"/>
<path transform="translate(296,122)" d="m0 0 6 2v14l3 18 3 6v2l-7 1-4-31-3-7v-4z" fill="#2E2C26"/>
<path transform="translate(454,399)" d="m0 0 1 4 7 1 1 3h3v-2h2v2l4-2 5 1 2 1 1-2v4l-1 1h2v-2h2v3l5-2h2l2 5-7 1-8 1 1-3-6-1-3 1-5-1 1-2-5-1 2-1v-2l-4 1v-2l-3 1-3-2z" fill="#182510"/>
<path transform="translate(496,253)" d="m0 0h3v2l3 1v2h2v2l2 1-3 2 4 4-9 1-2 7-9-4-2-1 1-4h3v-3h3v3h4v-2h2v-2h-4l1-6z" fill="#D9D4CE"/>
<path transform="translate(872,368)" d="m0 0 8 4 13 3v5l-2 1h-8l-1-1-9-2-6-2-2-6z" fill="#12140D"/>
<path transform="translate(424,342)" d="m0 0h6l-2 2 1 2-2 2-2 3-4-2-3-3h-2l1 8-4-1v-3l-3 1-4-1-3 1v2l-3-1-1-2-6 1-7-1 4-2 31-5z" fill="#74C45C"/>
<path transform="translate(450,617)" d="m0 0 5 1 3 2-1 10 3 23 2 7-5 1-1-5-1-12-4-19-3-4v-3z" fill="#2E2C26"/>
<path transform="translate(575,43)" d="m0 0 7 1 3 4-1 7-3 3h-7l-5-6 1-6z" fill="#979088"/>
<path transform="translate(481,272)" d="m0 0 7 2 9 3v2l3 2v3l4 2 3 5-2 1v-2h-3v-3l-2 1 1 5h-4v-2l-3-1-4-2-1-7-2-5h-4z" fill="#DBD5CF"/>
<path transform="translate(567,335)" d="m0 0h7v2h3l3 3v2l3 1 2 7-4 1-4-1-1 4-4-1-3-3v-2h3v-2h-3l1-4z" fill="#78CC63"/>
<path transform="translate(1067,184)" d="m0 0h9l4 5-1 7-2 2h-8l-5-6 1-6z" fill="#979088"/>
<path transform="translate(485,416)" d="m0 0 10 1 5 4v2h-18l-7 1h-12l4-4z" fill="#5F9E3B"/>
<path transform="translate(305,388)" d="m0 0 4 4 2 5 4 2-1 3 3 3v2l-4-1v2l-7-2-2-3-1 2 2 2 1 4-1 2-2-1v-2l-5 1 1-5v-5h3v-2h-2l-1-5h3l1 5h2l2-8h-2z" fill="#62A040"/>
<path transform="translate(667,350)" d="m0 0h2l1 5 2-2h6v3l3-1 2-3 4-1 3 4 1 4v7l-2 2-2-4-2-1v-5h2l1-3-4 3-1 5-3-1-1 2-1-6-2-1-1 2v-2h-2l-1 7-3-1-3-6v-6z" fill="#1E3014"/>
<path transform="translate(735,336)" d="m0 0h1l1 12-2-1-4-1-1 7-5-3v-2h2v2h2l-2-4-2-2-1 3-2-1 1-2h-2l-2 9-2 4-2-18 6-1v2h-3v2l8-1-1-4h2l1 2 1-2h2l3 3z" fill="#3A5D23"/>
<path transform="translate(383,397)" d="m0 0 5 1 1 3v7l-3-1-1 7v2 3l-3-1-1 3-2-2 2-4-9-9h2v-3l4-1v-2h2l-1 4h2v-3h2z" fill="#6DB74F"/>
<path transform="translate(0,780)" d="m0 0 3 1v2l1-2 4 1 1 5v3l2 5v5h-11z" fill="#54504A"/>
<path transform="translate(366,417)" d="m0 0h1l2 7 8 1-1 5-17 4h-5l4-3-2-2 4-2-1-5 1-3h3v2l2-1z" fill="#1E2A13"/>
<path transform="translate(365,402)" d="m0 0h2l2 7 2-2 4 1 2 4 4 2v4l-1 3h-3v3h-2l-2-10h-2l2 6v4h-2l-2-4h-2l-2-12z" fill="#69AD48"/>
<path transform="translate(667,315)" d="m0 0h9l3 2v3h2l2 8v5h-6l-1-4-5-5-4-3 1-3-3 1z" fill="#2B431B"/>
<path transform="translate(1082,654)" d="m0 0h1l4 29 3 11v7l-3 7h25l-4 3h-9l-11-1-2-1v-6l1-2v-8l-1-4-3-1-1-2z" fill="#1A1E11"/>
<path transform="translate(284,410)" d="m0 0 3 2v3h3v3l2-4h3l2 6 1-2h2l1 5h2v2h-2v2l-4 1v2l-4 1-4-6h-3v-2l2-2h-2l-2-7z" fill="#65A543"/>
<path transform="translate(386,407)" d="m0 0h4v11l-3 5-6 3h-3v3l2 1h-4l1-5h-8l-2-2v-3l3-1 1 5 1-4-1-6h2l2 10 2-4h4l1-2 3-1-2-3z" fill="#64A441"/>
<path transform="translate(484,112)" d="m0 0 3 1 1 4-5 5-6 4h-6l-3-2 1-6 8-4z" fill="#DED9D3"/>
<path transform="translate(1020,554)" d="m0 0 3 4 6 16 7 13h-4v-2l-5-1-5-10-3-10v-9z" fill="#1A1E11"/>
<path transform="translate(624,379)" d="m0 0h4l2 3v5l-4 2-2 2h-2l-4 3-2 2h2l3 3v2h-7l1-5h-3v-3l-7-1 1-3 18-3h2v-4l-5-1z" fill="#73C35B"/>
<path transform="translate(471,92)" d="m0 0h9l4 4-1 4-16 5h-2l1-8z" fill="#DED9D3"/>
<path transform="translate(1199,529)" d="m0 0h1v35l-4-5-4-11 1-6h5l-4-3 1-5 1-2h2z" fill="#3D3A34"/>
<path transform="translate(1112,363)" d="m0 0h16l-1 2-41 5-15 1-11 2h-10l4-2 14-2 26-3 7-2z" fill="#333A27"/>
<path transform="translate(889,294)" d="m0 0h8v11l-1 1-8 1h-3l-2-2 1-6h-2v-3z" fill="#182610"/>
<path transform="translate(464,272)" d="m0 0 9 3 2 3 3 1v-3h3v3l5 1 1 3-1 2h-7l1 3-4 1-4-6v-2h-5l-3-3z" fill="#DCD7D1"/>
<path transform="translate(1160,249)" d="m0 0h3v3h-2l-2 4-3 5-6 7-3 5-5 3-5 2 1-4 2-1 3-5 8-11 3-1 3-4z" fill="#394729"/>
<path transform="translate(561,342)" d="m0 0m-1 1 1 3 4 1 1 1 2-2h4v2h-3v2l3 1 2 6-5 1-2-3v2h-2v-3h-2v2l-3 1 1 3-4-1-1-5h2v-2h-3v-2l-4-2v-2l6 2h3z" fill="#82D972"/>
<path transform="translate(1040,593)" d="m0 0 3 1 2 6 1 4h2l7 18 3 3 3 6 5 6-5-1-7-10v-2h-2l-5-14-6-5-4-6v-5z" fill="#1A1E11"/>
<path transform="translate(1105,416)" d="m0 0 9 2 7 6 1 3h-2l2 4 2 1v5h3l1 2-1 10-1-2-5-1v-6l-7-16-3-3v-2l-6-2z" fill="#2E2C26"/>
<path transform="translate(556,508)" d="m0 0 4 2 6 2 31 1 7 3 4 5-1 5-2-3-3-5-5-2h-27l-6 2-4-3-5-3z" fill="#2E2C26"/>
<path transform="translate(1174,426)" d="m0 0 4 5 9 7 5 4 8 6v5h-5l-3-5v-2l-5-2-14-11-5-1 5-5z" fill="#2E2C26"/>
<path transform="translate(350,117)" d="m0 0h2l2 8-1 2v8l4 8 7 6-4 1-6-4-5-6-2-6v-8z" fill="#2E2C26"/>
<path transform="translate(571,468)" d="m0 0h7l10 3 5 9-1 8-4 6-4 3-2-1 3-4 1-4v-8l-4-7-6-3-5-1z" fill="#2E2C26"/>
<path transform="translate(289,374)" d="m0 0h5l1 1 3 20v6l-3 1 1-4h-2l-2-7-2-1 1-2-1-1-1-2-2 3-2-1 3-12z" fill="#1D2813"/>
<path transform="translate(561,471)" d="m0 0 2 1-3 5-1 4v7l4 7 3 4-3 1-9-7-2-4v-9l7-8z" fill="#2E2C26"/>
<path transform="translate(472,300)" d="m0 0 4 1 2-1 6 1v4l1 3 3-2 3 1v2l3 3 5 1 2 2-1 7-1-3h-2l-1 2-1-3h2l-1-2h-4v-3l-2 1 1 2-5-1-3-1-1-4-4-6-6-2z" fill="#DCD7D1"/>
<path transform="translate(930,461)" d="m0 0h2l2 5 7 1 2 2 1 10 2 4v4h-3l-2-9-3-1-4-5-5-3-2-2v-5z" fill="#2D2B25"/>
<path transform="translate(861,137)" d="m0 0h6l4 4-1 7-2 2h-7l-3-2v-9z" fill="#979088"/>
<path transform="translate(243,450)" d="m0 0 4 1-3 4-3 1-1 3 15-2 1-2 1 3-2 3-2-1h-2l-10 2-1 2h-18v-3l5-1 1 1 3-4 8-1 2-4h2z" fill="#202E14"/>
<path transform="translate(478,372)" d="m0 0 3 2 2 6 1 4 4-2 2 3-14 7-3-1 1-1-8-1v-2l8-1v-2h2z" fill="#223616"/>
<path transform="translate(416,86)" d="m0 0 2 3 3 15 3 16 2 16h2l1 3-1 1h-6l-1-13-2-13-3-23z" fill="#2E2C26"/>
<path transform="translate(220,425)" d="m0 0 2 1 2 4 3 9 2 2h-3l3 9 2 1v-2l4 2 1 6h-9l-1-7-4-5 1-6 1-2-3 1v-7l-1-1z" fill="#5F9C3B"/>
<path transform="translate(403,407)" d="m0 0 2 1v3l1 3h-2v2l6-3 4 1 7 2-1 3-4 2-8 1-5-1-4-2h7l1-2-4 1h-4v-2h-2v-2l2-1-1-4z" fill="#191D10"/>
<path transform="translate(404,371)" d="m0 0 2 4 3 14v4h-3l-1-5h2l-1-2-3 4 1 3-5 2v-10l-3-5 2-3 2 3 2-7h2z" fill="#1C2A13"/>
<path transform="translate(1024,637)" d="m0 0h9l6 2 1 4-4 4-7-1-5-3-6-2 3-3z" fill="#14160E"/>
<path transform="translate(508,353)" d="m0 0 3 1v5h-2l-1-4-1 6h-3v3l2 1v5h-3v-2h-2l-1 3-2-1-1-15z" fill="#76C75F"/>
<path transform="translate(889,314)" d="m0 0 9 1 2 3-3 5-9 3-4-4-2-5 2-2z" fill="#528D2C"/>
<path transform="translate(283,453)" d="m0 0 4 2v2l4-1v2l3-1v2l-7 2 2 3-6 3-8-1-1-1-7-1-1-6h5l-1 5h2l1-3 1 2h2l-1-3 5-1-1 2 2 2v3h2l-2-6 4-2z" fill="#6CB34C"/>
<path transform="translate(445,402)" d="m0 0 3 1 1 4h3l2 5-6 2v2l2 1v2l4 1-4 1-8-5-1-2v-8l4-2z" fill="#1F3114"/>
<path transform="translate(340,399)" d="m0 0h2l3 15v5l-4-2-1-1-1-3-4-1-2-2v-7l3-1v-2z" fill="#65A643"/>
<path transform="translate(849,340)" d="m0 0h3l2 9 1 9 2 7 1 8-6-1-1-15h-1l-1-5z" fill="#182310"/>
<path transform="translate(320,442)" d="m0 0h3l2 4-1 4h-2l2 3 4 2-2 1h-6l-10-8-4-1v-2l10-1 3 2z" fill="#67AA45"/>
<path transform="translate(675,344)" d="m0 0 8 1 4 6-4 2-2 3h-3l-1-2h-5l-2 3-2-5 4-6 1 2 4 1v-2l-3-1z" fill="#2B411C"/>
<path transform="translate(327,411)" d="m0 0 3 2 2 5h7v4l-4-1 3 4h2l1-3 2 2 2-4v9l-8 5-3-3-2-10h-5l-1-4h3z" fill="#5E9B3B"/>
<path transform="translate(431,401)" d="m0 0 1 2 2 1 1 4 5 1v-2l-3-1-1-3 2-1v2l4 2v10l4 2 8 3v3l-5 3 1-4h-3l-2-2 1 3-5-1-3-6v-6l-4-1-4-4z" fill="#65A743"/>
<path transform="translate(452,361)" d="m0 0h1l1 9-2 4-1 1-2 4-2-1 1 3h-2v-2h-2l-1 3 1 4-4-1v-2l-4-1v-3l3-1 3 1 2-5-2-3 5-1h3l-1-2-3 1v-2l-2-1 7-1z" fill="#192510"/>
<path transform="translate(393,381)" d="m0 0 1 2 5 1 1 3v7h4l-1 4-5 3-6-2v-2h3l-6-9 4-1 2-2-4-2h2z" fill="#191E10"/>
<path transform="translate(3,762)" d="m0 0h5l3 3-1-3h3l1 2 2-1 5 3 2 5v6l-2-2-2 2v-2l-3-1v-3h-5l-1-3-6-3z" fill="#878179"/>
<path transform="translate(371,364)" d="m0 0 2 3h-2l-1 5 8-1 1 3-11 1-4 3-2 3v-2l-3-1-1-5 1-7h1l1 5 8-6z" fill="#203114"/>
<path transform="translate(775,338)" d="m0 0h3l1 4 2-2 1 12-3-2-3-6v-2l-5 1v6h-2l-1-1h-3l-2-1v2h2v2l3 1-1 2-5-1-1-1v-7h7v-5l2-1h4z" fill="#375820"/>
<path transform="translate(514,329)" d="m0 0 5 2-2 1 1 3 5 1-2 5v4l-2 1-3-3v-2h-2l-1 3h-2-3l-2-7 5 1 1-2 3 2-1-2-2-3-1-2z" fill="#73C35B"/>
<path transform="translate(505,317)" d="m0 0 7 1 7 3 1 3 4-1-1 3-5 2h-5-2l-4-2-1-4h-2z" fill="#AAA49C"/>
<path transform="translate(302,446)" d="m0 0 8 1 5 4v2l-4 1-3-2v-2l-6-1 1 2 3 1 1 4-7 1-4-2-1-2-1 3-3-5v-1h5l3-3z" fill="#5F9A3B"/>
<path transform="translate(253,458)" d="m0 0 2 1 2-1 2 7-8-1h-3v5l-10 2 1-3h2l-3-4 3-3z" fill="#4D832B"/>
<path transform="translate(260,456)" d="m0 0 3 1 1 4h2l1-2 1 4-6 4h-6l-3 2h-5v-5l8-1 3 2-2-3v-5z" fill="#619E3E"/>
<path transform="translate(12,781)" d="m0 0 2 3 4-1 5 4 2 7v3l3 1v2h-6l-4-3v-2h2l-1-2-5-2-2-5z" fill="#36332D"/>
<path transform="translate(1015,463)" d="m0 0 4 4 4 5-1 4h2l-1 8h-2l-4 4-1-7v-10l-1-1z" fill="#171910"/>
<path transform="translate(900,252)" d="m0 0h12v2l-5 2-3 3-7 1-2 2h-3l-1-6v-2z" fill="#84D474"/>
<path transform="translate(1155,508)" d="m0 0h3l2 3-2 1 1 3-2 1h4l1 8 1 3-7 1-3-9 1-5-2-1 1-3h2z" fill="#312F29"/>
<path transform="translate(651,317)" d="m0 0m-3 1 4 1 1 2-1 3h-2l1 5-3 1-1 3-1-5-2-1-5 4-2-2 4-7 3-3z" fill="#2F481E"/>
<path transform="translate(1013,644)" d="m0 0h1l1 14 3 7-1 15h-1l-3-10-1-1-2-18z" fill="#181B10"/>
<path transform="translate(583,434)" d="m0 0 7 2v-2l6 2 1 4 4 4v2l-4-1-5-2h-4v-2l-5-1-1-5z" fill="#979088"/>
<path transform="translate(310,430)" d="m0 0 1 2 4-1v5l-1 2v5l-9 1v-3l-4-2 2-1v-2l5-3z" fill="#181C10"/>
<path transform="translate(675,376)" d="m0 0h3l1 3-1 2-17 3-8-1 3-5 4-1h7l1 2 3-2 2 2z" fill="#213416"/>
<path transform="translate(740,365)" d="m0 0 3 3 7 2v4l-16 1-3-3 3-2-4-1 3-2h7z" fill="#243917"/>
<path transform="translate(857,268)" d="m0 0h7l-3 2-11 4-3 10-4 8-4 2v7l-2-1v-8l4-3 4-10 2-2 1-7z" fill="#60A03E"/>
<path transform="translate(370,375)" d="m0 0 4 1 5-1 1 8-6 2h-6l1-4-3-1 1 7-2-1-1-8z" fill="#6DB650"/>
<path transform="translate(403,349)" d="m0 0 10 1v3l3-1v2h-2v2h2v2h-2v2h4l-1 4-1-2h-3l3 1v3l-4-1-2-3-1-4-4-5-2 2-1-2z" fill="#69AE47"/>
<path transform="translate(504,342)" d="m0 0 5 2 2 3-1 6-2 1h-7v-5l-8-3v-1l11-1z" fill="#243817"/>
<path transform="translate(452,359)" d="m0 0h2l3 19 2 2v3h-3l-1 3h-3l1-4-5-1-3-5 4 2v-3l1-2h2l1-6z" fill="#233617"/>
<path transform="translate(591,314)" d="m0 0h7l-4 2-1 3 1 4-4 1-3-2v-3l-4 1h-3-8l-6-1v-1z" fill="#85C774"/>
<path transform="translate(1164,185)" d="m0 0 2 1-5 12-3 9-8 8-2-1 8-14 4-9z" fill="#979088"/>
<path transform="translate(567,570)" d="m0 0h2l2 11 1 11 2 6v10l-4-5-2-5 1-1v-11l-3-10-2-4z" fill="#2E2C26"/>
<path transform="translate(1149,505)" d="m0 0m-1 1m-4 1h7l1 4 3 1-2 1 1 3v7h-3v-7l-4-2-2 4v-4h-5l1-5z" fill="#7E7870"/>
<path transform="translate(300,437)" d="m0 0 3 1v2l2 1v3l9-1-2 2-15 3-1 3-4-3 5-3v-2l-8-1 2-2z" fill="#223015"/>
<path transform="translate(331,411)" d="m0 0 1 2h2v2h2v-2h3l2 2 3 1v1l1 3-1 6-3-3v3l-4-1-3-5 5 2-1-3h-6l-2-5z" fill="#69AD47"/>
<path transform="translate(525,326)" d="m0 0h1v7l-3 3h-5l-1-4 1-1-4-1-2 1-6-1-1 5-4-2 1-3 16-3z" fill="#78CA62"/>
<path transform="translate(990,581)" d="m0 0h4l1 5-6 5-7 4-9 1 1-2 8-3 5-6 1-3z" fill="#14160E"/>
<path transform="translate(384,369)" d="m0 0 1 3 2 1v4l5-2 2 2h-2v4l-5 1 1 2 3 2-2 3-1 5h-1l-2-10-5-9h2l1-5z" fill="#1F3214"/>
<path transform="translate(378,660)" d="m0 0h3l1 9 2 4 2 1v2l-5 1-5-3-1-2v-9z" fill="#2E2C26"/>
<path transform="translate(290,403)" d="m0 0 3 3 1 3 9 1-1 5-5 1 4 1 4 6v2l-5-2v-5h-2l-1 3-2-2-2-6-1 3-2-4 2-1v-2l-4 1 1-4 1-1z" fill="#568D33"/>
<path transform="translate(413,367)" d="m0 0 6 2 5 3 1-3 4 1 2 2-1 4 2 5-1 3-5-2v3l-3 1 1-4-2-1 3-3 2-1-1-3-8-1-2-2z" fill="#6BB04A"/>
<path transform="translate(387,358)" d="m0 0 8 2-3 3-1 4-7 1h-1l-3-2v-2h3l-1-2-7 3-3-2 11-4z" fill="#1E3014"/>
<path transform="translate(653,332)" d="m0 0 4 1 5 5 3 4v6l-4-4-7-1-1-5-2-1v-3h2z" fill="#2C411D"/>
<path transform="translate(943,679)" d="m0 0h2l-2 9 1 11 1 9h-2l-4-8v-15z" fill="#2E2C26"/>
<path transform="translate(1093,590)" d="m0 0h5l2 9 4 7-4 1h-7v-2h2v-7l-2-3z" fill="#181B10"/>
<path transform="translate(209,447)" d="m0 0h2l2 11h2l1-2 1 4h2l-1-5 3 1 1 7-4 1v-2 3l2 3-5-1v-3l-4-1h2l-5-11z" fill="#619C3E"/>
<path transform="translate(441,367)" d="m0 0h5l5 1-1 4v-2l-7 1 2 4h-2l-1 5-6-1-1 2v-8l4-4h2z" fill="#1D2B13"/>
<path transform="translate(322,410)" d="m0 0 2 1v2h2v2h-2l1 7h2l-1 2v4l1 2h3l-1 3-3 3-6-1 1-8z" fill="#589235"/>
<path transform="translate(483,367)" d="m0 0h5l-2 4-5-2zm-4 4h5l1 3 2-1 1 3-1 2h3l1-2 1 3h-2l1 4h-3l-4 1-3-5z" fill="#182410"/>
<path transform="translate(727,318)" d="m0 0 4 5h4l-1 10-6-3 1 4h-2v-2l-4 1 2-5v-2l3-1h-5l-1-3z" fill="#3D6424"/>
<path transform="translate(880,693)" d="m0 0 6 2 1 2-1 10-3 2-2-4-2-1-1-10z" fill="#DED9D3"/>
<path transform="translate(336,374)" d="m0 0 5 1v2h2l-1 7 2 1-2 4-4-3v-2l-5-1v-7z" fill="#192210"/>
<path transform="translate(466,343)" d="m0 0h7l-4 2-2 6h-10l-2 1-3-1v-5z" fill="#1E2F14"/>
<path transform="translate(792,570)" d="m0 0h6l5 5-3 2-13 1-1-3 3-4z" fill="#DED9D3"/>
<path transform="translate(211,467)" d="m0 0 4 1 3 4 1 4-2 2-6 1-3-1-2-4h2l-1-5z" fill="#5F993C"/>
<path transform="translate(482,336)" d="m0 0 6 1 1 3h3l1 1 2-2 4 1-2 4-5-1v4h-5l-7-2v-7l2 4h2l-1-3 2-1z" fill="#6DB44E"/>
<path transform="translate(1117,633)" d="m0 0h13l4 5 1 4-4-2-8-3-19-1 1-2z" fill="#14160E"/>
<path transform="translate(710,273)" d="m0 0 11 3v2h2l-1 5-3-2-6-2v-2l-3 1-1 2h-2v5l-3-3-3-4v-2h3v2l5-3z" fill="#2E2C26"/>
<path transform="translate(429,333)" d="m0 0 8 3 1 2v2l4 1v3l4 2-2 5h-2l-4-4v-3h-6l-2 1v-3l3-1-1-2 3-1-6-2z" fill="#95D183"/>
<path transform="translate(865,266)" d="m0 0 5 1 5-1 9 5v3l9 3 1 2-9-1-5-3v-4l-4 1-7-2h-3v-2l-2-1z" fill="#528D2C"/>
<path transform="translate(233,437)" d="m0 0 2 2 2 4 3 2 1 8-2 3h-3l-3-6v-3l2-4-4 1-1-5z" fill="#4F872B"/>
<path transform="translate(534,609)" d="m0 0 1 4-1 8 3 13 2 6-5-4-4-10 1-13z" fill="#2E2C26"/>
<path transform="translate(1198,526)" d="m0 0h2l-1 4-1 2h-2l-1 7 4 1-1 3-4 1-3 4h-3l-8-3 4-2 6-1 3-9h2l2-5z" fill="#9B948C"/>
<path transform="translate(1160,433)" d="m0 0 1 2h4v2h-2l1 10 2 6 4 3h-5l-2-6h-2v-2l-3 1 1-10h-3l1-4 2 1z" fill="#2E2C26"/>
<path transform="translate(724,353)" d="m0 0 3 1v3l2 2-3 1v3l-4 2-1-1-1 2h7v3l-1-1-8-1v-8l1-5 5 1z" fill="#304620"/>
<path transform="translate(1169,653)" d="m0 0h5l2 5h2v14h-3l-2-4-3-11z" fill="#15170E"/>
<path transform="translate(320,438)" d="m0 0 4 1 2 3v3l5 2 1 3-3 1v2l-5 1-2-4h2l-1-3v-3-2h-3l-1 4-5-2v-1h5z" fill="#629E3F"/>
<path transform="translate(1032,429)" d="m0 0h4v2l6-1 4 5 4 12h-3l-3-5-1-5-4-1-4-2-3-1v-3z" fill="#DCD7D1"/>
<path transform="translate(418,385)" d="m0 0h1v7h2v-5l5 1v3l1-3 3 1 3 6 4 5-5-2h-2l-1-2-5-3h-4l-1 3-3-7v-3z" fill="#6AAF49"/>
<path transform="translate(977,374)" d="m0 0h7l4 3-5 2-7 1v2h-6l-3-4v-2h2v2l6-1v-2z" fill="#182610"/>
<path transform="translate(364,353)" d="m0 0h4l-1 4-5-2v3h-2v-3h-2l1 4-7 1-1-3-2 1 1 4-3 1-1-3h-2l-1 2 1-6z" fill="#73C159"/>
<path transform="translate(553,401)" d="m0 0 5 2v5h7l3 3-16 3h-5l2-4v2l4-2h3l-4-5h2z" fill="#84BA72"/>
<path transform="translate(357,378)" d="m0 0 6 4-2 1 1 5-4-1-1 7h-4l-2-10 5-2z" fill="#1A2811"/>
<path transform="translate(762,364)" d="m0 0 3 1v2h2l2 3 4-3h2v2l-3 3-5 1h-11l1-5 4-2z" fill="#3A5D24"/>
<path transform="translate(686,355)" d="m0 0h2l-1 5-1 3 3 4 2-1-1 7h-2l-1 2-2-3-2 1-2 2 1-8 1-3v-6z" fill="#2C461C"/>
<path transform="translate(785,363)" d="m0 0 10 2 1 6h-14l1-3h-2l-1-4 4 2z" fill="#365922"/>
<path transform="translate(847,331)" d="m0 0 4 6-1 6v9l2 3v17l-2-4-2-10-2-25z" fill="#1C2C12"/>
<path transform="translate(399,426)" d="m0 0 2 3v2h2v2l9 2v2l4 2-16 1v-7l-3-1v-2h2z" fill="#77CA61"/>
<path transform="translate(281,442)" d="m0 0h5l-1 2h-7l3 3-4 3h8l-4 2h-8l-1 2-6 1-1-2 6-2 3-4-2-2 1-2z" fill="#223316"/>
<path transform="translate(35,753)" d="m0 0h3v2h8l5 3 1 2-4 1-2-1v2h-2l-1 2v-5l-4-2 1 6-5-2v-3l-1-3z" fill="#2F2D27"/>
<path transform="translate(250,398)" d="m0 0 3 1-1 6h-4v2h9l-2 4v-3h-6v4h-5l-1-2 4-10z" fill="#12130D"/>
<path transform="translate(686,351)" d="m0 0 4 4 1 4v7l-2 2-2-4-2-1v-5h2l1-3-5 4h-3l2-6z" fill="#223516"/>
<path transform="translate(689,383)" d="m0 0 3 1-1 2 3-1v3l-11 1v2h-11l-1 2-5-1-2-1 1-1h12l1-4 7-1v2h3z" fill="#9A938B"/>
<path transform="translate(724,343)" d="m0 0 4 1 1 6h-2v-2h-2l4 5-2 1-3-1v2l-3 1-1 1h-2l1-9 2-4h2l1 3z" fill="#203215"/>
<path transform="translate(7,696)" d="m0 0 4 5h7l1 11-4-4-1-2-9-1v-5h2z" fill="#2E2C26"/>
<path transform="translate(673,357)" d="m0 0h6l1 9-5 3-4-1-1-4h2l-1-3z" fill="#293B1C"/>
<path transform="translate(462,350)" d="m0 0 6 1 4 4-4 2-4 4-3-3v-1l-1-2h-2l-1 2v-3l1-2z" fill="#6CB34E"/>
<path transform="translate(24,720)" d="m0 0h3l-1 5 6 3-1 8h4l-1 3-4 2v-3l-5-2-1-3h2v2h4l-2-3-4-1 4-1-1-2-5-3 1-4z" fill="#2E2C26"/>
<path transform="translate(409,375)" d="m0 0h2l2 6 4-2 2 6-3 1 2 6-3-1-4-5-3-3v-6z" fill="#75C65D"/>
<path transform="translate(1181,372)" d="m0 0 4 2 2 5h2l5 5 1 4 3 2v2h2v5l-5-5-7-8-4-5-3-5z" fill="#353E28"/>
<path transform="translate(293,397)" d="m0 0h4l-1 4 3 1 1 6-2 2-5-1-3-6 1-5z" fill="#171E0F"/>
<path transform="translate(19,748)" d="m0 0 3 4 3 5v4h2v4l5 2v2l-3-1-2 2h-2v3h2v2l-4-1-2-7 3-1-1-5-4-10z" fill="#2F2D27"/>
<path transform="translate(287,449)" d="m0 0h7l-2 2 1 7-6-1-2-2-1 2-6-3v-2z" fill="#599435"/>
<path transform="translate(578,478)" d="m0 0 4 4-1 5-2 5h-2v2l-4-1 1-6h2v-8z" fill="#DCD7D1"/>
<path transform="translate(717,475)" d="m0 0h2v3l-3 3-1 5 3 7 2 3-7-1-1-4v-4l-1-5 3-5z" fill="#2E2C26"/>
<path transform="translate(299,372)" d="m0 0h2v4h-2l1 5h2l1 3h-3-1l1 5-4 1-2-16h5z" fill="#5E993B"/>
<path transform="translate(415,345)" d="m0 0 4 1 6 5 1 4h-2l-1 2-2 1-3 1-2-5z" fill="#6BB049"/>
<path transform="translate(727,306)" d="m0 0 2 4 2 5 6 1-1 5-1 2-5 1-2-5-1-4-2-1z" fill="#253C18"/>
<path transform="translate(871,263)" d="m0 0 5 1 1 3-8 1-4-1-1 1-16 2v-2l7-3 15-1z" fill="#74AD58"/>
<path transform="translate(490,90)" d="m0 0 3 2 5 23 2 10-5-2-1-13-2-4v-10z" fill="#2E2C26"/>
<path transform="translate(568,377)" d="m0 0 3 2v2l7 1 3 3 2 5-4 1-3-3-4-2-1-2-4-4z" fill="#7ACE66"/>
<path transform="translate(717,338)" d="m0 0h4v2h-3v2l5-1 1 6-2-1 1-2h-2l-2 9-2 4-2-18z" fill="#395C22"/>
<path transform="translate(11,789)" d="m0 0h2v2h2l1-2 1 3 4 1-1 2h-2v2l4 2v1h-10z" fill="#77726A"/>
<path transform="translate(443,353)" d="m0 0 3 3 1 2-2-5h5l4 2v2h-3l3 2-3 1h-2l-2 1-3-1v2l4 1-1 2h-5l-1-7-2-2h3z" fill="#182410"/>
<path transform="translate(473,343)" d="m0 0 2 1zm-4 1 4 1h3l-2 6 2 3v3l-4-1-2-4-4-2z" fill="#1E2F13"/>
<path transform="translate(739,311)" d="m0 0 2 1-3 1v3l3-1 9 4 5 2-1 3-7-4-5-1v2l-5 1-2 1v-5l2-2h-6l4-2z" fill="#49762D"/>
<path transform="translate(199,471)" d="m0 0h2v2h2v2h2l1 5-3 2h-9l-5-2v-2l6-1h3l1 2 2-1 2 1v-2l-4-1z" fill="#5F9B3C"/>
<path transform="translate(246,425)" d="m0 0h5l3 4 1 4-3 2-2-1v-2l-2 1-1 3h-2l-1-9 5 1v-2l-3 1z" fill="#12140D"/>
<path transform="translate(212,382)" d="m0 0 1 3 2 4 3 2-2 4-4-2-6-2 2-3 1-2h-6l1-2z" fill="#609A3D"/>
<path transform="translate(748,308)" d="m0 0h13l3 2-1 5 3-1 1 4h-3l-5-1 1-5-6-1v-2h-6z" fill="#374E25"/>
<path transform="translate(896,449)" d="m0 0 4 2 5 8v3l5 2 2 2v6l-4-2-2-5-2-1v-4l-4-1z" fill="#2E2C26"/>
<path transform="translate(418,415)" d="m0 0 5 1 1 3-7 3-18 3-1-2 3-1-5-1-1-5 4 3 9 1v2l2-1h6l1-3 3 1v-2z" fill="#203215"/>
<path transform="translate(282,398)" d="m0 0 4 1-2 1v2l-10-1v2l2 1v2l2 4 3 1-6 2-3-1-1 2-3-1 1-2 6-1v-2l-3-1 1-4h-5v-1h5v-2l8-1z" fill="#4F882B"/>
<path transform="translate(917,387)" d="m0 0h2v9l-1 8 1 2-4-2-1-4v-6l-2-1v-4z" fill="#2E2C26"/>
<path transform="translate(1090,451)" d="m0 0 4 4v3l5 1 7 3v1h-7l-7-3-1-3h-4l-1-4z" fill="#2E2C26"/>
<path transform="translate(1121,448)" d="m0 0 1 2h4l-1 5-4 3h-3l-1 3-9 2v-2l5-2 4-1 2-6z" fill="#2E2C26"/>
<path transform="translate(514,311)" d="m0 0 5 4v2l4 1 1-3 2 7-1 5-4-1 1-1-3-1 3-1-4-3-2-4-4-1v-2h2z" fill="#969187"/>
<path transform="translate(317,395)" d="m0 0h8l3 3h-6v2l5 1 1 4-1 4h-2v-2h-2l-1-3 1-2h-2l-1 2-2-5v-1z" fill="#69AC47"/>
<path transform="translate(423,358)" d="m0 0 4 1 5 1 2 5-1 7-5-4-3-2-1-3v-3z" fill="#6CB24B"/>
<path transform="translate(445,107)" d="m0 0h6l4 2-2 5-1 1h-5l-4-4v-3z" fill="#DED9D3"/>
<path transform="translate(342,381)" d="m0 0h4v3l5 1 2 6-1 4h-3v-7l-4 2-1-5-3-1z" fill="#181D10"/>
<path transform="translate(431,372)" d="m0 0h3l3 12 3 5-2 2-5-5-2-5-2-6z" fill="#6FBA53"/>
<path transform="translate(818,455)" d="m0 0h3l-1 8-4 6h-3l2-4v-2h-2l1-5z" fill="#312E28"/>
<path transform="translate(295,453)" d="m0 0 3 1 1 1 2 4h-4l-1 4-7 1-3-2-1-2 9-1-1-4z" fill="#74B558"/>
<path transform="translate(558,413)" d="m0 0h2l4 8v3h-5v-2l-5-2 1-5z" fill="#979088"/>
<path transform="translate(304,402)" d="m0 0 3 4 5 2 1 4 5 2-2 2-2-2h-3l-1-4-3-1v2h3l-2 4-3 1v-2h-2v-2l1-1v-3l-2-4z" fill="#5A9536"/>
<path transform="translate(672,371)" d="m0 0h7l-4 2 4 1 2 6-3-1v-3l-3 1-3 3-2-2-2 2-1-3-7 1 4-2 6-1v-2h2z" fill="#324A20"/>
<path transform="translate(424,354)" d="m0 0 4 1 1 2 5 2 2-1-1 6-4 1 1-2-1-2h-4-1l-5-2v-3l2 1zm-4 5 1 4-2-2z" fill="#76C85F"/>
<path transform="translate(853,320)" d="m0 0 2 3 3 16 2 13h-2l-2-6-3-15z" fill="#182610"/>
<path transform="translate(489,288)" d="m0 0h6v2l3 3h4v4l-4 1-5-3v2h-2v-3h-3v-2h2z" fill="#979088"/>
<path transform="translate(487,611)" d="m0 0 5 1 4 6 2 14v5l-2-1-2-12-4-8-3-3z" fill="#2E2C26"/>
<path transform="translate(657,351)" d="m0 0h8v3l2 3 2 5-10-4-4-2 3-1-3-1v-2z" fill="#2D471C"/>
<path transform="translate(433,343)" d="m0 0 5 1v3l4 2 1 3-4 4h-2l-1-1-2 2-5-6 2-1 9 2-5-5v-2h-2z" fill="#6AAF49"/>
<path transform="translate(560,320)" d="m0 0 1 3 3 1-3 3 1 2-1 2h-2v2l-6-2 1-4 2-5z" fill="#7CD068"/>
<path transform="translate(1154,503)" d="m0 0h5l2 4-1 4-4-2-4 2-2-3-2-1zm3 8h3v2l-3-1z" fill="#847E76"/>
<path transform="translate(231,457)" d="m0 0h5l-1 5 6-1-1 3h-18v-3l5-1 1 1z" fill="#273E18"/>
<path transform="translate(203,384)" d="m0 0m-3 1h3l-1 4-2 2-2 4-5-2-1-2h6v-2l-7 2h-5l4-2 2-3z" fill="#5E983A"/>
<path transform="translate(1042,372)" d="m0 0h6l1 2-20 3-13 1h-10v-1l26-3z" fill="#333827"/>
<path transform="translate(283,369)" d="m0 0h5v2h2v2l4 1-5 1-3 12h-1l-1-10h2v-2l-4-4z" fill="#5B9637"/>
<path transform="translate(921,166)" d="m0 0h7l2 2-1 4h-11v-4z" fill="#DED9D3"/>
<path transform="translate(409,395)" d="m0 0h1l2 18-5 3h-3v-2h2l-1-6 2-1z" fill="#1E2F13"/>
<path transform="translate(556,379)" d="m0 0h1l3 11h8l1 4-8 2-3-1 1-2-3-7z" fill="#304E1E"/>
<path transform="translate(717,369)" d="m0 0 1 2 4 1-1 3h7v1h-11l-6 1-1-3 3-3z" fill="#345120"/>
<path transform="translate(424,342)" d="m0 0h6l-2 2 1 2-2 2-2 3-4-2-3-3-5-1v-1z" fill="#77C960"/>
<path transform="translate(220,405)" d="m0 0 2 1-1 4-2-1 2 4 4 1v-2h2l1 5-2 1v-2l-3 1-8-4-1-7h5z" fill="#528D2C"/>
<path transform="translate(305,388)" d="m0 0 4 4 2 5 4 2-1 3 3 3v2l-4-1v2l-3-1-1-7-2-6v-3h-2z" fill="#6BB14A"/>
<path transform="translate(846,353)" d="m0 0h1l3 14 1 4h-6l-1-4v-4l1-6z" fill="#69AE47"/>
<path transform="translate(776,578)" d="m0 0h2l1 7-2 5 3 10h-3l-3-11v-8z" fill="#2E2C26"/>
<path transform="translate(399,424)" d="m0 0h6l-1 5 5 2 3 2-1 3-6-2-2-1v-2h-2l-1-5h-2l-1 2-1-3z" fill="#68AB46"/>
<path transform="translate(295,384)" d="m0 0h1l2 11v6l-3 1 1-4h-2l-2-7-2-1 1-2-1-1v-2l5 1z" fill="#1C2A12"/>
<path transform="translate(556,368)" d="m0 0 1 2 4 1 2 3 1 5 1 2h-5v-2h-4z" fill="#7BCF68"/>
<path transform="translate(235,463)" d="m0 0h3v2l3 1v2l-4 3-8-1-1-4 6-2z" fill="#5F9B3C"/>
<path transform="translate(283,453)" d="m0 0 4 2v2l4-1v2l3-1v2l-7 2 2 3-1 1h-5l-2-6 4-2z" fill="#66A944"/>
<path transform="translate(1150,402)" d="m0 0 2 4 1 6 2-2 1 5-1 7 1 7h-2l-2-7-2-13z" fill="#2F2D27"/>
<path transform="translate(487,332)" d="m0 0h6l1 2-1 3 4 1 1 3-4-1v2l-6-1v-3l-2-2z" fill="#79CC64"/>
<path transform="translate(497,330)" d="m0 0h5l1 4 2 2-5 1-2-1-1 2-4-1v-6z" fill="#76C25E"/>
<path transform="translate(540,512)" d="m0 0h5l5 5-2 4-6-1-2-4z" fill="#DED9D3"/>
<path transform="translate(277,452)" d="m0 0 4 2 3 3-1 3-2-1 2 6h-2v-3l-4-2 3-2-4 2v2h-2l-1-3 1-4v-2z" fill="#5C973A"/>
<path transform="translate(406,425)" d="m0 0 4 1v2l3 1 1 5 5 2-3 2h-5l1-5-5-2-3-2v-3z" fill="#7ACF66"/>
<path transform="translate(551,346)" d="m0 0 6 2 6 5v3l-3 1 1 3-4-1-1-5h2v-2h-3v-2l-4-2z" fill="#81D770"/>
<path transform="translate(236,438)" d="m0 0 5 1 3 3v8l-1 2h-2l-2-5v-2l-2-1z" fill="#548D31"/>
<path transform="translate(821,437)" d="m0 0 5 1 3 1-2 4-2 1v-2l-6 2h-4l2-4z" fill="#726D65"/>
<path transform="translate(484,418)" d="m0 0h9l7 3v2h-17z" fill="#78CB62"/>
<path transform="translate(368,374)" d="m0 0h12l4 6 1 4h-2v-3l-1 3-3 1-1-9-6 1-2-1-4 1-1 2v-3z" fill="#63A140"/>
<path transform="translate(770,313)" d="m0 0 4 2 2 10-1 5-4 1-3-3 3-1 1-8-2-3z" fill="#3C6024"/>
<path transform="translate(283,426)" d="m0 0h7v3l-3 1 3 2 1-2 1 3 2 1-3 1 2 2-5-1-3-3v-2l-5-2v-2z" fill="#6AAF49"/>
<path transform="translate(420,381)" d="m0 0 4 1v3h2v-3l5 1 1 3-3 3-2-1-1 4-1-2 1-2h-3l-1 2z" fill="#75C65D"/>
<path transform="translate(769,343)" d="m0 0 2 2v4h-2l-1-1h-3l-2-1v2h2v2l3 1-1 2-5-1-1-1v-7l7-1z" fill="#3A6021"/>
<path transform="translate(878,260)" d="m0 0 2 1 1 5h-5v-2h-5l-1 1h-11l4-2 6-2h8z" fill="#77C960"/>
<path transform="translate(1158,792)" d="m0 0h14l9 4 1 4h-2l-4-4-10-2-13 1-4 1 3-3z" fill="#1A1E11"/>
<path transform="translate(1019,556)" d="m0 0 2 3 4 13 3 10-5-5-4-13z" fill="#2E2C26"/>
<path transform="translate(990,498)" d="m0 0h3l2 7 4 3-1 4h-4l-1 2-2-6h2v3l2-1-5-7z" fill="#2D2B25"/>
<path transform="translate(238,403)" d="m0 0h1l2 16-5-5v-3h-2l-1-7 4 1z" fill="#538E2E"/>
<path transform="translate(450,398)" d="m0 0 4 1-1 4 1 1 4 1-1 5-1-3h-7l-2-6z" fill="#1D2E13"/>
<path transform="translate(299,364)" d="m0 0 5 1 1 3v5l7-1 1 5-6-1-1 3-4-7-2-6z" fill="#5F993C"/>
<path transform="translate(520,351)" d="m0 0 4 2h-2v2l4 2 1 7-4 1v2l-2-1-1-8 2-1-3-2z" fill="#82D871"/>
<path transform="translate(401,346)" d="m0 0h6l-2 3 1 2h-3v2l-3-1-1-2-6 1-7-1 4-2z" fill="#77CA61"/>
<path transform="translate(492,346)" d="m0 0h5l6 2-2 6-2-1 1-4h-2v4l-4 1-3-2 1-4-3-1z" fill="#1C2A12"/>
<path transform="translate(571,336)" d="m0 0 4 3v-2h2l3 3v2l3 1 2 7-4 1-3-3 1-7h-6l-2-2z" fill="#82D972"/>
<path transform="translate(585,290)" d="m0 0h4l4 1h-2v2l3-1 4 1v3l-5 3-5-4-3-1z" fill="#2E2C26"/>
<path transform="translate(1071,642)" d="m0 0 2 3 2 9 6 1-3 5-4-2-4-8v-7z" fill="#1A1E11"/>
<path transform="translate(259,420)" d="m0 0 4 2 3 5-1 3v-2h-3l-1 3h-4l-1-4 2-2z" fill="#12130D"/>
<path transform="translate(638,363)" d="m0 0h1l1 10 2 7-4-2-1-2-4-1-2-3-5-2 2-1 9 2z" fill="#71BF58"/>
<path transform="translate(391,361)" d="m0 0h4v2h-2v5l-3 7-1 3-4-2 2-3-3-1 4-2-1-2 4-1z" fill="#192310"/>
<path transform="translate(868,356)" d="m0 0h5v8h-3l-2 1h-4v-6z" fill="#375123"/>
<path transform="translate(741,453)" d="m0 0 5 2h2l1 8-1 2h-3l-4-9z" fill="#2E2C26"/>
<path transform="translate(532,413)" d="m0 0 2 1-1 5-3-1v-3h-4l1 7-10-1v-4h7v-3z" fill="#979088"/>
<path transform="translate(331,394)" d="m0 0h2l1 7 1 1 1-4 2 2-4 4v6h-2l-3-9 1-4h2z" fill="#6BB04A"/>
<path transform="translate(408,383)" d="m0 0 3 1 1 4 3 1 1 6-5-1-2 1z" fill="#68AC47"/>
<path transform="translate(244,382)" d="m0 0 4 2-2 6h-2l1 4-5 1-1-4z" fill="#12130D"/>
<path transform="translate(718,367)" d="m0 0h8l3 3v4l-7-1-4-2z" fill="#243818"/>
<path transform="translate(561,340)" d="m0 0 6 1 2-1 2 2-4 7-2 3-1-5-3-1-1-5z" fill="#7DD26A"/>
<path transform="translate(1013,661)" d="m0 0 2 1v2l3 1-1 15h-1l-3-10-1-4z" fill="#14160E"/>
<path transform="translate(312,419)" d="m0 0h2l-1 4-2 5-5 6-1-4 1-4h3l-3-5z" fill="#5A9637"/>
<path transform="translate(308,390)" d="m0 0 2 1v2h5 3l1 2h-2l3 3-1 2-3 1-4-2-2-2z" fill="#5E983A"/>
<path transform="translate(388,389)" d="m0 0 6 3 1 5h-3l1 3h-3l-1 3-1-4z" fill="#1C2713"/>
<path transform="translate(737,349)" d="m0 0 2 3v11h-2v2l-4-2-3-3 4-1 4 2v-5l-2-1 1-2-6 2v-2l3-2z" fill="#45612F"/>
<path transform="translate(596,315)" d="m0 0 3 1-2 2-2-1v2l8 1-2 2-7 4-3 1-1-3 3-2v-3l-2-1h3v-2z" fill="#75C65E"/>
<path transform="translate(437,381)" d="m0 0 1 2 5 2 1 3 4-1v2h-3v2l3-1 2 2-4 1-4-2v-2l-4-2-2-5z" fill="#233616"/>
<path transform="translate(571,327)" d="m0 0 8 4 2 7 1 2-5-1v-2h-3v-3h-2v-4z" fill="#7ACE66"/>
<path transform="translate(433,119)" d="m0 0 6 1 3 4-1 4-6-2-2-3z" fill="#DED9D3"/>
<path transform="translate(136,458)" d="m0 0 5 5 2 4 1 5-3 1-5-5z" fill="#375C1F"/>
<path transform="translate(423,409)" d="m0 0 7 1 2 5 3 1-4 3-2-5-6 1-2-5z" fill="#6CB24B"/>
<path transform="translate(274,401)" d="m0 0h8l3 5h-3l-1 3h-2v-2l-4-1z" fill="#66A744"/>
<path transform="translate(551,348)" d="m0 0 4 2v2h3v2h-2l2 5-4 3-3-9z" fill="#73C05A"/>
<path transform="translate(884,317)" d="m0 0h11l1 3h-2v2l-5 1-5-3z" fill="#609A3D"/>
<path transform="translate(450,282)" d="m0 0 3 1 6 7v7h-2l-5-9h-2z" fill="#DBD6D0"/>
<path transform="translate(307,409)" d="m0 0 5 1v4h3v4l-3 1h-5l-1-3 3-4 1-1h-3z" fill="#64A542"/>
<path transform="translate(315,400)" d="m0 0 6 2h2v5l-4 3h-2v-5l-3-1v-2l-2-1z" fill="#629F3F"/>
<path transform="translate(398,366)" d="m0 0 5 2 1 5v3l-3 1-1 5-2-4 2-1-2-5 1-1-2-1z" fill="#182210"/>
<path transform="translate(398,756)" d="m0 0 5 2-1 7-4-1-3-4v-3z" fill="#2E2C26"/>
<path transform="translate(253,458)" d="m0 0 2 1 2-1 2 7-9-1h-6l1-4z" fill="#558F30"/>
<path transform="translate(802,442)" d="m0 0h5l1 3 3 1 2-2 3 5v2h-6l-5-5-3-2z" fill="#2E2C26"/>
<path transform="translate(327,411)" d="m0 0 3 2 2 5h7v4l-4-1 2 5-3-1-2-4h-5l-1-4h3z" fill="#5B9538"/>
<path transform="translate(491,357)" d="m0 0h2l4 6v4h-5l-1-3h-2v-4h2z" fill="#1C2C12"/>
<path transform="translate(458,118)" d="m0 0h2l2 10 4 4-6-1-4-5 1-6z" fill="#2E2C26"/>
<path transform="translate(851,493)" d="m0 0 5 2v9l-5-2-2-7z" fill="#DED9D3"/>
<path transform="translate(224,465)" d="m0 0 3 2-2 5h2l-1 3-7-1-2-5 4 2 1 1 1-2-3-1 3-1z" fill="#65A544"/>
<path transform="translate(516,461)" d="m0 0 6 4-2 1 2 6-1 2-5-1v-7l-1-4z" fill="#DED9D3"/>
<path transform="translate(301,425)" d="m0 0 4 2-2 4 2 4-3 2-3-2-1-4 3-1h-4v-2l4-1zm-6 5 2 1-2 1z" fill="#5B9537"/>
<path transform="translate(412,413)" d="m0 0 9 3-1 3-4 2-8 1 2-4 3-1-3-2h2z" fill="#1C2812"/>
<path transform="translate(1101,364)" d="m0 0h7l2 3-17 2-11-1v-1l14-1z" fill="#303326"/>
<path transform="translate(303,362)" d="m0 0h10l1 2h-4l1 3-4 5-2-1z" fill="#67A645"/>
<path transform="translate(872,275)" d="m0 0h2v2l4 1v2l4 1v2h2v2l-4 1-1-2-2-1v-2l-5 1-1-5z" fill="#384628"/>
<path transform="translate(393,417)" d="m0 0 3 1v3h6l-1 2h-3v2l-9 2 3-3 2 1v-3h-2z" fill="#1D2C13"/>
<path transform="translate(463,394)" d="m0 0h6l3 2-5 1-1-1-4 3 1 4-5-1v-5z" fill="#66A844"/>
<path transform="translate(282,433)" d="m0 0 1 3 5-1 7 3-1 2-4 1-3-1h-3l-2-2z" fill="#559030"/>
<path transform="translate(199,409)" d="m0 0h6v10h-3l-3-4z" fill="#609A3D"/>
<path transform="translate(364,402)" d="m0 0h1l1 6v9l-4 1-2-4v-4l2 2z" fill="#1F3113"/>
<path transform="translate(443,375)" d="m0 0 3 1 2 5h-2v-2h-2l-1 3 1 4-4-1v-2l-4-1v-3l3-1 3 1z" fill="#192210"/>
<path transform="translate(441,372)" d="m0 0 4 2-2 1-1 5-6-1-1 2v-8l2 2 4-1z" fill="#1E2F14"/>
<path transform="translate(728,359)" d="m0 0 5 2-2 4-4 2-7-1 1-3h3 2v-3z" fill="#223417"/>
<path transform="translate(482,346)" d="m0 0 4 1h-2v2l5 2-4 4-3 1-2 2-3-5v-2l5-1v3h3l-2-2z" fill="#182610"/>
<path transform="translate(728,330)" d="m0 0h5l2 6v5l-4-2v-2l-3 1z" fill="#2B421C"/>
<path transform="translate(580,326)" d="m0 0h7l4 2-10 4-2 4v-5h-2l1-4z" fill="#74C45C"/>
<path transform="translate(1199,529)" d="m0 0h1v10h-2v2l-4-2 1-5 1-2h2z" fill="#393630"/>
<path transform="translate(830,491)" d="m0 0 5 1 2 4v5l-3 3-4-11z" fill="#2E2C26"/>
<path transform="translate(267,429)" d="m0 0 1 3h2v2l6 1-2 3v5h-2l-4-5z" fill="#5A9336"/>
<path transform="translate(220,425)" d="m0 0 2 1 2 4 3 9 2 2h-5l-1-2 1-2-3 1v-7l-1-1z" fill="#629F3F"/>
<path transform="translate(511,336)" d="m0 0 4 2 1 3h-2l-1 3h-2-3l-2-7 5 1z" fill="#73C35B"/>
<path transform="translate(846,282)" d="m0 0 1 2-4 8-4 2v7l-2-1v-8l4-3 2-6z" fill="#5B9837"/>
<path transform="translate(513,442)" d="m0 0 7 1 3 3-1 4-3 1-2-4-4-4z" fill="#DED9D3"/>
<path transform="translate(232,428)" d="m0 0 4 1 2 4h-2l1 2h2l1 4h-3l-1 4-2-4v-7z" fill="#619C3E"/>
<path transform="translate(966,396)" d="m0 0h2v2h2l4 5-1 5-3-1-4-5z" fill="#2C2C24"/>
<path transform="translate(605,392)" d="m0 0 7 1v3h3v2l-12-1-1-3z" fill="#83DA73"/>
<path transform="translate(462,387)" d="m0 0 8 1 5 2-4 3h-6z" fill="#1C2A12"/>
<path transform="translate(595,338)" d="m0 0 9 1-1 2h-2v4h-4l-1 2-4-3h3z" fill="#1D2E13"/>
<path transform="translate(726,293)" d="m0 0 2 1 2 10v7l-2-1v-4l-4 1 2-7z" fill="#4D812E"/>
<path transform="translate(1028,489)" d="m0 0 9 1 1 3-10 2-6 1-1-2 6-1z" fill="#2C2A24"/>
<path transform="translate(955,475)" d="m0 0 10 3v2l-8 1-2-1-1 2-1-4z" fill="#2D2B25"/>
<path transform="translate(366,417)" d="m0 0h1l1 7-2 1-3-1-1 3-3-1 1-7h3v2l2-1z" fill="#1D2C13"/>
<path transform="translate(472,411)" d="m0 0 7 2-2 1v2h8v1l-13 2-1-4h2z" fill="#263919"/>
<path transform="translate(593,379)" d="m0 0h1v5l-3 5 3 2-10 1 1-5 7-4z" fill="#31511D"/>
<path transform="translate(313,384)" d="m0 0 1 2h3v5l-3 2h-4l-2-5 4-1z" fill="#65A743"/>
<path transform="translate(434,364)" d="m0 0h3l4 3v2l-3 2-2 4-2 1-1-6z" fill="#223517"/>
<path transform="translate(672,333)" d="m0 0 3 2 3 6-3 1-5-2-5-1 3-2 2-3v3l2-1z" fill="#75C65E"/>
<path transform="translate(753,306)" d="m0 0h10l4 4-6-1h-13l-7 2v-2z" fill="#5FA03C"/>
<path transform="translate(789,466)" d="m0 0 2 1v2l13 3v2l-10-1-4 1-1-4-2-2z" fill="#2E2C26"/>
<path transform="translate(348,424)" d="m0 0h2l-1 7h-2v2l-4 1-4-2 5-3 2-4z" fill="#1D2A13"/>
<path transform="translate(271,386)" d="m0 0 8 1 6 2-6 1v2h-6v-3h-2z" fill="#4E862A"/>
<path transform="translate(444,379)" d="m0 0h2v2l5 1-2 5-5 1v-5l-3-1z" fill="#1B2B12"/>
<path transform="translate(845,319)" d="m0 0 3 3 3 11-1 5-2-4-3-8z" fill="#182210"/>
<path transform="translate(554,318)" d="m0 0 4 1 7-1 1 2-10 2 1 3-3-1v-2l-5-1 3-2 2 1z" fill="#88C178"/>
<path transform="translate(600,313)" d="m0 0h4l-1 5 3 1-3 2-8-2v-2l3-1v-2z" fill="#84D474"/>
<path transform="translate(1097,600)" d="m0 0h2v2h3l2 4-4 1h-7v-2h2z" fill="#13140D"/>
<path transform="translate(610,548)" d="m0 0h5l1 4-3 2h-7v-2h2z" fill="#979088"/>
<path transform="translate(138,478)" d="m0 0 4 5 1-1 1-3 3 1v6l-9-1-2-3z" fill="#365A1F"/>
<path transform="translate(337,446)" d="m0 0 1 4-2 3-9 1 2-1v-2l4-4z" fill="#6CB24B"/>
<path transform="translate(534,404)" d="m0 0 4 1 3 5h-3v-2l-4 1v2h2v2h-8l4-1 1-7z" fill="#83D573"/>
<path transform="translate(270,374)" d="m0 0 7 1v6l-5 1z" fill="#6AAE48"/>
<path transform="translate(857,353)" d="m0 0 2 1 2 13-2-1-2 2-2-9-1-2h2z" fill="#213416"/>
<path transform="translate(528,472)" d="m0 0 4 4-1 4h-5v-2h-2v-4z" fill="#DED9D3"/>
<path transform="translate(139,445)" d="m0 0 5 1 3 3-2 1v-2h-2l-2 4-4 1 1-7z" fill="#365B1F"/>
<path transform="translate(325,418)" d="m0 0 3 3 3 9-4 1-3-4 2-4-1-1z" fill="#6BB14B"/>
<path transform="translate(371,414)" d="m0 0h2l3 11h-7l-2-2v-3l3-1 1 5 1-4z" fill="#609D3D"/>
<path transform="translate(672,346)" d="m0 0 1 2 3 1v4l-4 1-2 3-2-5z" fill="#273E19"/>
<path transform="translate(486,245)" d="m0 0h3l-1 6 2 2-1 4-4-2v-6l-4-1 4-2z" fill="#DED9D3"/>
<path transform="translate(1178,527)" d="m0 0 4 1 5 5h3l-1 4h2v2l-4-1-2-1-3-1-1-6z" fill="#989189"/>
<path transform="translate(1183,408)" d="m0 0h12l-1 2-5 1-1 3-4 2v-5l-2-1z" fill="#2E2E25"/>
<path transform="translate(967,384)" d="m0 0h5l-4 2h-3l3 5v5h-2l-5-9z" fill="#384528"/>
<path transform="translate(865,385)" d="m0 0h7l-1 5-9-1 1-3z" fill="#12130D"/>
<path transform="translate(684,376)" d="m0 0v3l-3 3-6 1-3 1v2l-9-2v-1l15-3h3v-2z" fill="#6DB651"/>
<path transform="translate(848,352)" d="m0 0h2l2 3v17l-2-4-2-10z" fill="#2A451A"/>
<path transform="translate(432,343)" d="m0 0 1 2h2l5 5v2l-9-1-2-2 3-2z" fill="#76C960"/>
<path transform="translate(493,323)" d="m0 0 5 1 1 2h4l-1 2-1 1-4 2-2-1-1-3-3-1z" fill="#D3CEC8"/>
<path transform="translate(216,422)" d="m0 0 1 4 1 5 3 1 1 4h-3l-4-4v-9z" fill="#5F9A3C"/>
<path transform="translate(729,368)" d="m0 0 6 1-2 4 1 2h-13v-2h7z" fill="#1D2F13"/>
<path transform="translate(853,364)" d="m0 0 4 1 1 8-6-1v-6z" fill="#1A1F11"/>
<path transform="translate(504,318)" d="m0 0 7 5v2l5 1-1 2-4-1-2 1-2-2-1-4h-2z" fill="#DCD7D1"/>
<path transform="translate(642,579)" d="m0 0 4 1 1 1-1 9-4-5-1-4z" fill="#2E2C26"/>
<path transform="translate(966,552)" d="m0 0 7 1 4 5-1 4h-5l2-4-2-4-5-1z" fill="#1A1E11"/>
<path transform="translate(665,512)" d="m0 0h7l1 4-6 2-2-2z" fill="#979088"/>
<path transform="translate(811,486)" d="m0 0 10 1 3 3h-10l-5-1z" fill="#2E2C26"/>
<path transform="translate(952,462)" d="m0 0 6 2 4 4v2l-5-1-5-3v-2l-2-1z" fill="#2E2C26"/>
<path transform="translate(302,446)" d="m0 0 8 1 5 4v2l-4 1-3-2v-2l-6-2z" fill="#5C9738"/>
<path transform="translate(292,402)" d="m0 0 5 2 2-2 1 6-2 2-5-1z" fill="#1E2C13"/>
<path transform="translate(553,401)" d="m0 0 5 2v5h7v1l-9 1-4-5h2z" fill="#83DA73"/>
<path transform="translate(393,381)" d="m0 0 1 2 5 1 1 3-1 2-5-1v2l-3 1-2-3 4-1 2-2-4-2h2z" fill="#181E10"/>
<path transform="translate(418,377)" d="m0 0h2v2h2l-1 3v10h-2l-2-14z" fill="#61A03E"/>
<path transform="translate(370,375)" d="m0 0 4 2-1 3v-2h-2l-1 2-2 1-2-1 1 7-2-1-1-8z" fill="#71BD55"/>
<path transform="translate(717,357)" d="m0 0 3 1-1 1-1 9-4 1-1-3 4 1v-2h-4l-5-2v-2l9 1z" fill="#71BC59"/>
<path transform="translate(508,355)" d="m0 0 2 1 1-1 2 3-1 5-8-1 3-5z" fill="#7ACE65"/>
<path transform="translate(865,266)" d="m0 0 5 1 5-1 4 2-2 2h-11v-2l-2-1z" fill="#589333"/>
<path transform="translate(453,754)" d="m0 0h3v7l-3 3-2-2v-5z" fill="#2E2C26"/>
<path transform="translate(1153,532)" d="m0 0h2l-2 8-5-2v2h-5v-2l8-3-2-2z" fill="#DCD7D1"/>
<path transform="translate(495,412)" d="m0 0 5 1v3l2 1v2h2v2l-4-1-5-3-1-3z" fill="#182410"/>
<path transform="translate(321,397)" d="m0 0h9v6 3l-2 1-2-6-5-1z" fill="#619D3E"/>
<path transform="translate(465,395)" d="m0 0h2l2 7-1 1h-5l-2-5z" fill="#77C960"/>
<path transform="translate(327,382)" d="m0 0 1 4h3l1 3-1 4-3 1-3-2z" fill="#65A542"/>
<path transform="translate(1192,384)" d="m0 0h2l1 4 3 2v2h2v5l-10-10 1-2z" fill="#323727"/>
<path transform="translate(336,374)" d="m0 0 2 1-1 5 3 1-3 1-1 2-3-1v-7z" fill="#1E2C13"/>
<path transform="translate(456,373)" d="m0 0 3 1 2 7 3 1 1 4-5-2-4-6z" fill="#63A541"/>
<path transform="translate(280,368)" d="m0 0h6l-3 3 1 2 3 2-2 2-5-5-8-1 4-2z" fill="#6DB44D"/>
<path transform="translate(634,324)" d="m0 0 1 2h3l-1 11-4-5v-3l-2-1 1-2 2 1z" fill="#74C25B"/>
<path transform="translate(610,324)" d="m0 0h2v2h2l-1 3-3 3-2 4-1-11z" fill="#76C65F"/>
<path transform="translate(320,438)" d="m0 0 4 1 2 3v3l2 1-4-1-1-3h-3l-1 4-5-2v-1h5z" fill="#5C9638"/>
<path transform="translate(182,419)" d="m0 0 3 1 3 10 1 3-4-1v-3h-2v-6z" fill="#609A3D"/>
<path transform="translate(263,401)" d="m0 0h10v1l-7 2-1 1v7l1 2-2 3-2-6z" fill="#29411A"/>
<path transform="translate(497,371)" d="m0 0 2 1 2 4 3-1v5l-6-2-4 5-1-2 3-5z" fill="#68AE48"/>
<path transform="translate(757,329)" d="m0 0h5l1 4h-2v11l-2-3z" fill="#47752B"/>
<path transform="translate(608,320)" d="m0 0 4 1 4 2-1 5-1-2h-2v-2l-4 2-1-5z" fill="#82D871"/>
<path transform="translate(509,280)" d="m0 0h2l1 2 4 2-2 4 1 2-4-1-3-6z" fill="#98918A"/>
<path transform="translate(299,450)" d="m0 0h2l2 3 3-1 1 4-7 1-4-2 2-1z" fill="#62A040"/>
<path transform="translate(823,442)" d="m0 0h4l2 2-6 4-4-1-1-3z" fill="#979088"/>
<path transform="translate(273,417)" d="m0 0 1 3h2l1 5 2 3-6-1-1-9zm5 6 2 1v2h-2z" fill="#589233"/>
<path transform="translate(318,414)" d="m0 0 4 1-1 11-1-4h-2l-1-3-2-2zm1 2 1 2z" fill="#1F2A15"/>
<path transform="translate(445,402)" d="m0 0 3 1v2l-2 2-3 6-2 1v-8l4-2z" fill="#273E19"/>
<path transform="translate(304,389)" d="m0 0 1 2h2l-1 10-1-2h-2v-2l-2-1v-3l2-1z" fill="#528C2E"/>
<path transform="translate(394,388)" d="m0 0 5 1 1 4-1 3h-2l-2-3h-3v-3h2z" fill="#192310"/>
<path transform="translate(395,361)" d="m0 0 5 3 2 3h-3l-3-1v-2h-2v3h2v2l-4 1-1-2h2v-5h2z" fill="#213416"/>
<path transform="translate(466,343)" d="m0 0h7l-4 2-2 4-6-2v-3zm-1 6 2 2h-2z" fill="#284119"/>
<path transform="translate(529,324)" d="m0 0 3 1v5l-4 2-2-2v-5z" fill="#223617"/>
<path transform="translate(667,315)" d="m0 0h9l-2 2v4l-6-1v-2l-3 1z" fill="#385A22"/>
<path transform="translate(382,109)" d="m0 0 4 2 2 3-1 4h-4z" fill="#2E2C26"/>
<path transform="translate(286,442)" d="m0 0h5l-1 4-10 1-2-1v-2l7-1z" fill="#15190E"/>
<path transform="translate(321,429)" d="m0 0 6 2 3-1-1 3-3 3-6-1z" fill="#609D3D"/>
<path transform="translate(368,412)" d="m0 0 2 4h2l1 7-2 1-2-4h-2v-6z" fill="#6FBA52"/>
<path transform="translate(317,395)" d="m0 0h8l3 3h-6l1 4h-2l-1 2-2-5v-1z" fill="#6BB14A"/>
<path transform="translate(485,387)" d="m0 0 2 3-6 1v3l-10-1v-1l10-3z" fill="#65A642"/>
<path transform="translate(352,364)" d="m0 0 1 3-1 2h2l-1 2-2 2-2 3-2-4v-4z" fill="#1E2E13"/>
<path transform="translate(504,342)" d="m0 0 3 1-3 5h-6l-5-2v-1l11-1z" fill="#345420"/>
<path transform="translate(498,282)" d="m0 0h2v2l4 2 3 5-2 1v-2h-3v-3l-4 3-1-2z" fill="#979088"/>
<path transform="translate(1050,547)" d="m0 0 4 2 7 12-2 4-4-10z" fill="#2E2C26"/>
<path transform="translate(690,553)" d="m0 0h3l1 3v10l-6-12z" fill="#2E2C26"/>
<path transform="translate(471,421)" d="m0 0h10l1 2-7 1h-10l1-2z" fill="#77CA62"/>
<path transform="translate(295,413)" d="m0 0 2 4h4l4 6v2l-5-2v-5h-2l-1 3-2-2-1-5z" fill="#5A9436"/>
<path transform="translate(287,408)" d="m0 0 5 1v2l2 1-3 1 1 5h-2v-3h-3l-1-5z" fill="#609D3D"/>
<path transform="translate(472,386)" d="m0 0h2l1 2 2-2 1 3 3 1-5 2-3-1 1-1-8-1v-2z" fill="#263C19"/>
<path transform="translate(624,379)" d="m0 0h4l2 3v5l-3 1v-6l-6-1z" fill="#78CC63"/>
<path transform="translate(359,366)" d="m0 0h1l1 9h5l-3 6-1-2-3-1-1-5z" fill="#223716"/>
<path transform="translate(768,353)" d="m0 0 5 1 2 3-6-1 4 3v2l-6 1 1-3-1-4z" fill="#375522"/>
<path transform="translate(344,356)" d="m0 0h7l-2 2 1 4-3 1-1-3h-2l-1 2z" fill="#72BF57"/>
<path transform="translate(475,345)" d="m0 0v3 4l1 5-4-1-2-2v-3l2-1z" fill="#1C2912"/>
<path transform="translate(609,338)" d="m0 0h1l1 6 4 2v3l-1 2h-3l-2-4z" fill="#71BE57"/>
<path transform="translate(582,339)" d="m0 0h3l2 4v4l-3 1-2-5-2-1v-2z" fill="#73C25A"/>
<path transform="translate(712,324)" d="m0 0h3 2l-2 6 3-2-1 6-3 4-2-10z" fill="#395E21"/>
<path transform="translate(13,771)" d="m0 0h3l2 7-2 4-2-2-2-6z" fill="#2E2C26"/>
<path transform="translate(891,677)" d="m0 0h3v6l-2 7h-3z" fill="#DED9D3"/>
<path transform="translate(1020,652)" d="m0 0 4 1 1 6-4 1-1-1z" fill="#979088"/>
<path transform="translate(968,504)" d="m0 0m-2 1h2l2 4h3 2l-1 5-4-2-5-5z" fill="#2E2C26"/>
<path transform="translate(847,496)" d="m0 0 4 1 1 5 3 1-3 2-3-1-3-4z" fill="#979088"/>
<path transform="translate(892,469)" d="m0 0 3 1-4 7-4 1 2-5z" fill="#14160E"/>
<path transform="translate(247,439)" d="m0 0 4 1v2l-1 1v3l-2 2-3-5v-2h2z" fill="#12130D"/>
<path transform="translate(604,436)" d="m0 0 5 1 1 6h-4l-2-4z" fill="#979088"/>
<path transform="translate(574,436)" d="m0 0 6 2v6l-4-1-2-4z" fill="#979088"/>
<path transform="translate(320,435)" d="m0 0h6l4 4-3 2-5-3-1 2z" fill="#65A543"/>
<path transform="translate(265,418)" d="m0 0 2 3v13l-4-2h-2l1-4h3l1-5-2-1z" fill="#243516"/>
<path transform="translate(300,404)" d="m0 0 3 1 2 2 1 4-1 2-2-1v-2l-5 1z" fill="#6AAF49"/>
<path transform="translate(400,385)" d="m0 0 4 2-1 3 1 3-5 2v-8z" fill="#1D2D13"/>
<path transform="translate(349,379)" d="m0 0h5l1 4-6 2-3-1v-3h3z" fill="#182510"/>
<path transform="translate(412,361)" d="m0 0 5 1 4 6 3 1v3l-5-2-3-2v-2-3l-4-1z" fill="#77CA61"/>
<path transform="translate(484,360)" d="m0 0h3v6l-6 2v-4z" fill="#1C2C12"/>
<path transform="translate(415,345)" d="m0 0 4 1 4 4v2h-6z" fill="#6DB64E"/>
<path transform="translate(512,328)" d="m0 0h5l-4 3-7-1-1 5-4-2 1-3z" fill="#7ED36C"/>
<path transform="translate(0,718)" d="m0 0 4 3 1 5h-2v2h-2l-1-2z" fill="#938C84"/>
<path transform="translate(853,462)" d="m0 0 3 4 1 4-8 1v-3l3-2z" fill="#2E2C26"/>
<path transform="translate(264,449)" d="m0 0h3v2h5l-4 2-9 1 1-3v2l2-1-1-2z" fill="#13140D"/>
<path transform="translate(223,440)" d="m0 0 3 1 2 4-1 4-5-3z" fill="#5F993C"/>
<path transform="translate(418,415)" d="m0 0 5 1 1 3-7 3-7 1v-2h6l1-3 3 1v-2z" fill="#293F1A"/>
<path transform="translate(378,400)" d="m0 0h2v5l-3 1-1 3-4-3h2v-3l4-1z" fill="#70BB53"/>
<path transform="translate(407,382)" d="m0 0h1l1 11h-3l-1-5h2l-1-2h-4l2-2z" fill="#243917"/>
<path transform="translate(404,371)" d="m0 0 2 4 1 6-2 1-2-3-1 2-2-1 2-7h2z" fill="#223616"/>
<path transform="translate(499,363)" d="m0 0 4 2 3 2v3h-3v-2h-2l-1 3-2-1z" fill="#69AD47"/>
<path transform="translate(724,353)" d="m0 0 3 1v3l2 2-4 1-5-3-1-3 5 1z" fill="#43672A"/>
<path transform="translate(494,339)" d="m0 0 5 1-2 4-5-1v2h-3l-1-4 4-1 1 1z" fill="#67A946"/>
<path transform="translate(608,316)" d="m0 0 3 1-1 1 5 3v3l-1-2-6-1-2 4v-4l-2-1z" fill="#72C15A"/>
<path transform="translate(601,302)" d="m0 0 1 4-5 4-9 1 1-2 3-1 2-1 2 1 1-2 3-1z" fill="#979088"/>
<path transform="translate(456,185)" d="m0 0h6l-1 5h-5l-1-4z" fill="#2E2C26"/>
<path transform="translate(655,639)" d="m0 0 4 1 1 4-4 2-2-2z" fill="#DED9D3"/>
<path transform="translate(213,468)" d="m0 0h2l3 4 1 4-4 2v-2h-2l1-4z" fill="#609B3D"/>
<path transform="translate(212,468)" d="m0 0 2 1 1 4h-2v3h2v2l-4 1-2-3h2l-1-4h2z" fill="#518B2B"/>
<path transform="translate(298,432)" d="m0 0 2 1 2 4-3 2-5-1 1-4h2z" fill="#69AE48"/>
<path transform="translate(329,370)" d="m0 0 6 1 1 4-5 3-2-3 1-2z" fill="#65A643"/>
<path transform="translate(743,369)" d="m0 0h6l1 5h-8l2-3z" fill="#334E20"/>
<path transform="translate(657,351)" d="m0 0 5 2 1 4-4 1-4-2 3-1-3-1v-2z" fill="#395426"/>
<path transform="translate(514,329)" d="m0 0 5 2-2 1-1 5-3-3-2-1v-2z" fill="#71BD55"/>
<path transform="translate(217,461)" d="m0 0 4 2h5v2l-3 3-4-1-3-3z" fill="#538E2D"/>
<path transform="translate(266,458)" d="m0 0h5l-1 5h2l1-3 2 4h-8z" fill="#6BB049"/>
<path transform="translate(536,449)" d="m0 0h5l3 5-10-1z" fill="#DED9D3"/>
<path transform="translate(303,437)" d="m0 0 4 1 2 1v2l2 1-5 1-5-5z" fill="#13150D"/>
<path transform="translate(359,433)" d="m0 0h2v2l-5 2-6 1-4-2 6-2z" fill="#599236"/>
<path transform="translate(521,411)" d="m0 0 6 1-1 2h-2l1 3-5 1-1-2z" fill="#82D972"/>
<path transform="translate(368,374)" d="m0 0h12l-1 2-7 1-2-1-4 1-1 2v-3z" fill="#5E9A3B"/>
<path transform="translate(682,367)" d="m0 0 2 2h6v4h-2l-1 2-2-3-2 1-2 2z" fill="#3B5B25"/>
<path transform="translate(400,361)" d="m0 0 3 1 4 6-1 2h-3l-4-7z" fill="#68AE47"/>
<path transform="translate(449,358)" d="m0 0 4 3-2 5-5-3-2-1v-2h4z" fill="#1F3014"/>
<path transform="translate(316,360)" d="m0 0h3l2 4-5 1-1-3-9 1v-1z" fill="#75C75E"/>
<path transform="translate(500,354)" d="m0 0h6v2h-2v2h-3l-2 2-2-1v-4z" fill="#6AB14A"/>
<path transform="translate(584,318)" d="m0 0 3 1 2 3 2 1v4h-6l1-4z" fill="#79CD65"/>
<path transform="translate(440,224)" d="m0 0 2 2 1 4-3 3-3-2 1-5z" fill="#DED9D3"/>
<path transform="translate(1164,521)" d="m0 0h2v2h5v3l-5 1-4-2 2-1z" fill="#9B958D"/>
<path transform="translate(248,464)" d="m0 0 7 1v3l-7 1z" fill="#5C9B38"/>
<path transform="translate(904,464)" d="m0 0 3 1 3 7v8l-2-4-2-6-3-5z" fill="#1A1E11"/>
<path transform="translate(328,420)" d="m0 0 5 1 1 2v10l-2-3v-5l-4-4z" fill="#6EB850"/>
<path transform="translate(389,403)" d="m0 0 2 3 1 3 4 2-2 2h-2l-1 6-2-1z" fill="#243A17"/>
<path transform="translate(431,401)" d="m0 0 1 2 2 1 1 4 5 1-1 3-5-2-4-4z" fill="#6AAF48"/>
<path transform="translate(401,404)" d="m0 0 5 1 2 2-5 1h-2zm3 4 2 1-2 4-3-2h3z" fill="#192611"/>
<path transform="translate(604,400)" d="m0 0 7 1v4h-5z" fill="#83D072"/>
<path transform="translate(446,393)" d="m0 0 5 1v4l-5 1-2-4 2-1z" fill="#69AF49"/>
<path transform="translate(337,384)" d="m0 0 1 2h2l1 8-1 2h-2l-1-7v-2z" fill="#4F842E"/>
<path transform="translate(347,388)" d="m0 0h2l1 9-5-2-1-6z" fill="#192610"/>
<path transform="translate(642,380)" d="m0 0 9 4 1 3-5-1h-4z" fill="#74C55D"/>
<path transform="translate(289,374)" d="m0 0h5l1 1v5l-4-3-3 3v-5z" fill="#273E18"/>
<path transform="translate(740,365)" d="m0 0 3 4-3 1-2 2v-3l-7 1-1-2 3-1h7z" fill="#3A5E22"/>
<path transform="translate(404,361)" d="m0 0 3 1 7 9-2 2-4-4-3-5z" fill="#6AAE48"/>
<path transform="translate(426,363)" d="m0 0h2v2l6 2-1 5-5-4-3-2z" fill="#66A743"/>
<path transform="translate(639,362)" d="m0 0h5l1 5-5 1-1-1z" fill="#2B431B"/>
<path transform="translate(740,318)" d="m0 0h8l7 3-1 3-7-4-5-1v2l-4-2z" fill="#5A963A"/>
<path transform="translate(581,296)" d="m0 0 4 1 4 6h-3v-2l-4 1z" fill="#979088"/>
<path transform="translate(1180,534)" d="m0 0 3 3v2l-8 2 1-5h4z" fill="#979088"/>
<path transform="translate(938,520)" d="m0 0 6 1 1 7-7-6z" fill="#2E2C26"/>
<path transform="translate(280,451)" d="m0 0 8 1-1 2h-3v3l-6-3v-2z" fill="#558F2F"/>
<path transform="translate(1045,437)" d="m0 0 3 2 1 5 1 3h-3l-3-5z" fill="#DED9D3"/>
<path transform="translate(293,425)" d="m0 0h5l1 3h-2v2l-4 1-1-5z" fill="#69AE47"/>
<path transform="translate(200,422)" d="m0 0 3 1 5 5-1 2-4-3-1 2-2-2z" fill="#609A3D"/>
<path transform="translate(246,400)" d="m0 0 1 2-3 7-2-1-2-6z" fill="#191E10"/>
<path transform="translate(343,399)" d="m0 0 2 1v6l6 2-3 1-4 1-1-1-1-9z" fill="#233717"/>
<path transform="translate(631,383)" d="m0 0 1 2 4 2 3 3v3h-2l-3-4-4-2z" fill="#77CA61"/>
<path transform="translate(861,372)" d="m0 0h2l2 8 1 5-3 2-1-7z" fill="#2E2C26"/>
<path transform="translate(338,374)" d="m0 0 3 1v2l2 1h-2l1 3h-3l-2-1v-5z" fill="#181F10"/>
<path transform="translate(765,329)" d="m0 0 4 1 2 2 4 2-2 3h-2l-6-7z" fill="#374F24"/>
<path transform="translate(566,323)" d="m0 0h7l1 3h-4l-1 4-3-5z" fill="#77C960"/>
<path transform="translate(670,319)" d="m0 0 7 6-2 1-1 2-4-5-3-2z" fill="#2C441C"/>
<path transform="translate(467,303)" d="m0 0 4 2 2 3v10l-2-2v-3l-2-1 3-3-3-1z" fill="#DED9D3"/>
<path transform="translate(464,287)" d="m0 0h3v2l4 1 1 4-8-2z" fill="#DED9D3"/>
<path transform="translate(318,116)" d="m0 0h6v4h-6z" fill="#2E2C26"/>
<path transform="translate(280,10)" d="m0 0 4 1-2 5-5-2 1-3z" fill="#2E2C26"/>
<path transform="translate(11,785)" d="m0 0 3 2-1 4v-2h-2l1 4v7h-1l-1-5v-9z" fill="#979088"/>
<path transform="translate(26,710)" d="m0 0 5 2 1 4-8 1 3-1z" fill="#2E2C26"/>
<path transform="translate(715,556)" d="m0 0 5 1-2 4-5-1z" fill="#979088"/>
<path transform="translate(968,554)" d="m0 0h3l3 4-1 3-4 1z" fill="#2E2C26"/>
<path transform="translate(546,542)" d="m0 0 4 1v5h-4l-1-4z" fill="#DED9D3"/>
<path transform="translate(858,363)" d="m0 0 4 4-1 9-2-2z" fill="#5F5F52"/>
<path transform="translate(672,360)" d="m0 0 2 3v3h5l-4 3-4-1-1-4h2l-1-3z" fill="#3A5C23"/>
<path transform="translate(686,355)" d="m0 0h2l-1 5-1 3-2 3-1-2v-6z" fill="#365521"/>
<path transform="translate(387,358)" d="m0 0 8 2-3 3-2 4-2-3h-2v-2l3-1-2-1z" fill="#233817"/>
<path transform="translate(844,343)" d="m0 0h1l1 10-1 3h-2v-10z" fill="#6BB049"/>
<path transform="translate(642,323)" d="m0 0h1v5l-4 3-2-2 3-5z" fill="#2B421B"/>
<path transform="translate(447,306)" d="m0 0 6 1v2l-3 1 2 5-4-1-1-5z" fill="#DED9D3"/>
<path transform="translate(748,308)" d="m0 0h13l3 2-4 1v-2l-3 2h-3v-2h-6z" fill="#36591F"/>
<path transform="translate(1154,503)" d="m0 0m-2 1h2l1 6-3 1-2-3-2-1z" fill="#979088"/>
<path transform="translate(1020,472)" d="m0 0m-1 1m-2 1 4 2 1 3h-4l-2 2v-6z" fill="#212219"/>
<path transform="translate(218,455)" d="m0 0 3 1 1 7-4 1z" fill="#609A3D"/>
<path transform="translate(245,452)" d="m0 0 2 4-4 1v3l-4-1 2-4h3z" fill="#191D10"/>
<path transform="translate(313,431)" d="m0 0h2v5l-2 4-3-1v-5z" fill="#12130D"/>
<path transform="translate(480,418)" d="m0 0h4l1 3-4 1-6-1 1-2z" fill="#6BB149"/>
<path transform="translate(393,411)" d="m0 0 4 1-2 5-4 2v-6z" fill="#181D10"/>
<path transform="translate(336,402)" d="m0 0 4 5-4-1v6l-3-2v-7z" fill="#5E983B"/>
<path transform="translate(491,396)" d="m0 0 5 1h8l3 3-17-1z" fill="#61A03E"/>
<path transform="translate(296,390)" d="m0 0h1l1 11-3 1 1-4h-2v-6z" fill="#273F19"/>
<path transform="translate(357,378)" d="m0 0 6 4-2 1 1 5-1-2-4-2z" fill="#263D18"/>
<path transform="translate(330,377)" d="m0 0h3v6l3 1-2 1v2h-2l-2-7z" fill="#569032"/>
<path transform="translate(549,342)" d="m0 0 2 3 1 6-4-1v-5l-2-1z" fill="#283C1A"/>
<path transform="translate(857,268)" d="m0 0h7l-3 2-9 3-2-1z" fill="#528D2C"/>
<path transform="translate(869,261)" d="m0 0h2l-1 4h-11l4-2z" fill="#85C574"/>
<path transform="translate(435,145)" d="m0 0 4 2-2 3-5-1-1-3z" fill="#DED9D3"/>
</svg>
