<svg xmlns="http://www.w3.org/2000/svg" width="300" height="300" id="adobe-flash-professional-cc"><g><path fill="#ff4a19" d="M0 0h300v300H0z"></path><path fill="#260600" d="M13.233 13.233h273.616v273.616H13.233z"></path><path fill="#ff4a19" d="M108.74 205.479c0 1.233-.329 1.644-1.4 1.644H88.356c-.74 0-1.068-.658-1.068-1.644V73.972c0-1.233.164-1.479 1.233-1.479h68.384c1.068 0 1.4.247 1.562 1.479l1.562 16.685c.164 1.233-.164 1.89-1.233 1.89H108.74v39.206h44.877c1.068 0 1.4.411 1.4 1.479v17.1c0 1.068-.493 1.479-1.4 1.479H108.74ZM214.685 191.178a29.669 29.669 0 0 1-4.356.411c-3.123 0-5.753-1.479-5.753-7.808V71.342h-20.384v113.589c0 20.055 8.055 25.4 19.151 25.4a26.9 26.9 0 0 0 10.931-2.055c1.068-.411 1.151-.822 1.151-2.3v-13.812c0-.822-.165-1.233-.74-.986Z"></path></g></svg>