<svg xmlns="http://www.w3.org/2000/svg" viewBox="0 0 512 512" id="design"><path fill="#373e49" d="M504 100c0-22.3-18.1-40.4-40.4-40.4H47.7c-22.3-.1-40.4 18-40.4 40.4v217.3H504V100z"></path><linearGradient id="a" x1="31.362" x2="479.907" y1="190.826" y2="190.826" gradientUnits="userSpaceOnUse"><stop offset="0" stop-color="#0062ff"></stop><stop offset=".312" stop-color="#006bff"></stop><stop offset="1" stop-color="#007bff"></stop></linearGradient><path fill="url(#a)" d="M479.9 296.9V108.1c0-12.9-10.5-23.4-23.4-23.4H54.8c-12.9 0-23.4 10.5-23.4 23.4v188.8h448.5z"></path><linearGradient id="b" x1="156.98" x2="479.907" y1="190.826" y2="190.826" gradientUnits="userSpaceOnUse"><stop offset="0" stop-color="#004ec9"></stop><stop offset=".64" stop-color="#005cef"></stop><stop offset="1" stop-color="#0062ff"></stop></linearGradient><path fill="url(#b)" d="m227.3 84.7 98.4 98.4 31.5-98.4 122.7 124.2v88H157z"></path><linearGradient id="c" x1="147.495" x2="363.774" y1="450.352" y2="450.352" gradientUnits="userSpaceOnUse"><stop offset="0" stop-color="#c8d6e8"></stop><stop offset=".999" stop-color="#ebf2ff"></stop></linearGradient><path fill="url(#c)" d="M363.8 511.5c-29.5-31.4-45.9-72.9-45.9-116v-6.3H193.4v6.3c0 43.1-16.4 84.6-45.9 116h216.3z"></path><linearGradient id="d" x1="7.269" x2="504" y1="368.371" y2="368.371" gradientUnits="userSpaceOnUse"><stop offset="0" stop-color="#c8d6e8"></stop><stop offset=".999" stop-color="#ebf2ff"></stop></linearGradient><path fill="url(#d)" d="M7.3 317.3V379c0 22.3 18.1 40.4 40.4 40.4h415.8c22.3 0 40.4-18.1 40.4-40.4v-61.8H7.3z"></path><linearGradient id="e" x1="277.743" x2="277.743" y1="511.872" y2="419.478" gradientUnits="userSpaceOnUse"><stop offset=".196" stop-color="#c8d6e8"></stop><stop offset=".479" stop-color="#c6d4e5"></stop><stop offset=".652" stop-color="#c0cddd"></stop><stop offset=".796" stop-color="#b6c0cf"></stop><stop offset=".923" stop-color="#a7afba"></stop><stop offset=".999" stop-color="#9ba1aa"></stop></linearGradient><path fill="url(#e)" d="m191.7 419.5 92.4 92.4h79.7s-37.6-37.4-44.2-92.4H191.7z"></path><circle cx="255.6" cy="362.3" r="17" fill="#aeb4c1"></circle><path fill="#f4ba73" d="M357.2 45.5v1h-62v-1l31-47.5 31 47.5z"></path><path fill="#d84200" d="M295.3 45.4h62v251.5h-62z"></path><path fill="#282d35" d="M314.3 16.4h23.9L326.2-2z"></path><path fill="#e84d00" d="M319.3 45.4h12.9v250.3h-12.9z"></path><path fill="#ffb600" d="M157 7.3h70.3v289.6H157z"></path><path fill="#ff9100" d="M157.1 20.9h29.1V34h-29.1zM157.5 45.5h39.6v12.7h-39.6zM157.1 71.5h27.8v13.1h-27.8zM157.5 96.1h40.2v12.7h-40.2zM157.1 122.3h27.8v13.1h-27.8zM157.5 146.9h39.6v12.7h-39.6zM157.6 172h27.7v13.1h-27.7zM157.5 197.6h40.2v12.7h-40.2zM157.1 222.8h27.8v13.1h-27.8zM157.8 272h27.5v13.1h-27.5zM157.5 247.4h39.6v12.4h-39.6z"></path></svg>