<?xml version="1.0" encoding="UTF-8"?>
<svg version="1.1" viewBox="0 0 1600 722" width="1280" height="1280" xmlns="http://www.w3.org/2000/svg">
<path transform="translate(0)" d="m0 0h1600v722h-1600z" fill="#6637FC"/>
<path transform="translate(1156,23)" d="m0 0h47l2 1 1 7 63 1 9 3 6 6 4 13v23l-2 2h-19l1 2v48l-5 1h-37l-2-7h-23l-2 7-25 1-1 50h26l1-7 1-1 16-1 7 1 1 1v7h101l1 1v48l-1 1 14 1v47l-1 1h-46v5l-4 3h-2v111l-1 112h-429v22h63l9 4 6 5 4 7 1 4v9h-259v-11l5-9 7-6 7-3h63l-1-80h-276l-6-4-2-7-1-215-6 7-10 6-7 2-7-8-11-7-9-3h-18l-14 5-8 6-8 9-5 12-2 8v10l4 14 6 9 5 6 10 6 11 4 16 2-2 2-9 3h-21l-12-4-11-7-1 4-10 18-2 5-2 1h-31l-14-3-4-9-7-20-3-8-12-37-5-20-8-30-2-13v-12l3-12 6-10 4-5 10-7 5-2 10-1 5-1 7-8 5-2h9l7 4 6 7 8 16 6 16 8 30 3 13v4l14-7 9-3h15l14 3 2 1-3-15-4-17-5-12-9-19-12-17-9-10-6-5 3-1 12 5 9 5 4 1 14-7 15-4h24l15 5 6 3v-60l4-6 4-2h643l5 3 3 5v157h-311v22h329v-228z" fill="#1D2445"/>
<path transform="translate(1295,434)" d="m0 0 2 4 2 31 4 19 2 7 1 8 1 20-2 3 11-1 5-1h8l-4 2-26 10-7 6h-2l1 7 9 2 18 1 6 1h44l38-1h59l26-1 32-1h23l30-1 12 1 12-2v174h-1084v-24l10-4 28-9 10-1 216 2 130 2 13-5 20-9 121-53 87-38 60-26 1-25h-31l-263-3-61-1v-17h430v-56l3-7 1-6h2l1-7z" fill="#3477FE"/>
<path transform="translate(307,363)" d="m0 0 10 1 18 3 22 7 13 6 16 8 15 9 14 11 12 11 9 11 9 14 6 15 4 17v139l4 9 6 5 4 2h11l19-6h2l-2-10h24l19-8h3v-3l9-1 14-6 5-2 1-2 10-2 19-8 1-2h-28l-19 8h-3v3l-9 1-19 8h-2v2l-10 2-13 6h-5l-7-6v-6l13-6 25-10 16-6 22-9h17l90 7 15 1v1l-16 2-11 2-13 2h-35l-13 5-6 3h-3v2l-9 2-19 8-2 2-10 2-14 6-13 6 12 9 5 5v2h2l6 11 3 9v17l-5 15-5 3-24 8-1 24h-361l-2-6-8-52-5-42-3-35-2-29-1-42 1-43 1-20h2v-10l2-5 3-1 8 1 1 1 7 1 8 6 6 3h11l21 4 6-1 16-2h14l10-5 5 1 8-4 1 3 10-2 3-2 7 1 8 6 5-1v-7l2 3 6 16 8 16 11 12 12 9 15 9 16 10 12 12 9 15 8 17 5 17 3 21v22l-5 32-1 6 10-25 4-13 3-16v-34l-4-17-8-16-10-13-9-9-11-9-14-12-10-9-11-14-8-14-8-19-6-19-7-33-3-18z" fill="#7963C6"/>
<path transform="translate(486,65)" d="m0 0h643l5 3 3 5v157h-212l-28-1v-1l29-1 19-1 27-4 7-5 11-2 4-4h2l1-5 7-6 1-5 2-5 3-4 1 18 52-1v-19l-1-1-42-1-1-3 43-1 1-1 1-22-1-3 1-19 4 4 3 5 2 9 1 3 6 1 4 1 1-4-3-1-1-4 7-2 9-4 5-3h2l1-7 4-3 5-16 2-9-1-13-8-5-113-1 2 4 7 1h25l6 1v1l-44 1-6 1-1 19h-2l-1-20-50-1v-1l31-2h13l3-1v2h4v2l7-1-1-5-6-1v2h-3v-2l-340 1-98-1h-30l-7 2-5 6-1 2v59l1 6v18l-1 5-1 91 9 1 9 3 24 6 48 14 21 6 20 6 16 5 33 11 24 9 23 9 12 5 9 4 33 16 20 9 2-5 11-13 14-14h2v35l-63 1-3 2v20l66 1v72l-51 7-12 1-1-31h-276l-6-4-2-7-1-215-6 7-10 6-7 2-7-8-11-7-9-3h-18l-14 5-8 6-8 9-5 12-2 8v10l4 14 6 9 5 6 10 6 11 4 16 2-2 2-9 3h-21l-12-4-11-7-1 4-10 18-2 5-2 1h-31l-14-3-4-9-7-20-3-8-12-37-5-20-8-30-2-13v-12l3-12 6-10 4-5 10-7 5-2 10-1 5-1 7-8 5-2h9l7 4 6 7 8 16 6 16 8 30 3 13v4l14-7 9-3h15l14 3 2 1-3-15-4-17-5-12-9-19-12-17-9-10-6-5 3-1 12 5 9 5 4 1 14-7 15-4h24l15 5 6 3v-60l4-6z" fill="#29343A"/>
<path transform="translate(1156,23)" d="m0 0h47l2 1 1 7 63 1 9 3 6 6 4 13v23l-2 2h-19l1 2v48l-5 1h-37l-2-7h-23l-2 7-25 1-1 50h26l1-7 1-1 16-1 7 1 1 1v7h101l1 1v48l-1 1 14 1v47l-1 1h-46v5l-4 3h-2v111l-1 112h-129l-22-1-13-2-7-2-6-10-3-2-10-2-5-4-2-7-2-1-2-3-2 3h-4l-2-2-1-8 2-7 2-9 2-6h-2l-1 4h-2l-1 6-3 4h-2l1-7 2-8 1-2h-3l-2 3h-2l-3-3-4 1-6-2-5 1-9-2-6-1-48-1h-27l-7-1v-4l13-1 25-1 8-1 3-1 22-1 15-3 3-2h3l1-4v-8l-1-5-6-2v-4l4-1 6 1v-4l-8-2v2h-4l1 6-4-1v-3h-2v-2l-6-1-1-1-7-1h-16l-3-3v-2l-7-1-1-28-3-3h-6l-3 2-1 3-1 25h-7l-1-25-3-5h-8l-4 5-1 25h-8l-6-5-1 5h-8l-1-3-4 3h-10l-6-5-2-7-1 8-5 3-4 1h-17l-9-4-7-8-3-10v-8l4-11 4-5 7-5 7-2h15l6 2 2 2 12 4 4-1h19l2 1v7h-2l2 2 1-3h8l2 4 5-3h11l6 4 7-4h8l5 3 2 2v3h3l-1-6 1-2h6l3-1 2 1v2l10-4-3-2 13-1 3 1 2 3 5 3 4 1 1-2h2l2-6-2-9-6-5-8-1-2-1-14-1h-19l-10-1 1-3 5-1h32l20-3 6-2-2-4-12-3-29-1h-35l-13-1v-3l2-1 55-1 19-1h19l13-3 5-2-4-2-9-2-38-2h-44l-7-1h-18l-2-1v-3l2-1h22l58-1 13-1h9l16-2 10-3 1-3-21-3-6-1-1-2 5-1 4 1 3-1 16-1 11 1 13-2 24-1 5 1h7l1-1h9v-243z" fill="#56337E"/>
<path transform="translate(502,524)" d="m0 0h50l189 2 22 1v6l-63 1-10 5-5 6-3 6-1 11h259l-2-13-6-9-9-5-3-1-63-1v-5h61l263 3 31 1v25l-15 7-25 11-80 35-112 49-39 17-27 12-4 1-130-2-222-2-13 3 5-16v-17l-4-12-4-6v-2h-2l-7-8-11-8 3-2 11-5 17-7 7-1 4-3 20-8h6v-2l22-9h35l21-3 11-2-32-3-65-5h-17l-29 12-16 6-30 12-1 6 4 2 3 3h5l13-6 3-1h7v-2l21-9 5-1 4 1v-3l22-9 28 1-1 3-11 5-10 4h-8l-2 4-12 4-6 3h-9v3l-12 5-10 4h-19l-5-1 2 5v5l-21 7h-11l-8-5-5-6-2-6v-70l40-18z" fill="#FDFDFD"/>
<path transform="translate(409,223)" d="m0 0h18l13 5 10 8 4 5 9-3 9-6 5-7h1l1 217 2 7 5 3 276 1 1 4v70l-122-1-89-1h-50l-21 9-25 11h-2v-69l-4-17-6-15-9-14-12-14-10-9-18-13-16-9-21-9-8-3-15-5-28-5 8 41 5 21 7 20 9 19 10 14 11 12 11 9 14 12 10 9 9 10 7 11 5 11 4 17v34l-4 20-7 20-7 16-1-4 4-21 2-15v-22l-3-21-5-17-10-21-8-12-10-10-12-8-9-5-17-11-10-9-7-8-8-16-6-16-1 5-5 1-8-6-7-1-3 2-10 1-2-2-8 4-4-1-10 5h-14l-16 2-6 1-21-4h-11l-9-5-5-4-7-1-1-1-9-1-2 1-2 14h-1v-12l3-32 4-29 6-34 4-20 5-16 4-14 6-17 9-15 7-7 10-4h24l18 4 14 6 12 8 11 10 9 12 9 17 8 22 3 12 2-3 2-7 9 1 7 1h33l3-9 9-15 1-3 5 2 8 5 10 3h21l9-3-14-2-11-4-10-6-8-9-5-10-3-11v-10l4-14 6-10 9-9 7-4z" fill="#4A69FE"/>
<path transform="translate(1305,329)" d="m0 0 3 4 3 6v3l5-1 3 1 2 6 15-1 6-2 6-1 6 2 5 2 9-5 13 1h167l18-2 3-1h8l6 1 4-1v-2h2v-2l5-1 2-4 4 2v214l-5 2-10 1-10-1-33 1h-22l-32 1-33 1h-50l-37 1h-44l-6-1-18-1-9-3-1-7 8-6 8-4 19-7-9 1-5 1h-7l2-5-1-19-2-14-2-5-3-15-2-31v-21l2-33 1-32 3-12z" fill="#4969FE"/>
<path transform="translate(1154,252)" d="m0 0h1v15l-9 1-1 1h-7l-10-1-21 1-11 2-12-1-15 1-6 1-4-1-1 1 13 2 15 2-1 4-3 2-16 3-9 1h-11l-17 1-54 1h-21v3h24l9 1h40l36 2 12 3 3 3-9 3-13 2h-23l-21 1-47 1-2 2 15 1h43l19 1 12 3 2 5-6 3-20 3h-37v2l9 1h22l11 1 12 3 5 5 2 11-3 4h-2l-1 3-4-1-5-3-2-4-13 1 4 2-9 2-5 1-3-2-3 1-5-1v8h-3l-3-5-4-2h-8l-8 4-5-4h-11l-6 3-1-4-8-1-1 4-2-1v-2h2v-7h-21l-6 1-6-3-6-1-1-3-5-1h-15l-8 3-6 4-5 8-2 7v8l3 10 6 7 9 4h17l8-3 2-12h1l2 11 5 4h10l5-3v4h8v-22h1l1 17 4 2 1 2 8 1v-25l5-6h8l3 3 1 3v25h7v-25l3-5 2-1h6l4 4v28h8v5h18l7 1 7 3v2h2v3l4-1-2-1 1-3h4v-2h5l3 2v4h-10l1 3 5 3 2 5v10h-2v2l-7 3-14 3-22 1-6 2h-15l-20 1h-8l1 3 11 1h35l37 1 10 2 4 1 4-1 7 2 3-1 3 2v2l5-5v2h2l-2 10-2 7 4-4 2-6 2-1 1-3h2v5l-4 14-1 8 2 4 2 1 1-2h2v-2l3 1 4 7v4l4 2 3 2 8 1 5 4 3 5 1 4 10 2 12 1 20 1v1h-300v22h63l9 4 6 5 4 7 1 4v9h-259v-11l5-9 7-6 7-3h63v-49l12-2 43-6h8v-72h-64l-3-3v-18l4-3h63l-1-36 12-10 17-12 7-4 9-2 9-5 6-8 2-7v-11l-5-10-5-5-8-3 1-2-3-3 3-1h23l13-1 75-3 18-1 9-1 16-1z" fill="#452E6F"/>
<path transform="translate(495,182)" d="m0 0h1v91l9 1 9 3 24 6 48 14 21 6 20 6 16 5 33 11 24 9 23 9 12 5 9 4 33 16 20 9 2-5 11-13 14-14h2v35l-63 1-3 2v20l66 1v72l-51 7-12 1-1-31h-276l-6-4-1-2v-247l12-11z" fill="#1C2444"/>
<path transform="translate(510,83)" d="m0 0h30l101 1h140l4 1 19 1 7 3 5 1 49 1 3 2v20l-5 1 4 2-3 2-16 3-21-1-12-3-17 1h-4l-1 3h-8l-22-3-7-2h-3v2l-5 2-11 2-4 4-1 2-11 1-2 1 11 2h52v21l-4 1h-48l-1-3h-2l-3 3-50 1-3 2-1-2h-37v1l36 1v1l-52 1-2 14-1 2 1 8-4 12-5 2-1 3h-2v2h-2v3l-5 2-3 1-2 6-4 4-7 4-9 4-12 8-5 4-12 6-10 7-2 1 1 2 11-1 9-2 6-4 34-13 7-3 13-4 6-1v4l-8 4-15 10-27 14-28 11-16 4 1 1 17 2 2 1 9 1 10 2 12 3 17 3 25 6 15 4 32 9 45 15 17 6 12 5 18 7 11 5 24 11 4-5 14-20 25-38 3-7 5-9 8-7 8-3h10l10 4 7 7 4 9v11l-3 9-7 8-11 5-7 2-12 7-17 13-13 12-5 6-5 4-10 13-1 2-5-1-33-16-18-8-13-6-16-6-12-5-15-6-36-12-11-4-21-6-26-8-26-7-21-6-26-7-12-3-7-2-3-1v-91l1-5v-18l-1-6v-59l4-6 5-4z" fill="#242A6C"/>
<path transform="translate(195,253)" d="m0 0h24l18 4 14 6 12 8 11 10 9 12 9 17 8 22 3 12 2-3 2-7 9 1 7 1h33l3-9 9-15 1-3 5 2 8 5 10 3h21l16-6 16-8 3-2v38l-4 11-9 10-8 4-9 2h-35l-5 15-5-1-15-6-8-3-15-5-28-5 8 41 5 21 7 20 9 19 10 14 11 12 11 9 14 12 10 9 9 10 7 11 5 11 4 17v34l-4 20-7 20-7 16-1-4 4-21 2-15v-22l-3-21-5-17-10-21-8-12-10-10-12-8-9-5-17-11-10-9-7-8-8-16-6-16-1 5-5 1-8-6-7-1-3 2-10 1-2-2-8 4-4-1-10 5h-14l-16 2-6 1-21-4h-11l-9-5-5-4-7-1-1-1-9-1-2 1-2 14h-1v-12l3-32 4-29 6-34 4-20 5-16 4-14 6-17 9-15 7-7z" fill="#6B67DB"/>
<path transform="translate(786,132)" d="m0 0h52l1 4h2l1-4h52l1 1v20l-10 1 12 1 13 3 7 3-1 14-2 2-16 2-12 2 8 1 1 1v20l-1 1h-51l-1-1v-21l-4-1v-1h-23v1l22 1 2 2v19l-1 1-49 1v2l9 3 5 3h11l3-2h13l9 5-1 6-4 4-7 2-6 3-2 6-6 1-5-4-6 1-4 4-2 9-6 6-12 2-7 1-7 6-4 7-8 8-6-3-6 5-1 2h-2l-1 4-8 7-7 3-21 2-7 3 1 4 17 9 8 4 8 1v2h5l2 6-4 2-20-7-13-5-27-9-22-6-24-7-18-4-15-4-17-3-12-3-19-3-10-2-14-2 4-2 16-4 28-11 22-11 16-10 9-6h3v-4l-10 3-12 4-13 6-18 6-12 6-3 2-15 2h-5l1-4 11-7 9-5 8-5 10-7 9-5 7-3 4-3h2l2-6 5-5h4v-3h2v-2l2-2 2-3 4-2 2-9 1-2-1-8 1-1 2-14 4-3 8-1v-1h43l1 2 2-2 52-1v-18h1v16h2l1 2h55v-19z" fill="#1F2751"/>
<path transform="translate(307,363)" d="m0 0 10 1 18 3 22 7 13 6 16 8 15 9 14 11 12 11 9 11 9 14 6 15 4 17v139l4 9 6 5 4 2h11l19-6h2l-2-10h24l19-8h3v-3l9-1 14-6 5-2 1-2 10-2 19-8 1-2h-28l-19 8h-3v3l-9 1-19 8h-2v2l-10 2-13 6h-5l-7-6v-6l13-6 25-10 16-6 22-9h17l90 7 15 1v1l-16 2-11 2-13 2h-35l-13 5-6 3h-3v2l-9 2-19 8-2 2-10 2-14 6-13 6 12 9 5 5v2h2l6 11 3 9v17l-5 15-5 3-24 8-1 24h-147l1-5 11-23 9-17 5-12 6-12 9-24 4-15 2-11v-34l-4-17-8-16-10-13-9-9-11-9-14-12-10-9-11-14-8-14-8-19-6-19-7-33-3-18z" fill="#222223"/>
<path transform="translate(1211,533)" d="m0 0h1v24l-15 7-25 11-80 35-112 49-39 17-27 12-4 1-130-2-222-2-13 3 5-16v-17l-4-12-4-6v-2h-2l-7-8-11-8 3-2 11-5 17-7 7-1 4-3 20-8h6v-2l22-9h35l21-3 11-2 14-1 42 4 60 4 44 4 6 1v25l-18 5-11 3-9 2-36 9-11 2-15 4-16 4h-9l-2-1 1 2v9l-4 6-1 1h-6l-4-5-4-12v-2l-11-1-2 4-6 7-11 7-6 2h-19l-12-5-3-2-5 1-11 6 44 1 167 2h88l43-19 30-13 41-18 80-35 30-13 41-18 30-13z" fill="#FDCBBA"/>
<path transform="translate(70,520)" d="m0 0h7l4 2h26v4l9-2 5-2 6-1 7 7 6 84 5 44 7 47 3 16v3h-155v-195l7-3h4l12 1 6-2 31-1z" fill="#4969FE"/>
<path transform="translate(152,334)" d="m0 0 1 3-6 31-5 33-3 28-2 24-1 20-1 45v24h-1l-1-14-4-4v-2l-10 1-9 4-4-1-1-3h-24l-4-2h-7l-10 2-31 1-6 2-12-1h-4l-7 2v-187l4 2v-2l3 1 5 6 4-2 2 2h13l12-2 8-1v2l14-3 4 1 26 1 12-4h3l2 2 2 1h12l2 4 10-3v-2l3-2 5 1 2-3h2l1-4z" fill="#5260FE"/>
<path transform="translate(486,65)" d="m0 0h643l5 3 3 5v157h-212l-28-1v-1l29-1 19-1 27-4 7-5 11-2 4-4h2l1-5 7-6 1-5 2-5 3-4 1 18 52-1v-19l-1-1-42-1-1-3 43-1 1-1 1-22-1-3 1-19 4 4 3 5 2 9 1 3 6 1 4 1 1-4-3-1-1-4 7-2 9-4 5-3h2l1-7 4-3 5-16 2-9-1-13-8-5-113-1 2 4 7 1h25l6 1v1l-44 1-6 1-1 19h-2l-1-20-50-1v-1l31-2h13l3-1v2h4v2l7-1-1-5-6-1v2h-3v-2l-340 1-98-1h-30l-7 2-5 6-1 2-1 58-4-4-7-8-6-5v-64l5-5z" fill="#171339"/>
<path transform="translate(1156,23)" d="m0 0h47l2 1 1 7 63 1 9 3 6 6 4 13v23l-2 2h-19l1 2v48l-5 1h-37l-2-7h-23l-2 7-25 1-1 50h26l1-7 1-1 16-1 7 1 1 1v7h101l1 1v48l-1 1-16 1h-84l-2-7-24-1-1 7-19 1h-6l-1 48 25-1 3-6 1-1h20l3 2 1 5 9 1v12l-1 1h-79v-269z" fill="#B05A22"/>
<path transform="translate(295,512)" d="m0 0h14l10 5 10 9 7 8 8 13 6 16 2 9v32l2 4 4 4 4-4 7-4 11-6 10-1v2h2l4 9h6v2h2v16l-4 25-1 9-27 54-3 8h-93l-7-15-11-21-12-19-13-17-12-14-15-15 2-2v-2l-5-7 4-1 6 2 7-3h18l4-2 2-3 10-2 6-3 5 1 8 4v-2h2v-6l1-1-1-5-1-14v-21l2-14 3-11 7-11z" fill="#924FA3"/>
<path transform="translate(1295,434)" d="m0 0 2 4 2 31 4 19 2 7 1 8 1 20-2 3 11-1 5-1h8l-4 2-26 10-7 6h-2l1 7 9 2 18 1 6 1h44l38-1h59l26-1 32-1h23l30-1 12 1 12-2v33l-1 1-13-1-31 1-47 1-12-1h-135l-66 1-13 1-17-1-10-2-6-1-4 1-6-1-3 2-9 1-5 1 1-10 4-3h2v-2l21-12 10-6 3-1 1-4-10 2-2-4-4-1h-7l-7 1-2-1-11-1-6-5h-1l-1 20h-1v-25h-31l-263-3-61-1v-17h430v-56l3-7 1-6h2l1-7z" fill="#3972FB"/>
<path transform="translate(1305,329)" d="m0 0 3 4 3 6v3l5-1 3 1 2 6 15-1 6-2 6-1 6 2 5 2 9-5 13 1h167l18-2 3-1h8l6 1 4-1v-2h2v-2l5-1 2-4 4 2v63l-7 10-7 5-13 2-5-1h-201l-8 2h-12l-3 1h-7l-6-2-6 1-2 1h-6l-2-5-6 1-2 6-2 2-2 6h-2l-1 8-1 7-2 1-1-4v-21l2-33 1-32 3-12z" fill="#5E53FF"/>
<path transform="translate(1599,397)" d="m0 0h1v70l-7 5-8 4-4 1h-17l-32 1h-198l-20 3h-4v-2l-3 2-2 8-3-1-4-19-1-16v-11l1-1 3-15h2l2-9 6-6h4l2 4h6l4-2 7 1 3 1h7l9-1 10-1 4-1h201l6 1 12-2 8-6z" fill="#5360FF"/>
<path transform="translate(962,666)" d="m0 0h5v3l12 1h13l23 2 7 2 15 1 8 6 7 2 1 3-33 17-24 11-19 8h-461v-24l10-4 28-9 10-1 216 2 130 2 13-5 20-9z" fill="#19BAFD"/>
<path transform="translate(1176,572)" d="m0 0h3v150h-202l4-3 26-11 29-14 15-8h2l-3-3-6-2-7-5-15-1-7-2-23-2h-16l-9-2v-3l-3-1 36-16 30-13 41-18 80-35z" fill="#2186FE"/>
<path transform="translate(274,542)" d="m0 0h1v33l1 14 1 5v8l-4-1v2l-7-2-2-2-6 1-4 2-10 2-3 4-4 1h-17l-9 3-4-2h-3l6 8-1 4-2-2 6 7 12 12 9 11 13 17 13 21 11 21 5 13h-121l-2-6-8-52-5-42-3-35-1-17v-26l6 9h10l3-1 13 4 4 2h17l10 3 10 1 13-2 1-1 12-1 17-6 5-1 10 1 3 2 3-5z" fill="#8359B4"/>
<path transform="translate(495,182)" d="m0 0h1l1 92v127l1 11 5 5 2 1 137 1h69l47-1 36-1 1-3 4-1-3-3-10-3-14-1v-1h53v71l-50 7-12 1-1-31h-276l-6-4-1-2v-247l12-11z" fill="#171339"/>
<path transform="translate(195,253)" d="m0 0h24l18 4 14 6 12 8 11 10 9 12 9 17 8 22 3 12 2-3 2-7 9 1 7 1h33l3-9 9-15 1-3 5 2 8 5 10 3h21l16-6 16-8 3-2v38l-4 11-9 10-8 4-9 2h-35l-5 15-5-1-15-6-8-3-15-5-28-5 8 41 5 21 7 20 9 19 10 14 11 12 11 9 14 12 10 9 9 10 7 11 5 11 4 17v34l-4 20-7 20-7 16-1-4 4-21 2-15v-22l-3-21-5-17-10-21-8-12-10-10-12-8-9-5-17-11-10-9-7-8-8-16-9-24-3-12-3-17-3-13-7-33-7-21-8-18-7-10-4-5-13-9-15-6-23-6-31-7v-4l7-11 8-7z" fill="#EFF4EC"/>
<path transform="translate(1201,660)" d="m0 0 2 4 1 4 8 4 1 4h2l4 5 7 1 17-3 6 1h139l30-1h135l5 1h29l8-3h5v45h-400v-61z" fill="#2187FF"/>
<path transform="translate(1197,563)" d="m0 0h3v37h2l2 12 2 3h6v2h7l3-1 5 1 9-3 9 1 7-1 29 2 13 3h18l37-4 35-2 2 2-20 2-23 3-43 8-37 9-43 12-3 2-1 6 4 5 10-3h8l9 2 16 1h298l22 2v-3h2l-1-3 3-4v-2l-6-2-25-11-36-12-40-9 1-2h15l21 3 2 1v-2l-4-1-2 1 1-3 38-3h7l10 1 12-1h19v65l-13 4h-29l-7-1h-142l-21 1h-139l-8-1-15 3-7-1-1-3-3-1v-2h-2l-1-4h-4v-2l-5-2-2-7-1 61h-21v-151z" fill="#247EFF"/>
<path transform="translate(1211,533)" d="m0 0h1v24l-15 7-25 11-80 35-112 49-39 17-27 12-4 1-130-2-216-2-5-1 3-2 20-8 22-10 7-3h47l167 2h88l43-19 30-13 41-18 80-35 30-13 41-18 30-13z" fill="#B3BEC5"/>
<path transform="translate(994,84)" d="m0 0h114l8 6 1 13-5 19-3 7-3 2-2 7-10 6-12 3 1 4 2 1-1 6-1-2-9-2-2-3-3-11-4-6-1 19 1 7-1 17-1 1h-52l-4-2v2h-52l-1-1v-18-2-4l-5 2-44-1-7-2v-19l1-1 10-1v-1l10-1h10l30-3v-3h3v-2h7l1 1h8l8-3-3-3h-49l-6-1-1-3v-19l1-1h52l1 2v18h2v-19l7-2 38-1h-25l-7-1-2-2z" fill="#1D2445"/>
<path transform="translate(409,223)" d="m0 0h18l13 5 10 8 4 5 9-3 9-6 5-7h1v203l-4-2-3-5-2-1v2l-7 1-9-3h-19l-7-3-5-4v-2l-7-2-17-13-19-11-3-2h2l2-10 3-6h35l12-3 8-6 6-8 3-9v-37l-9 6-14 6-16-2-11-4-10-6-8-9-5-10-3-11v-10l4-14 6-10 9-9 7-4z" fill="#5E52FE"/>
<path transform="translate(497,273)" d="m0 0 8 1 9 3 24 6 48 14 21 6 20 6 16 5 33 11 24 9-4 3-24-2-8-2-2 5-5 5-4 3-27 5-7 3-10 6-1 3-5 4-3 5-6 5-2 3h-2l-3-9 1-4 10-13 4-8v-6l-8 1-16 8-5 4-1 3 6 2v2h2l-2 4-10 10-8 7-11 9-5 1-2-6-4 2-6 9-1 8 9-1 16-8 13-10 12-11h2v-2h2v9 3l2 1v6l-5 6-12 4-4 2-1 2-11 4-13 6-3 1-1 3h-32l-6-4-2-3-1-13v-125z" fill="#1E2750"/>
<path transform="translate(1201,122)" d="m0 0h23l2 7 92 1h124l2 2v48l-3 1h-216l-1-7-14-1-9 1-2 7h-26v-50l1-1h25l1-7z" fill="#2858BC"/>
<path transform="translate(1286,291)" d="m0 0h1v108l-1 109-9 1-7-1-8-3-2-3-6-2-2-5h-7l-7-2v-3h-2l-2-6h2l1-6 4-8 3-5 1-11-1-1-2-9-1-1v-10l4-6 2-4 5-2-1-8-5-7-2-5-8-11-1-10v-16h-2v25l-1 1h-5v2l2 1-3 5-8 7-7-1v-3l-6 2h-14l-5-3 1-5 7 1h9l4-2 2-4v-4l-7 3h-7l-7-4-4-6-1-4v-11l4-8 5-4 5-2 6-1 3-3 18-2 6-1 10-6 6-8 1-2h2l2-5 4-4h2v-2l8-7 10-7 6-3h4z" fill="#633790"/>
<path transform="translate(883,336)" d="m0 0h15l6 2 2 2 12 4 4-1h19l2 1v7h-2l2 2 1-3h8l2 4 5-3h11l6 4 7-4h8l5 3 2 2v3h3l-1-6 1-2h6l3-1 2 1v2l10-4-3-2 13-1 3 1 2 3 5 3 4 1 1-2h2l1-3 2 2 2 13v18l2-3 1-42 8-1h14l11 4 5 4 3 5 2 7v11l-3 9-5 7-8 4-5 2h-15v2l7 1-2 3 9 4 5 2-1 14-3 7-1 2-5-1-3-2-1-1-2 7-6-2h-2l2 4-2 2h-15l-5-2 3-3h3l1-4v-8l-1-5-6-2v-4l4-1 6 1v-4l-8-2v2h-4l1 6-4-1v-3h-2v-2l-6-1-1-1-7-1h-16l-3-3v-2l-7-1-1-28-3-3h-6l-3 2-1 3-1 25h-7l-1-25-3-5h-8l-4 5-1 25h-8l-6-5-1 5h-8l-1-3-4 3h-10l-6-5-2-7-1 8-5 3-4 1h-17l-9-4-7-8-3-10v-8l4-11 4-5 7-5z" fill="#4C337C"/>
<path transform="translate(295,512)" d="m0 0h14l10 5 10 9 7 8 8 13 6 16 2 9v31l-4 15-7 15-10 18-11 17-6 5-5 2h-8l-8-4-5-7-5-20-6-37-3-32v-21l2-14 3-11 7-11z" fill="#F3F7F7"/>
<path transform="translate(152,334)" d="m0 0 1 3-6 31-5 33-3 6-4 2-5 1-4 3-7 2-1 1-11-1-2-1 1-5 2-5-6 2-3-3-16-1-5-1-11 4-9 3-4 3h-2v2l-2 1-14 1-10 3h-9l-7-5v-2l-3-1v-2l-7 3v-71l4 2v-2l3 1 5 6 4-2 2 2h13l12-2 8-1v2l14-3 4 1 26 1 12-4h3l2 2 2 1h12l2 4 10-3v-2l3-2 5 1 2-3h2l1-4z" fill="#5D53FE"/>
<path transform="translate(171,277)" d="m0 0 45 10 21 7 12 7 8 7 7 10 8 16 7 19 2 7-1 7-3 3v-2l-4 2-6-3-5 1-4 1-7-1h-3l-4 1h-4l-3 1-8-3-3 3-10-1-2 2-9 2h-25l-10-6-10 1-10-4-2-3 2-15 4-20 5-16 4-14 6-17z" fill="#5978E7"/>
<path transform="translate(209,624)" d="m0 0 7 6 9 9 9 11 13 17 13 21 11 21 5 13h-121l-2-6-8-52-2-15v-14l4 5 3 2 5-2 3 1 2-4 7-1v2l8-1h7l11 3 7-1 11 2-1-7 2-1z" fill="#623790"/>
<path transform="translate(82,659)" d="m0 0 3 2 9 1 1 3 8 1h17l12 2 1-2 10-5 3 3 8 52 1 6h-155v-53l14-6 16-2h35l13-1z" fill="#2186FE"/>
<path transform="translate(573,247)" d="m0 0 3 1v3l2 1-16 8-23 9-16 4 1 1 17 2 2 1 9 1 10 2 12 3 17 3 25 6 15 4 32 9 45 15 17 6 12 5 18 7 11 5 24 11 4-5 14-20 25-38 3-7 5-9 8-7 8-3h10l10 4 7 7 4 9v11l-3 9-7 8-11 5-7 2-12 7-17 13-13 12-5 6-5 4-10 13-1 2-5-1-33-16-18-8-13-6-16-6-12-5-15-6-36-12-11-4-21-6-26-8-26-7-21-6-26-7-12-3-9-3v-2l31-8 30-10z" fill="#F8F9FA"/>
<path transform="translate(670,159)" d="m0 0h3v19h51l-1 2 1 3h-51l-3-1v-3l-20 1v1l19 1v1l-52 1v20h27l5 1-1 2h14l4 2 1-4 5 1 1 3h2v3h2l-1 5 2 4h7l2 3v6l-9 6-7 3 3 2 8-1 1 3-10 4h-3l-2 4-6 2-7 4-7 13-8 3-7-2-5 1-6 3-3-1-8 2-2 1 1 4 15 5h7l1 4 9 5 19 6 8 4-1 2-9-2-28-8-19-5-26-6-12-2-12-3-19-3-10-2-14-2 4-2 16-4 28-11 22-11 16-10 9-6h3v-4l-10 3-12 4-13 6-18 6-12 6-3 2-15 2h-5l1-4 11-7 9-5 8-5 10-7 9-5 7-3 4-3h2l2-6 5-5h4v-3h2v-2l2-2 2-3 4-2 2-9 1-2-1-8 1-1 1-8h1v13h54z" fill="#21285A"/>
<path transform="translate(478,73)" d="m0 0h1l1 62 10 9 7 9 1 6v18l-1 5h-2l-1 4-9 10-5 4-1 242h-1l-1-215-6 7-10 6-7 2-7-8-11-7-9-3-13-1v-1l9-1v-7l-7-28-11-24-6-10-12-16-11-11 4 1 11 4 9 5 4 1 14-7 15-4h24l15 5 6 3z" fill="#2A343D"/>
<path transform="translate(1200,224)" d="m0 0h24l2 7h71l43 1v47l-1 1h-113l-2-6-2-1h-20l-4 7h-25v-48l1-1h25z" fill="#2957BA"/>
<path transform="translate(1080,614)" d="m0 0h5v2l2 2-2 3 18-1 15 2 5 2 1 7 6 2-3 5-14 11-6 7-1-2-3 2-1 4 2 1 1-4h14l11 4 1 4-7-1 1 6h18v2l-36 12-47 15-33 10-35 11-5 2h-10l4-3 26-11 29-14 15-8h2l-3-3-6-2-7-5-15-1-7-2-23-2h-16l-9-2v-3l-3-1 36-16 30-13 41-18z" fill="#279EFE"/>
<path transform="translate(486,65)" d="m0 0 633 1v1l-25 3-5 1-24 2-19 1h-32l-49-4h-16l-27 1h-27l-54 1-19 2h-24l-15 1-55 1-18 2 5 1 1 2 5 1v1l-11 1-72 1-98-1h-30l-7 2-5 6-1 2-1 58-4-4-7-8-6-5v-64l5-5z" fill="#171537"/>
<path transform="translate(1263,636)" d="m0 0h3l1 3h-2v2l3-1h8l7 1 34 1 40-1h15l13 2h19l15-1h32l19 1h11l4-1 5-1h62l5 1 2-1 9 2 19 9 1 3-3 4v2h-2v3l-22-1h-304l-14-2-5-1h-8l-10 3-5-6 1-7 7-3 32-9z" fill="#3378FE"/>
<path transform="translate(826,230)" d="m0 0h329v22h-329z" fill="#1273C6"/>
<path transform="translate(1116,92)" d="m0 0 2 4v71l-1 26-2 6h-2l-2 23-1 7-4 1h-181l-28-1v-1l29-1 19-1 27-4 7-5 11-2 4-4h2l1-5 7-6 1-5 2-5 3-4 1 18 52-1v-19l-1-1-42-1-1-3 43-1 1-1 1-22-1-3 1-19 4 4 3 5 2 9 1 3 6 1 4 1 1-4-3-1-1-4 7-2 9-4 5-3h2l1-7 4-3 5-16 2-9z" fill="#1B1E3C"/>
<path transform="translate(697,534)" d="m0 0h226l9 5 6 8 2 6v9h-259v-11l5-9 7-6z" fill="#17143B"/>
<path transform="translate(29,612)" d="m0 0 2 1h38l17 2h40l4-2 8 1 2-2 5 44v8l-3-2-6 4h-3l-1 3-13-2h-20l-4-2-1-2-9-1-3-2-4 1-13 1h-35l-16 2-9 4-5 1v-52l4-2 8-2h13z" fill="#3971FB"/>
<path transform="translate(409,223)" d="m0 0h18l13 5 10 8 7 9 4 9 2 10v10l-3 12-6 11-5 6-11 7-14 6-16-2-11-4-10-6-8-9-5-10-3-11v-10l4-14 6-10 9-9 7-4z" fill="#7862C5"/>
<path transform="translate(786,132)" d="m0 0h52l1 4h2l1-4h52l1 1v20l-10 1 12 1 13 3 7 3-1 14-2 2-16 2-12 2 8 1 1 1v20l-1 1h-51l-1-1v-21l-4-1-2-2-50-1-1-1v-18l1-2h53l1-3h-51l-4-2v-18z" fill="#1F2751"/>
<path transform="translate(447,303)" d="m0 0h1v38l-4 11-9 10-8 4-9 2h-35l-5 15-5-1-15-6-8-3-15-5-28-5-2-5-2-12 4-12 9 1 7 1h33l3-9 9-15 1-3 5 2 8 5 10 3h21l16-6 16-8z" fill="#FCCBB9"/>
<path transform="translate(772,405)" d="m0 0h53v71l-50 7-12 1-1-31h-12l2-2-7-4h-7l-3-3h13l-1-2-8 1-5-5-13 2-2-6-1-1v-5h-9l-4 1h-6v3l7-1 1 3-7 3-13 2h-9l-1 2h-5l-1-2 6-1 3-6-2-1 2-1-2-2h-7v-2l-5-1v-2l-4 1-12-1-1 3-3 1h-7l-7-3-1-4h-22v2l-7 1-2-1v-3h111l47-1 36-1 1-3 4-1-3-3-10-3-14-1z" fill="#171537"/>
<path transform="translate(1156,23)" d="m0 0h47l2 1 1 7 63 1 9 3 6 6 4 13v23l-2 2h-79l-2-7h-24l-1 7h-24z" fill="#E89D30"/>
<path transform="translate(781,84)" d="m0 0h197v2h3v-2h6l1 1v5l-7 1v-2l-5-1-7 1-29 1 35 1v1l-47 1v19l38 1v1l-32 1h49l4 4-9 4h-8l-1-1-7-1v2h-3l1 3-5 2h-8l-6 1-19 1h-8l-3 2-17 1-52-1-1 4h-2l-1-3-52-1v21h-4v-21l-53 1-10-2-10-1v-1l12-1h11v-4l5-3 16-3v-2l4-1 12 3 24 3 1-4h10l11-1 12 3 21 1 16-3 2-1-50-1v-1l52-1-1-20-2-1-49-1-9-2-3-2-20-1h-6z" fill="#1D264F"/>
<path transform="translate(1392,614)" d="m0 0h56l36 4 36 8 36 12 8 4-2 1-4-1-2 1-9-1h-57l-7 1-2 1h-11l-25-1h-26l-15 1h-19l-13-2h-23l-42 1-24-1-7-1h-11l2-6 33-8 43-8 29-4z" fill="#3872FC"/>
<path transform="translate(145,507)" d="m0 0h12l7 5 20 8 18-1 20-1 8-2h10l16-3h11l8-1 10 1 4 3-8 11-3 8-2 9h-1l-3 9-2 2-4-2-13-1-6 3-12 4-12 1-5 2-12 1-14-3-3-1h-17l-12-5-6-1-7 1h-5l-5-7-1 11h-1l-1-42 2-7 6 1z" fill="#7E5DBE"/>
<path transform="translate(1295,434)" d="m0 0 2 4 1 21v48l-4 10-5 4-10 2h-52l-41 1-88-1h-155l-81 1-5-1v-12h430v-56l3-7 1-6h2l1-7z" fill="#355DD3"/>
<path transform="translate(347,121)" d="m0 0h17l10 3 9 7 7 7 12 17 9 17 7 17 5 23 1 2v7l-16-3h-15l-16 6-5 3h-2l-10-40-7-21-8-16-6-8-7-4h-12l3-6 6-5 12-5z" fill="#8358B3"/>
<path transform="translate(497,273)" d="m0 0 8 1 9 3 24 6 48 14 21 6 20 6-1 2-5 1-15-2h-9l-3 1-9-2-1 5-4 4-6 1h-8l6 2-3 2-12 4-2-1v-3l-6 2-1 4-1 2 3 1-7 6h-2l-1 3-4 3h-2l-2 4-8 9-11 6-8 2-1 8-2 2h-5l-1-26v-75z" fill="#21275A"/>
<path transform="translate(211,284)" d="m0 0 8 1 17 5 12 5 10 8 8 10 8 15 9 23 6 24 5 11 4 10 2 7 3 8 2 6v5l-4-1 1 8 5 19 8 16 8 12 8 4-3-5-2-8-4-10-3-15-7-16-4-7v-2l-2-1-1-4-3-9v-11l1-19v-10l1-2 3 1 6 32 5 24 9 27 9 19 10 14 11 12 11 9 14 12 10 9 9 10 7 11 5 11 4 17v34l-4 20-7 20-7 16-1-4 4-21 2-15v-22l-3-21-5-17-10-21-8-12-10-10-12-8-9-5-17-11-10-9-7-8-8-16-9-24-3-12-3-17-3-13-7-33-7-21-8-18-7-10-4-5-13-9-15-6-14-4z" fill="#F3F7F7"/>
<path transform="translate(135,561)" d="m0 0h1l2 26 1 14v14l-9-1-4 2h-40l-17-2h-38l-2-1-4 1h-14l-7 2-4 1v-16l7-3 19-9 23-9 27-8 21-4 25-3h12z" fill="#4A68FE"/>
<path transform="translate(1517,494)" d="m0 0h70l12 1 1 1v18l-5 2-8 4-8 1h-29l-8 1h-21l-15 1h-71l-29-1h-11l-15-5v-2l4-2h-8l3-2 31-6 49-7 21-2z" fill="#5260FF"/>
<path transform="translate(962,666)" d="m0 0h5v3l12 1h13l23 2 7 2 15 1 8 6 7 2 1 3-33 17-24 11-19 8h-56l-1-38 30-13z" fill="#19BAFD"/>
<path transform="translate(883,336)" d="m0 0h15l6 2 2 2 12 4 4-1h19l2 1v7h-2l2 2 1-3h8l2 4 5-3h11l6 4 7-4h8l5 3 3 5 1 2v28h-8l-1-27-3-3h-6l-3 2-1 3-1 25h-7l-1-25-3-5h-8l-4 5-1 25h-8l-6-5-1 5h-8l-1-3-4 3h-10l-6-5-2-7-1 8-5 3-4 1h-17l-9-4-7-8-3-10v-8l4-11 4-5 7-5z" fill="#462E70"/>
<path transform="translate(299,514)" d="m0 0 9 2 8 7 8 13 5 15 3 18v12l-3 17-3 10-8 18-8 16-3 2h-9l-4-4-2-3-5-29-3-36v-27l2-14 3-9 5-6z" fill="#222"/>
<path transform="translate(818,476)" d="m0 0h7l1 9v26h17l4 3 8 3 1-6h1v22h63v1h-220v-1h63v-49l12-2z" fill="#57347F"/>
<path transform="translate(362,513)" d="m0 0 4 1 8 7 8 9 9 16 7 16 5 19 2 16v22h-1v-9h-2v-2l-6 1-4-8v-2h-2v-2l-13 3-11 7-4 1-1 3-4 2-1-2-3-2-2-6v-31l-4-15-6-14-4-6v-3h2v-8l2-6 8-2 9 1 4 1 2-2z" fill="#855BB4"/>
<path transform="translate(417,409)" d="m0 0 5 2v2l4 2 2 2 6 2h19l9 3h7v-2l3 1 4 5 2 2 1 14 2 7 5 3 276 1 1 4v36h-1l-1-26-3 9-2-1-4-10 1-2-2-2-2 1-11-2-21-1h-76l-62 1-37 1-11 1h-39l-5 3-4 2-2 4-5 5-5 3-5-1h-3l-5 1-4-3-4-17-6-15-9-14-12-14-6-5z" fill="#505FFB"/>
<path transform="translate(501,65)" d="m0 0h628l5 3 3 5v157h-31l4-1-1-5 1-2 1-15 2-8h2l1-8 1-33v-62l-3-7-7-4-40-1v-1l13-1 15-1 2-1h14l1 3 3 1v2l4 2 3 2v2h2l1 7-3 3 6 1v-16l-3-9-10-3-6 1-9-4v-1l20-1-1-3-618-1z" fill="#18183F"/>
<path transform="translate(697,578)" d="m0 0h17l21 2 60 4 44 4 6 1v25l-18 5-11 3-9 2-36 9-11 2-15 4-16 4h-9l-2-1-7-14-3-3v-2l4-2 4 1-3 1 1 2 4 1 2 4h8l4-3 12-2 12-5 7-3 1-2 9-2 18-7h3v-2l8-2 16-6 4-2 1-2h-28l-20 8-3 2-7 1-13 6-8 3 2 2-14 2v-3l17-6 6-3h2v-2l9-2 12-5 9-3v-2h-29l-15 6-7 4-7 1-4 1v-2l21-8 4-4h-28l-4 1-8-4-12-5z" fill="#57347F"/>
<path transform="translate(824,345)" d="m0 0h2v35l-63 1-3 2v20l66 1v72h-1v-71l-39 1 12 4 1 3-4 2-1 2-10 1-26 1-61 1h-26l-28-1-2-1-1-8 8-1 2 3-2 3 4 1 3-3h12l6 2 3-1h14l1-2 8-1 12-3 10-5 2-4 3-3h2l1-4 3-7 7-5 4-6 12-6 10 1 3 3 10 4 2 1 1-3h2v-2l5 1 9 4 2-5 11-13 5-5z" fill="#1B1E3C"/>
<path transform="translate(1197,563)" d="m0 0h3v159h-21v-151z" fill="#232125"/>
<path transform="translate(39,551)" d="m0 0h8l13 2h11l10 2 17-1 9 2v2l5-1h8l10-2 1 4 3 2 1 4-2 1h-11l-31 4-23 5-27 9-26 11-11 6h-4v-43l4-3h5v-2h12z" fill="#3972FC"/>
<path transform="translate(275,595)" d="m0 0h1l8 49-1 9-3-1-2 2v-2l-4 1-3-3-10 1-14 3-3 4-2 4-9-12-12-14-15-15 2-2v-2l-5-7 4-1 6 2 7-3h18l4-2 2-3 10-2 6-3 5 1 8 4v-2h2z" fill="#8853AA"/>
<path transform="translate(1072,443)" d="m0 0 1 2h2l-2 10-2 7 4-4 2-6 2-1 1-3h2v5l-4 14-1 8 2 4 2 1 1-2h2v-2l3 1 4 7v4l4 2 3 2 8 1 5 4 3 5 1 4 10 2 12 1 20 1v1h-70v-1l-30-2-14-2-3-3-10-3-10-5-1-3h2l1-2 3-1h-1v-8l10-6h3v-2l6-1 1-2h4v-2l13-4 7-6 2-6-1-4z" fill="#4C327B"/>
<path transform="translate(137,578)" d="m0 0 9 3 17 8 19 12 18 14 9 8 4 10-2 4v4h-8l-5-1-5 1-11-3h-15v-2l-7 2-2 3-7 1h-3l-4-5-2 3-4-39z" fill="#584FB9"/>
<path transform="translate(139,641)" d="m0 0h3l3 15v8l-3-2-6 4h-3l-1 3-13-2h-20l-4-2-1-2-9-1-3-2-4 1-13 1h-35l-16 2-9 4-5 1v-20l5-2 2-3 17-1 9-1h17l22 1 8 1h15l26-1 7 1 1-1z" fill="#3477FE"/>
<path transform="translate(576,580)" d="m0 0 28 1-1 3-11 5-10 4h-8l-2 4-12 4-6 3h-9v3l-12 5-10 4h-19l-5-1 2 5v5l-21 7h-11l-8-5-5-6-2-6v-33l25 6 7 5 2 5 2 1-1 6 4 2 3 3h5l13-6 3-1h7v-2l21-9 5-1 4 1v-3z" fill="#FCCBB9"/>
<path transform="translate(491,189)" d="m0 0v3l-1 5h-2l-1 11h2l-1 9-1 13-1 4-1 24 2 15 1 4-1 1v17l1 9 2 8v3h-3l-1 14v25l1 7-1 10v31l-1 5v22l2 11 6 2 21 2 20 1 11-1h76l5 1v2l-6-1-1 3-15 1-26-1h-7l-1-1h-8l-2 1-2-1-1 2v-2l-3 1h-20l-10 2h228l-2 2h-264l-6-4-1-2v-247z" fill="#171437"/>
<path transform="translate(395,228)" d="m0 0h2l-2 4-8 7-4 8h-2l-1 7v15l4 11v2l8-1 12-2 12-1 36-1 4 1 2-5 1-19h2l2 10v10l-3 12-6 11-5 6-11 7-14 6-16-2-11-4-10-6-8-9-5-10-3-11v-10l4-14 6-10 9-9z" fill="#8852A9"/>
<path transform="translate(385,597)" d="m0 0h5v2h2l4 9h6v2h2v16l-4 25-1 4-3 1v-2l-4-1-4-3h-9l-3 1h-8l-18-4h-8v-2l-5 1-5 2 8-15 5-10 6-18 2-1 1 5 4 3 4-4 7-4 11-6z" fill="#8753AA"/>
<path transform="translate(1340,232)" d="m0 0 2 4 3 7 3 4 3 21-1 14-4 6-9 3-24 1-11 4-3 3-2 5-1 28v10l2 34 1 3-1 21-2 34-3 8h-2l-1 9-2 4-1 56h-1v-112l1-111 5-3 1-5 46-1z" fill="#5C3EC6"/>
<path transform="translate(1200,600)" d="m0 0h2l2 12 2 3h6v2h7l3-1 5 1 9-3 9 1 7-1 29 2 13 3h18l37-4 35-2 2 2-20 2-23 3-43 8-37 9-40 11-5-1-5-5-4-10-1-3-3-1-2 18 2 3v3l-5 4z" fill="#2186FF"/>
<path transform="translate(565,568)" d="m0 0h17l90 7 15 1v1l-16 2-11 2-13 2h-35l-13 5-6 3h-3v2l-9 2-19 8-2 2-10 2-14 6-13 6-2 1v-3h-7v-1l9-1 19-8h3v-3l9-1 14-6 5-2 1-2 10-2 19-8 1-2h-28l-19 8h-3v3l-9 1-19 8h-2v2l-10 2-13 6h-5l-7-6v-6l13-6 25-10 16-6z" fill="#1A163B"/>
<path transform="translate(82,659)" d="m0 0 3 2 9 1 1 3 8 1h17l12 2 1-2 10-5 3 3 1 12-3-1-6 3-4 4-3 1-8-1h-18l-6 1-3-3-23 1-8-1h-24l-15 2-7 1h-8l-6 3-5 1v-18l14-6 16-2h35l13-1z" fill="#257DFE"/>
<path transform="translate(1552,612)" d="m0 0h7l10 1 12-1h19v47l-19-9-25-11-36-12-40-9 1-2h15l21 3 2 1v-2l-4-1-2 1 1-3z" fill="#2187FF"/>
<path transform="translate(393,217)" d="m0 0h15l14 3 1 2-14 2-14 5-8 6-8 9-5 12-2 8v10l4 14 6 9 5 6 10 6 11 4 16 2-2 2-9 3h-21l-12-4-11-7-9-10-7-14-2-8v-15l3-12 5-10 8-10 8-6 12-5z" fill="#232224"/>
<path transform="translate(477,225)" d="m0 0h1v130h-1l-1-5h-3l-1-2h-2l-1-4-1-2-5 1-1-1h-3l1-8-5-3-4-1-1 7-2 1v-35l8-11 4-9 2-9v-10l-3-13-4-9 13-7 5-4z" fill="#6537FC"/>
<path transform="translate(561,132)" d="m0 0h52l1 3v14h2v-15l1-2h52l1 1v20h-53-4-52l-1-1v-19z" fill="#CE3431"/>
<path transform="translate(826,252)" d="m0 0h328v1l-138 2-14 1-4 1-17 1-79 3-9 1h-23l-2 1 3 3h-14l-10 4-7 8-3 6-3 7-7 11h-1l-1-38-1-3h2z" fill="#21285D"/>
<path transform="translate(857,265)" d="m0 0h10l10 4 7 7 4 9v11l-3 9-7 8-11 5h-7l-12-4-6-5-5-9-3-11 4-9 4-6 7-6z" fill="#EFF4EC"/>
<path transform="translate(1065,336)" d="m0 0h14l11 4 5 4 3 5 2 7v11l-3 9-5 7-8 4-5 2h-19l-3-1v-51z" fill="#F6F7F7"/>
<path transform="translate(347,121)" d="m0 0h17l10 3 9 7 7 7 12 17 1 3-8-1-29 2-6 2-1 1v16l-2-1-8-20-7-12-7-6-3-1h-12l3-6 6-5 12-5z" fill="#7862C6"/>
<path transform="translate(798,431)" d="m0 0 4 4 5 4h6l3-1v4h4l4-4 1 1v29l-7 6-20 3-9 2h-20l-2-2-1-7v-16l2-1h23l-22-1 3-4h3v3l11-1 1-3-9-2 4-4 2-4 1-1h6l6 4 3 3h3l-6-5-2-5z" fill="#171339"/>
<path transform="translate(454,244)" d="m0 0 3 1 3 6-1 22-3 6-10-1-30 1-20 2-9 2-3-1-4-9-1-4v-15l2-7 1 4v6h16l4-1h19l31-1 4-1z" fill="#8458B3"/>
<path transform="translate(490,67)" d="m0 0h11l16 1 22 4 14 2 22 1 7 2-3 3-11 2-58 2-7 2-5 6-1 2-1 54-3-2v-5l1-4-2-5-6-2-2-5-3 2v-49l4-8z" fill="#171339"/>
<path transform="translate(362,513)" d="m0 0 4 1 8 7 8 9 6 11 2 6 3 6v10l-16-8-8 1-4 1-5 2-3 3-4 7-3-2-4-13-7-14-2-3v-3h2v-8l2-6 8-2 9 1 4 1 2-2z" fill="#7F5DBE"/>
<path transform="translate(1285,44)" d="m0 0h10l6 5 4 10 1 16-1 10-4 9-5 3-8 2-3 9-1 16-1 5 2 1h-22v-1h5l-1-50 19-1 1-1v-23z" fill="#622FE0"/>
<path transform="translate(697,578)" d="m0 0h17l21 2 60 4 44 4 6 1-4 3-61 24-28 11-21 8-9 1-7-1-6-9-1-3 4-2 4 1-3 1 1 2 4 1 2 4h8l4-3 12-2 12-5 7-3 1-2 9-2 18-7h3v-2l8-2 16-6 4-2 1-2h-28l-20 8-3 2-7 1-13 6-8 3 2 2-14 2v-3l17-6 6-3h2v-2l9-2 12-5 9-3v-2h-29l-15 6-7 4-7 1-4 1v-2l21-8 4-4h-28l-4 1-8-4-12-5z" fill="#1C1741"/>
<path transform="translate(1442,130)" d="m0 0 3 1 1 11 5 9 2 12v9l-2 10h-2l-1 3-5 2-12 1-30 1h-44l-12 2-6 4-2 6-1 30-9 1h-17v-1l16-1v-49l118-1-1-48z" fill="#5D3DC6"/>
<path transform="translate(763,380)" d="m0 0h63v23l-1 1h-63l-3-3v-18z" fill="#7963C6"/>
<path transform="translate(409,189)" d="m0 0 7 1 2-1 5 23 1 2v7l-16-3h-15l-16 6-5 3h-2l-3-15 2-4v-10l2-4 8-4h14z" fill="#8752A9"/>
<path transform="translate(1195,351)" d="m0 0h10l6 3v-3h7v39l-3 7-4 4-6 2h-14l-5-3 1-5 7 1h9l4-2 2-4v-4l-7 3h-7l-7-4-4-6-1-4v-11l4-8 5-4z" fill="#FAFBFB"/>
<path transform="translate(295,512)" d="m0 0h14l10 5 10 9 7 8 8 13 3 7v3h-2l-4-8-7-11-1-3-3 1 4 20 1 9v20l-4 21-8 20-8 15-8 6-2 1h-7l-4-2-5-8-3-14-3-24-3-39v-27l-1-5 7-11zm4 2-6 3-5 7-3 12-1 9v27l3 36 5 29 3 5 3 2h9l5-5 12-26 4-10 3-14 1-8v-12l-3-18-6-17-7-11-8-7z" fill="#F4F4F7"/>
<path transform="translate(1445,133)" d="m0 0 8 5 4 6 2 13v25l-3 8-8 4-21 2h-15l-24-2-35 2-8 2-3 5-1 10v19h-14v-1h9l-1-5 1-25 3-7 6-4 13-2h44l35-1 8-2 3-1 1-2h2l1-10v-9l-2-12-5-9z" fill="#622FE0"/>
<path transform="translate(1171,336)" d="m0 0h5l2 3v6l2 1-1 5-1 2-1 36-16 1v-3l-6 2h-10l-6-2 1-7 7 2h7l3-1-2-6-11-5-4-5 1-9 5-4 2-1h13l3 1 1 4v-10l4-2v-5z" fill="#674098"/>
<path transform="translate(756,115)" d="m0 0 13 3 24 3 1-4h10l11-1 12 3 16 1-1 2-7 2v2l-13 1-1 1-22 2-3 2h-10v21h-4v-21l-53 1-10-2-10-1v-1l12-1h11v-4l5-3 16-3v-2z" fill="#232959"/>
<path transform="translate(1193,565)" d="m0 0 2 1 2 5-1 13-1 16-2 29v39l-1 2-1 11-4 1-2-5v-6l-1-5v-21l1-1v-7l-1-9-2-30-1-7-1-1v132h-1v-151z" fill="#222228"/>
<path transform="translate(1235,280)" d="m0 0h48l-1 3-20 5-11 4-5 3-13 6-3 1-23 2-30 3-10-3-7-4-1-4-4-2v-1l79-1z" fill="#452E6F"/>
<path transform="translate(576,580)" d="m0 0 28 1-1 3-11 5-10 4h-8l-2 4-12 4-6 3h-9v3l-12 5-10 4h-19l-6-1-1-3 12-6 8-3h7v-2l21-9 5-1 4 1v-3z" fill="#F6F7F8"/>
<path transform="translate(646,92)" d="m0 0h52l1 1v20l-4 1h-48l-2-2v-19z" fill="#AD4F83"/>
<path transform="translate(597,339)" d="m0 0 5 1 1 6-4 8-11 14-5 6-11 9-10 9-7 5-15 7-9 1-1-1 1-8 6-9 3-3 3 1 1 6 8-4 3-3h2l1-3 4-3h2l2-4 8-7 6-7h-2v-2l-4-1-2-1 1-4 10-7 11-5z" fill="#222223"/>
<path transform="translate(786,132)" d="m0 0h52l1 1v19l-2 2h-48l-4-2v-18z" fill="#CD3430"/>
<path transform="translate(1040,92)" d="m0 0h52l2 2v18l-1 1-11 1h-39l-3-1z" fill="#AB5086"/>
<path transform="translate(730,157)" d="m0 0h51l1 1v20l-1 1h-51l-1-1v-20z" fill="#C06020"/>
<path transform="translate(730,132)" d="m0 0h52v21l-4 1h-48l-1-1v-20z" fill="#CE3230"/>
<path transform="translate(565,568)" d="m0 0h17l38 3-1 3h-27l-7-1h-18l-13 8-13 5-7 4 6-1 9 2-4 2-19 8h-2v2l-10 2-13 6h-5l-7-6v-6l13-6 25-10 16-6z" fill="#1C1740"/>
<path transform="translate(395,228)" d="m0 0h2l-2 4-8 7-4 8h-2l-1 7v15l4 11 6 9 8 7 10 4v2l16 1 8-1 4 2v2l10-3-1 3-16 8-5 2-16-2-11-4-10-6-8-9-5-10-3-11v-10l4-14 6-10 9-9z" fill="#AC4D81"/>
<path transform="translate(898,183)" d="m0 0h53l1 1v18l-1 2h-52l-1-1z" fill="#E99D30"/>
<path transform="translate(786,183)" d="m0 0h52l1 1v19l-1 1h-52l-1-1v-19z" fill="#E99D30"/>
<path transform="translate(617,183)" d="m0 0h53v20l-1 1h-52l-1-2v-18z" fill="#E99D30"/>
<path transform="translate(842,132)" d="m0 0h52l1 1v20h-53l-1-2v-17z" fill="#CE3431"/>
<path transform="translate(759,92)" d="m0 0h52l1 2v18l-1 1h-52l-1-1v-19z" fill="#AC4F85"/>
<path transform="translate(786,157)" d="m0 0h51l2 3v18h-53l-1-1v-18z" fill="#C26320"/>
<path transform="translate(984,92)" d="m0 0h52l1 1v19l-1 1h-51l-2-4v-16z" fill="#AE4F82"/>
<path transform="translate(505,132)" d="m0 0h52v21h-53v-20z" fill="#CE332F"/>
<path transform="translate(815,92)" d="m0 0h52l1 1v20h-53z" fill="#AC4F85"/>
<path transform="translate(702,92)" d="m0 0h52l1 1v20h-53z" fill="#AC5085"/>
<path transform="translate(533,92)" d="m0 0h52l1 1v20h-53z" fill="#AD4F83"/>
<path transform="translate(589,92)" d="m0 0h52l1 1v20h-53z" fill="#AD4F84"/>
<path transform="translate(1011,183)" d="m0 0h52l1 1v19l-1 1h-52z" fill="#E99D30"/>
<path transform="translate(842,183)" d="m0 0h53v20l-1 1h-51l-1-1z" fill="#E99D30"/>
<path transform="translate(673,183)" d="m0 0h53v20l-1 1h-51l-1-1z" fill="#E99D30"/>
<path transform="translate(674,157)" d="m0 0h51l1 1v20h-53v-20z" fill="#C06020"/>
<path transform="translate(674,132)" d="m0 0h51l1 1v20h-53v-20z" fill="#CE3330"/>
<path transform="translate(928,92)" d="m0 0h52v21h-52l-1-1v-19z" fill="#AB5085"/>
<path transform="translate(1011,132)" d="m0 0h52l1 2v18l-1 1h-52z" fill="#CE3330"/>
<path transform="translate(955,132)" d="m0 0h51l1 1v20h-52l-1-1v-19z" fill="#CE3230"/>
<path transform="translate(872,92)" d="m0 0h51l1 1v19l-1 1h-52v-20z" fill="#AC5085"/>
<path transform="translate(505,158)" d="m0 0h52v20l-2 1h-50l-1-1v-19z" fill="#C16220"/>
<path transform="translate(899,132)" d="m0 0h51l1 1v19l-1 1h-51l-1-1v-19z" fill="#CE3130"/>
<path transform="translate(957,157)" d="m0 0h49l1 1v20h-52l-1-1v-18z" fill="#C16120"/>
<path transform="translate(770,84)" d="m0 0h11l4 1 19 1 7 3 5 1 49 1v1h-50v21h48l4 4-12 3-12 1-16-1-12-3-17 1h-4l-1 3h-8l-22-3-7-2h-9l-10 2-7-1v-2l-26-1v-1h51v-16h1v14l3 1h52v-20h-50v-1l7-1 1-1-2-1v-3z" fill="#322F6E"/>
<path transform="translate(617,158)" d="m0 0h53v20h-54v-19z" fill="#C16220"/>
<path transform="translate(945,351)" d="m0 0h8l1 3 5-3h11l6 4 7-4h8l5 3 3 5 1 2v28h-8l-1-27-3-3h-6l-3 2-1 3-1 25h-7l-1-25-3-5h-8l-4 5-1 25h-8z" fill="#F7F9F8"/>
<path transform="translate(753,534)" d="m0 0h170l9 5 6 8 2 8-5-5-6-8-3-2v-2h-2v-2h-5l1 2-21 3-9 1-3-2h-17l-19-1-2 1h-44l-20-1h-13l-8 1-7-1-13 2-14-1-3-1-11-1v-1l34-1z" fill="#171639"/>
<path transform="translate(1011,158)" d="m0 0h52l1 1v18l-1 1h-52z" fill="#C16220"/>
<path transform="translate(795,591)" d="m0 0h24l4 1-1 3-22 9h-6v2l-23 9h-7l-1 3-13 5-9 4-8-1-1-10 4-2 7-1 1-2 15-6 6-3 7-1 10-5z" fill="#F7F8F9"/>
<path transform="translate(883,336)" d="m0 0h15l5 1-1 8-6-1h-12l-4 2h-3v2h-2l-4 8v13l3 6v2l4 2 5 2h13l1-13h-10v-7h18v25l-8 3h-17l-9-4-7-8-3-10v-8l4-11 4-5 7-5z" fill="#F5F6F8"/>
<path transform="translate(1321,143)" d="m0 0h40l1 1 1 21-1 2h-41l-1-1v-22z" fill="#B2BBC4"/>
<path transform="translate(857,528)" d="m0 0h61l263 3v1h-34l-2 4-2 1h-35l-8-1-33-2-2-2h-29l-4 1-15 1h-20l-2-1v-2h-86l-1 1h-18l-7-2h-5l-6 2v1h-15z" fill="#EEF3F2"/>
<path transform="translate(881,84)" d="m0 0h97v2h3v-2h6l1 1v5l-7 1v-2l-5-1-7 1-29 1 35 1v1l-47 1v19l38 1v1l-43 1-50-1v-1l50-1v-19h-51l-1 15h-1v-17l6-2 2 1v-2h2z" fill="#202650"/>
<path transform="translate(1234,195)" d="m0 0h30l5 5 2 4v6l-4 6-7 3h-23l-6-3-3-4-1-7 3-7z" fill="#FBCABA"/>
<path transform="translate(1066,343)" d="m0 0h13l5 2 7 8 1 4v9l-4 10-5 4-5 2h-12z" fill="#573580"/>
<path transform="translate(795,586)" d="m0 0h20l24 2 6 1-4 3-61 24-28 11-21 8-9 1-7-1-6-9-1-3 4-2 4 1-3 1 1 2 4 1 2 4h8l4-3 12-2 12-5 7-3 1-2 9-2 18-7h3v-2l8-2 16-6 4-2 1-2-28-1-2-4z" fill="#1F1A46"/>
<path transform="translate(395,156)" d="m0 0 9 2 7 14-1 3-4-2h-32l-8 2-1 1v8l1 5v10l-3-1-5-18v-18l3-3 18-2z" fill="#7E5CBE"/>
<path transform="translate(916,351)" d="m0 0h12l6 3 3 5 1 30h-8l-1-3-4 3h-10l-6-5-1-9 3-6 4-3 7-2h7l-2-5-2-1h-8l-5 1-1-5z" fill="#F7F8F9"/>
<path transform="translate(563,134)" d="m0 0h48v17h-48l-1-1v-15z" fill="#CE332F"/>
<path transform="translate(1017,351)" d="m0 0h11l5 3 4 5 1 2v10h-25l3 8 3 2h17v6l-8 2h-9l-7-3-5-5-2-7v-11l6-9z" fill="#F9FAFA"/>
<path transform="translate(1115,351)" d="m0 0h11l6 3 4 8v9h-25l3 8 3 2h17v6l-8 2h-9l-7-3-5-5-2-5v-11l3-7 5-5z" fill="#F9FAFA"/>
<path transform="translate(381,247)" d="m0 0 1 4v6h16l4-1h19l31-1 4-1 1-4 1 3v12l-7 1h-11l-18 1h-18l-18 2-6-3v-16z" fill="#7F5CBD"/>
<path transform="translate(493,704)" d="m0 0h2v18h-65l-1-12 8 1 6 1h18z" fill="#2085FB"/>
<path transform="translate(689,640)" d="m0 0h7l4 1 4 10 3 7 7 2 6 1v1h-62l-45-1 3-3 10-6 5 1 11 5 3 1h19l10-4 10-8z" fill="#FDFDFC"/>
<path transform="translate(826,253)" d="m0 0h14l4 1 3 3v2h11l3 3-4 4-10 4-7 8-3 6-3 7-7 11h-1l-1-38-1-3h2z" fill="#462F70"/>
<path transform="translate(307,367)" d="m0 0h1l5 27 5 24 9 27 9 19 10 14 11 12 11 9 14 12 10 9 9 10 7 11 5 11 4 17v7l-3-1-2-12-4-12-9-17-9-11-10-8-15-13-11-9-7-8-7-9-9-14-8-17-8-23-7-31-2-13z" fill="#F3F3F6"/>
<path transform="translate(409,223)" d="m0 0h18l13 5 7 5v3l-10 2-5 2-28 1h-14l-1-5 7-6 1-3z" fill="#6A65DA"/>
<path transform="translate(1225,351)" d="m0 0h7v4l7-4h10l5 3 4 5 1 8v21l-1 1h-8l-1-27-3-3h-8l-4 5-1 25h-8z" fill="#F9FAF9"/>
<path transform="translate(918,685)" d="m0 0h3v37h-21v-33l14-2z" fill="#222"/>
<path transform="translate(903,338)" d="m0 0 3 2 12 4 4-1h19l2 1v7h-2l2 2 1-3h8v1h-7v37l-5-3h-3l-1-26-3-5-5-2-13-1-7-1v-2h-16l-12 1-3 1-2-2h2v-2l7-3h12l6 2z" fill="#573580"/>
<path transform="translate(726,135)" d="m0 0h1v16h2l1 2h110l1 2h-2v2h-53l-1 6-4-5h-51l-4 1-1-1h-51l-4 1-1-1-49-1v-1l8-1v-1h43l1 2 2-2 52-1z" fill="#17133A"/>
<path transform="translate(824,345)" d="m0 0h2v35h-26l-16-1-1-7 5 1 9 4 2-5 11-13 5-5z" fill="#1D1F3E"/>
<path transform="translate(555,353)" d="m0 0h14l9 5v2h2l-2 4-10 10-8 7-5 2-6-5-3-8 1-10-2-1 7-5z" fill="#AE4E81"/>
<path transform="translate(1342,236)" d="m0 0 8 6 3 9 1 7v24l-3 8-5 3-7 1-23 1-10 2-5 6-1 38-1 35h-2l-2-40v-13l1-19 4-8 9-4 4-1 24-1 9-3 3-5 1-14-3-21-5-7z" fill="#622FE1"/>
<path transform="translate(758,589)" d="m0 0h18l11 1v2l-5 3-8 3-10 4h-7v2l-8 4-14 5h-5l-6-9 5-4 7-1 10-5z" fill="#F7F7F8"/>
<path transform="translate(1010,133)" d="m0 0h1v20h53l1 7-2-1-52-1v19l-4-1-1-18-52-1v-4h53v-19z" fill="#31285A"/>
<path transform="translate(347,121)" d="m0 0h17l10 3 9 7 2 4-5-2-13-2h-5l-1 1h-10l-1 1h-7v2l-2 1 2 5 3 3v2h2l3 7v4h-2l-7-12-7-6-3-1h-12l3-6 6-5 12-5z" fill="#6A67DB"/>
<path transform="translate(1133,91)" d="m0 0h1l-1 16-2 37-1 39-1 20h-3l-1-2v-7l-1-9-1-8v-65l2 1v3h2l2-11 2-10h2z" fill="#171339"/>
<path transform="translate(1180,590)" d="m0 0 2 1 2 20 1 21 1 5v7l-1 1v25l1 1v8l1 3h2l-2 12-1 26v2h-6z" fill="#23201E"/>
<path transform="translate(561,132)" d="m0 0h52l1 3v14h2v-15l1-2h52l1 1v20h-53-4-52l-1-1v-19zm2 2-1 1v15l1 1h48v-17zm56 0-1 9 1 8h49v-16l-1-1z" fill="#EAE8EF"/>
<path transform="translate(191,254)" d="m0 0h25l-4 2-9 2-3 1-2 9-6 9 4 1 11 5v1h-9l-26-6v-4l7-11 8-7z" fill="#F2F6F6"/>
<path transform="translate(612,582)" d="m0 0h27v2l-18 5-26 10-25 6-22 5-9 2 2-2 12-5 7-1 4-3 20-8h6v-2z" fill="#F3F4F6"/>
<path transform="translate(781,84)" d="m0 0h100l3 2h-4v2h-2v2l-8 1v10h-2l-1-8-2-1-49-1-9-2-3-2-20-1h-6z" fill="#1F2259"/>
<path transform="translate(1288,55)" d="m0 0h1l1 23-4 4-4 1-3 11-2 12v12l-1 9 1 3h-14v-1h5l-1-50 19-1 1-1z" fill="#603DBD"/>
<path transform="translate(516,698)" d="m0 0 5 4 35 15 10 4v1h-50z" fill="#2187FF"/>
<path transform="translate(1148,351)" d="m0 0h13l3 1-1 7-12-1-2 1 1 5 13 6 2 3v8l-3 5-7 3h-10l-6-2 1-7 7 2h7l3-1-2-6-11-5-4-5 1-9 5-4z" fill="#F9FAF9"/>
<path transform="translate(573,247)" d="m0 0 3 1v3l2 1-16 8-23 9-16 4-7 1-15-3 4-2 26-7 27-9z" fill="#E6EAE8"/>
<path transform="translate(857,265)" d="m0 0h10l10 4 7 7 4 9v11l-3 9-7 8-11 5h-7l-12-4-6-5-5-9-3-11 4-9 4-6 7-6zm2 3-10 4-5 4-5 9v12l4 9 6 5 7 3h12l8-4 6-7 3-8v-8l-4-9-5-5-4-3-8-2z" fill="#1EB4FA"/>
<path transform="translate(615,226)" d="m0 0h2v4l-8 4-15 10-16 8h-3l-1-3h-4l-10 4-3-1v-1l-6 1 4-4 20-8 14-5 9-4 13-4z" fill="#292763"/>
<path transform="translate(420,207)" d="m0 0 2 1 2 6v7l-16-3h-15l-16 6-5 3h-2l-1-10 5-5 5-2 8-1h19l4 4h5z" fill="#8F4DA1"/>
<path transform="translate(1094,219)" d="m0 0 5 1 8 4 3 1v4l-4 1h-85v-2l32-2 31-4 5-2z" fill="#212122"/>
<path transform="translate(403,300)" d="m0 0 14 3 15-1 4 2v2l10-3-1 3-16 8-5 2-16-2-11-4-6-3 4-2 6-1z" fill="#CC2D32"/>
<path transform="translate(497,273)" d="m0 0 8 1 9 3 24 6 17 5v2l-22-3h-16l-7 1-2 3-4-1-2-1-2 4h-2l-1 2z" fill="#252A6C"/>
<path transform="translate(510,419)" d="m0 0h90v1l-28 1v2l-11 1h-8l-1 6-6 1-3 1h-14l-2-4 4-3h2l-3-3-16 1-3-1z" fill="#171437"/>
<path transform="translate(1074,673)" d="m0 0 2 1-8 8-16 10-1 2-6 2-4 4-9 5-18 6-21 6-5 1 3-3 29-13 24-12 15-8z" fill="#2188FF"/>
<path transform="translate(804,311)" d="m0 0v3l-2 4 3 1-3 9-2 7-3 5-5 3h-7l-5-4-3-4v-5l4-4 9-2 8-7z" fill="#1B1E3C"/>
<path transform="translate(1173,96)" d="m0 0 4 1-2 1 1 2h7l3 1 1-1h12 3l4 2 4-2h7 2 6v3l-2 1-2 6h-9l-2-1-1-3-2 4-4-1-2-4-3 2 3 1-1 2h-6l-2-3v-4l-2 1-1 6-4-1-1 1h-6l-1-1v-7l-2 1-1 7h-3l-1-10 1-3z" fill="#FAF0EA"/>
<path transform="translate(279,247)" d="m0 0 2 2 10 33 6 18v3l-5-2-8-10-4-7-3-13v-18z" fill="#AD4E82"/>
<path transform="translate(1007,176)" d="m0 0 4 1 51 1v1l-40 1v1l40 1v1h-51v19h-1l-1-13-6-4-38-2-7-2-3-2 52-1z" fill="#2A2852"/>
<path transform="translate(1242,245)" d="m0 0 3 1v4l7-1 1 1 1 12-3 2-6-1-1-4h-7l-1-4h-5v2h4v2h-8l-1 3-12-3v-9l1-1 7 1 5 1 2-2 5 1h3l4-1z" fill="#B9C7DE"/>
<path transform="translate(459,254)" d="m0 0h2l2 10v10l-3 12-6 11-5 6-10 3-5-1v-2l-17 1-5-1v-1l16-1 12-5 9-7 7-11 2-5z" fill="#AD4F84"/>
<path transform="translate(1272,245)" d="m0 0 2 1v3l5 1 1 2 3-3 9 1 1 1v6h2v-7h3v9h-8-2-6l-2-2-3 3h-5v2l-8-1-1-1-8-1-1-8 3-2 5 1 2 1 3-1 3 1z" fill="#C8D3E4"/>
<path transform="translate(1177,353)" d="m0 0 2 2 1-2h3l1 9v13l3 8 5 4 3 1h7l8-3-1 7-4 4-2 1h-9l-7-2v-2l-8-6-1-15h-1z" fill="#673E94"/>
<path transform="translate(1198,357)" d="m0 0h6l5 4 1 2v13l-5 6h-8l-5-5-1-3v-9l3-5z" fill="#653B92"/>
<path transform="translate(1287,147)" d="m0 0 3 1v2h2v-3h3l1 4 6-1 3 1 1-1h6l2 2v7l-3 1v-7h-3v7l-4-1-6 1-3-1-1 1h-6l-3-7h-5v4h5l-1 3h-5l-3-4h-3l-1-3v4l5 1-1 2h-6l-1-1v-6l-3 1-2 6-2-1v-8l6-1h7l2 2 3-2 6 1z" fill="#BFCBDB"/>
<path transform="translate(989,394)" d="m0 0 8 1 1 3 2 1-2 4-5 1h-20l-40-1v-3l10-2h24l9-2z" fill="#55337D"/>
<path transform="translate(494,523)" d="m0 0h9l-1 2-21 9-25 11h-2v-14l3-3 4-2 10 2h8z" fill="#3A72FB"/>
<path transform="translate(761,381)" d="m0 0h64v2l-61 1-1 1v16h63l-1 3h-63l-3-3v-18z" fill="#E0B8BE"/>
<path transform="translate(730,157)" d="m0 0h51l1 1v20l-1 1h-51l-1-1v-20zm1 3v16h49v-16z" fill="#D4C2D7"/>
<path transform="translate(770,84)" d="m0 0h11l4 1 19 1 7 3 5 1 49 1v1h-50v19h-1l-3-19h-50v-1l7-1 1-1-2-1v-3z" fill="#2F2A65"/>
<path transform="translate(670,159)" d="m0 0h3v19h51l-1 2 1 3h-51l-3-1v-3h-52v-1h52z" fill="#3F387B"/>
<path transform="translate(859,268)" d="m0 0 10 1 6 3 5 4 4 8 1 3v8l-4 10-2-2v-13l-4-7-6-7-3-2-10-1-4 3h-2l-2 4-7 10h-1v-7l6-9 9-5z" fill="#EEF3F3"/>
<path transform="translate(646,92)" d="m0 0h52l1 1v20l-4 1h-48l-2-2v-19zm2 2-1 1 1 16h48v-17z" fill="#F0F1E9"/>
<path transform="translate(724,84)" d="m0 0h46l-3 1v3l3 1-2 2-9 2-1 18h-2l-1-14-2-5-48-1v-1l6-1 22-1 3-1v-2h-12z" fill="#21255D"/>
<path transform="translate(1040,92)" d="m0 0h52l2 2v18l-1 1-11 1h-39l-3-1zm3 2-1 1v16h49v-16l-1-1z" fill="#D3C1D3"/>
<path transform="translate(861,318)" d="m0 0 4 2v3l42 1 2 1v3l-26 2-35-1v-3z" fill="#56337E"/>
<path transform="translate(786,132)" d="m0 0h52l1 1v19l-2 2h-48l-4-2v-18zm2 2-1 1v16h49l1-1v-15l-1-1z" fill="#E1E6E8"/>
<path transform="translate(676,520)" d="m0 0h34l6 3h9l5 1 14 1v1h-76l-6-1 3-3z" fill="#3B70FC"/>
<path transform="translate(730,132)" d="m0 0h52v21l-4 1h-48l-1-1v-20zm2 2-1 1v16h49v-17z" fill="#E3E4E4"/>
<path transform="translate(786,157)" d="m0 0h51l2 3v18h-53l-1-1v-18zm1 3v16h50v-16z" fill="#DFCFD7"/>
<path transform="translate(674,157)" d="m0 0h51l1 1v20h-53v-20zm1 3v16h49v-16z" fill="#D1BACE"/>
<path transform="translate(505,158)" d="m0 0h52v20l-2 1h-50l-1-1v-19zm1 2v16h49v-16z" fill="#E3CFD2"/>
<path transform="translate(447,289)" d="m0 0 2 1-9 7-12 5h-20v-2l-6-1-8-5 2-1 3 2 6-1 2-1h24l7-2 8-1z" fill="#934FA2"/>
<path transform="translate(957,157)" d="m0 0h49l1 1v20h-52l-1-1v-18zm-1 3v16h49v-16z" fill="#D6BCCD"/>
<path transform="translate(552,263)" d="m0 0 4 1-4 2 1 5v2l7 2 8 4 8 2 1 3-10-2-13-2-2-1-9-1-10-2-14-2 4-2 16-4z" fill="#2D2F72"/>
<path transform="translate(583,372)" d="m0 0h2v9l-4 8-8 7-5 2h-13l1-3 13-10 12-11h2z" fill="#56337C"/>
<path transform="translate(759,92)" d="m0 0h52l1 2v18l-1 1h-52l-1-1v-19zm2 2-1 1 1 16h48v-17z" fill="#EFF0E9"/>
<path transform="translate(1169,351)" d="m0 0h8v38h-8z" fill="#FCFCFC"/>
<path transform="translate(669,130)" d="m0 0 4 2v21h51v1l-50 1-3 2-1-2h-37v1l36 1v1l-52 1-2 2v-6l-2-1 1-3 3 1 53 1-1-20-9-1v-1z" fill="#594B9E"/>
<path transform="translate(815,92)" d="m0 0h52l1 1v20h-53zm2 2v17h48v-17z" fill="#F2EBE1"/>
<path transform="translate(617,158)" d="m0 0h53v20h-54v-19zm2 2v16h49v-16z" fill="#EFDED6"/>
<path transform="translate(857,528)" d="m0 0h61l89 1v1l-98 1-1 1h-18l-7-2h-5l-6 2v1h-15z" fill="#E2E8E8"/>
<path transform="translate(461,619)" d="m0 0h16l6 3 3 4 1 4-7 2h-11l-8-5-5-6v-1z" fill="#B1BAC4"/>
<path transform="translate(842,132)" d="m0 0h52l1 1v20h-53l-1-2v-17zm2 2-1 1v13l1 3h49v-15l-1-2z" fill="#F4E8E6"/>
<path transform="translate(898,183)" d="m0 0h53l1 1v18l-1 2h-52l-1-1zm2 2v16l1 1h48l1-1v-15l-1-1z" fill="#DED1CD"/>
<path transform="translate(617,183)" d="m0 0h53v20l-1 1h-52l-1-2v-18zm2 2-1 1v15l1 1h48l1-1v-16z" fill="#E4D5D0"/>
<path transform="translate(786,183)" d="m0 0h52l1 1v19l-1 1h-52l-1-1v-19zm1 2v16l1 1h48l1-1v-16z" fill="#D3D5D7"/>
<path transform="translate(533,92)" d="m0 0h52l1 1v20h-53zm3 2-1 1v15l1 1h48v-16l-1-1z" fill="#F1E9DF"/>
<path transform="translate(589,92)" d="m0 0h52l1 1v20h-53zm3 2-1 1v16h49v-16l-1-1z" fill="#F5E4D8"/>
<path transform="translate(505,132)" d="m0 0h52v21h-53v-20zm2 2-1 1v16h49v-17z" fill="#F7E0D3"/>
<path transform="translate(928,92)" d="m0 0h52v21h-52l-1-1v-19zm2 2-1 1v16h49v-16l-1-1z" fill="#F5E3D7"/>
<path transform="translate(702,92)" d="m0 0h52l1 1v20h-53zm2 2v17h49v-16l-1-1z" fill="#F2E4DA"/>
<path transform="translate(1011,132)" d="m0 0h52l1 2v18l-1 1h-52zm2 2v17h48l1-1v-15l-1-1z" fill="#F5EFE9"/>
<path transform="translate(674,132)" d="m0 0h51l1 1v20h-53v-20zm1 2v17h49v-16l-1-1z" fill="#E9E5E1"/>
<path transform="translate(1011,183)" d="m0 0h52l1 1v19l-1 1h-52zm2 2v17h49v-17z" fill="#DCE1E3"/>
<path transform="translate(842,183)" d="m0 0h53v20l-1 1h-51l-1-1zm2 2v17h49v-17z" fill="#E8DDD5"/>
<path transform="translate(955,132)" d="m0 0h51l1 1v20h-52l-1-1v-19zm2 2-1 1v16h49v-17z" fill="#F6E7DE"/>
<path transform="translate(899,132)" d="m0 0h51l1 1v19l-1 1h-51l-1-1v-19zm2 2-1 1v16h49v-16l-1-1z" fill="#E3DEDC"/>
<path transform="translate(872,92)" d="m0 0h51l1 1v19l-1 1h-52v-20zm1 2v17h49v-16l-1-1z" fill="#F2EDE3"/>
<path transform="translate(989,84)" d="m0 0h5l2 4 7 1h25l6 1v1l-44 1-6 1-1 19h-2l-1-20-50-1v-1l31-2h13l3-1v2h4v2l7-1v-5z" fill="#181638"/>
<path transform="translate(1011,158)" d="m0 0h52l1 1v18l-1 1h-52zm1 2 1 16h49v-15l-1-1z" fill="#F9E3D9"/>
<path transform="translate(673,183)" d="m0 0h53v20l-1 1h-51l-1-1zm2 2-1 1v11l1 5h49v-17z" fill="#E8DAD2"/>
<path transform="translate(544,359)" d="m0 0 3 1v10l3 8 7 5-5 5-5 3h-3l-3-7-3-6 1-9z" fill="#54327C"/>
<path transform="translate(626,652)" d="m0 0 5 1 11 5 3 1h19l6-1 1 2h43l6 1v1h-62l-45-1 3-3z" fill="#F0F5EE"/>
<path transform="translate(329,561)" d="m0 0h2l1 8v12l-3 17-3 10-8 18-5 11-1-3-2-1h2l1-6 8-18 5-17 2-20-1-7z" fill="#282228"/>
<path transform="translate(1196,245)" d="m0 0 5 1 3 3h6l3 2v7l-1 1h-6l-2-1-2 4-7-2-5-1v-13h3v3z" fill="#3860D4"/>
<path transform="translate(1212,198)" d="m0 0h3l1 4v-3l4 1v2l2 1-3 1 2 7-4-1-1-1-1 2h-11l-1-1v-5l-1-1-1 6-4 1h-5l-3-9h4v3h2v-4l4 1 1-1h9l2 1z" fill="#F9E4DB"/>
<path transform="translate(619,75)" d="m0 0h14l7 2-1 6h6l-4 2-25-1-3-2-5-1-3-2v-2l3-1z" fill="#171339"/>
<path transform="translate(988,92)" d="m0 0h48l1 1v19l-1 1h-51l-1-1v-12h1l1 11h49l-1-16-47-1z" fill="#F3E8DD"/>
<path transform="translate(131,477)" d="m0 0h4l-1 10-9 1-28-5-2-3 3-1h21z" fill="#4A68FF"/>
<path transform="translate(605,580)" d="m0 0 4 1v3l-11 5-5 2h-3v2l-9 2-19 8-2 2-10 2-14 6-13 6-2 1v-3h-7v-1l9-1 19-8h3v-3l9-1 14-6 5-2 1-2 10-2 19-8z" fill="#2B2359"/>
<path transform="translate(522,594)" d="m0 0 3 1-1 1-1 7-9 2-9 4h-7l-3-8 1-2 17-3z" fill="#171538"/>
<path transform="translate(958,358)" d="m0 0h8l3 3 1 3v25h-1l-2-15-10-3-2-3-1 21h-1v-25z" fill="#61438D"/>
<path transform="translate(599,574)" d="m0 0h20l11 1 2 2-5 1-1 2-5 2-11 1-2-2-21-1 2-4z" fill="#19163A"/>
<path transform="translate(722,587)" d="m0 0h18l10 1-1 3-9 4-13 5h-2l-4-8-2-3z" fill="#F3F3F6"/>
<path transform="translate(806,423)" d="m0 0h8l5 5v6l-6 6h-6l-5-5v-8z" fill="#55327D"/>
<path transform="translate(1013,371)" d="m0 0h25l-3 2 5 2v2l-5 4-4 1h-12l-5-5z" fill="#55347F"/>
<path transform="translate(917,357)" d="m0 0h8l4 3v4l-14 3-5 5-3 5-1 8h-1v-24l2-2 8-1z" fill="#5C3986"/>
<path transform="translate(969,530)" d="m0 0h127v1l-60 1-4 1-15 1h-20l-2-1v-2h-26z" fill="#EAEFEE"/>
<path transform="translate(1223,147)" d="m0 0h2v3h4l2-3h4l-1 4 8-1 2 2v7h-3v-6l-2 2-1 5-4-1v2h-2v2l-5-1v-2l-4-1-2-7z" fill="#3B63D9"/>
<path transform="translate(238,259)" d="m0 0 6 1 12 6 9 7 9 8 9 12 5 10-5-2-8-12-11-11-2-1v-2l-4-2-10-7-10-5z" fill="#EDF2F2"/>
<path transform="translate(1139,360)" d="m0 0h1l2 7 3 3 10 4 2 2v5l-3 2h-7l-3-2-1-7-5-1-27-1v-1h25v-8h2z" fill="#69439B"/>
<path transform="translate(561,132)" d="m0 0h52l-1 19-1 1-50 1-1-1v-19zm2 2-1 1v15l1 1h48v-17z" fill="#E5D5D1"/>
<path transform="translate(1189,683)" d="m0 0 3 3v10l-1 7 2 14v5h-7l-1-2v-10l1-19 2-6z" fill="#222"/>
<path transform="translate(1168,640)" d="m0 0h5l3 6-2 4-7 6-5-1-7-8-2-2 7-2-1-2z" fill="#247EFF"/>
<path transform="translate(1194,100)" d="m0 0h5 3l4 2 4-2h7 2 6v3l-2 1-2 6h-9l-2-1-1-3-2 4-4-1-2-4-3 1-3-1 1-3z" fill="#FBEFEA"/>
<path transform="translate(858,84)" d="m0 0h23l3 2h-4v2h-2v2l-8 1v10h-2l-1-8-2-1-33-1v-1h23v-5z" fill="#1E2252"/>
<path transform="translate(1311,249)" d="m0 0 6 1 5-1 2 1v9h-14-2-3l-1-6h-1l-1 6h-3v-9h8 2z" fill="#B6C5E3"/>
<path transform="translate(697,578)" d="m0 0h17l16 3 3 2-1 3h-11v3l-4-1-13-5-7-4z" fill="#1D183D"/>
<path transform="translate(1011,204)" d="m0 0h53l-2 1v2l-10 2-34-1-6-2z" fill="#171537"/>
<path transform="translate(736,129)" d="m0 0h38l5 1 4-1v2h9v1h-6v21h-4v-21h-47l-1-2z" fill="#20225A"/>
<path transform="translate(712,621)" d="m0 0 4 1-3 1 1 2 4 1 2 4h8l4-3h8l1 4-10 4-9 1-7-1-6-9-1-3z" fill="#1D1940"/>
<path transform="translate(860,417)" d="m0 0h43l1 4h-46l-1-3z" fill="#56337E"/>
<path transform="translate(982,358)" d="m0 0h6l4 4v27h-1l-1-18-3 3h-4l-2-5-2-1-1-7z" fill="#513681"/>
<path transform="translate(503,72)" d="m0 0h5l6 9-4 3-7 2-5 4-3-4 2-6 3-6h3z" fill="#171537"/>
<path transform="translate(299,514)" d="m0 0 9 2 8 7 8 13v2l-4-1-2-6h-2l-6-9-5-4-9 1v2l-3 3-4 9h-3l3-11 5-6z" fill="#2A252C"/>
<path transform="translate(287,305)" d="m0 0 3 1 8 20 5 18 1 10-4-3-2-2-2-17-5-13-4-10z" fill="#EEF3F2"/>
<path transform="translate(789,590)" d="m0 0 6 1-2 2-13 5-8 4-7 1-13 6-8 3 2 2-14 2v-3l17-6 6-3h2v-2l9-2 12-5 10-4z" fill="#32285D"/>
<path transform="translate(673,442)" d="m0 0h2v2h10l-2 4h-10l-14 1h-16l-6-2v-1l18-2h13z" fill="#171537"/>
<path transform="translate(922,324)" d="m0 0h31l2 4-2 1h-29l-7-1v-3z" fill="#56337E"/>
<path transform="translate(1257,249)" d="m0 0 5 1 2 1 3-1 4 1 1 7 5 1v1h-5v2l-8-1-1-1-8-1-1-8z" fill="#3862D9"/>
<path transform="translate(1224,47)" d="m0 0h4l1 5v7l-4-1-1-1v-5l-4 1v5l-5 1h-6l-2-2v-4h6v-2h-6v-2h8 2 7z" fill="#FCE6DD"/>
<path transform="translate(724,84)" d="m0 0h38v1h-16l1 4 6 1v1h-48v-1l6-1 22-1 3-1v-2h-12z" fill="#20225A"/>
<path transform="translate(1191,150)" d="m0 0h5l3 2 2-2 6 1 1 6-3 3-5-1h-2l-5 1v4h-3v-13z" fill="#C1CDE4"/>
<path transform="translate(628,154)" d="m0 0h43l1 2 2-2 7 1-1 2-10 2-1-1-49-1v-1l8-1z" fill="#171339"/>
<path transform="translate(921,306)" d="m0 0h38l2 2-1 2-14 1-25-1-1-3z" fill="#56337E"/>
<path transform="translate(602,234)" d="m0 0 4 2-14 9-14 7h-3l-1-3 1-3 25-11z" fill="#7862C1"/>
<path transform="translate(1009,350)" d="m0 0 3 1 1 3-5 5-2 4-1 8-3-1-1 18h-1l-1-29h2l-1-6 1-2h6z" fill="#50347E"/>
<path transform="translate(920,287)" d="m0 0h31l1 4-2 1h-29l-2-4z" fill="#56337E"/>
<path transform="translate(215,288)" d="m0 0 8 1 16 6 11 7 7 6 7 10-1 2-11-12-11-7-16-8-10-4z" fill="#3D72F9"/>
<path transform="translate(405,560)" d="m0 0 5 5 2 8v12l-2 4h-2l-2-4-2-16v-7z" fill="#F0F5ED"/>
<path transform="translate(1172,49)" d="m0 0h5l3 2v-2h7l2 3v6l-4 1v-7h-2v7l-5-1-1 1h-5l-2-3v-5z" fill="#FAE7DD"/>
<path transform="translate(673,160)" d="m0 0h1v16h50v-15l2-1v18h-53z" fill="#F7E9E0"/>
<path transform="translate(968,454)" d="m0 0h37l1 4h-37l-2-1z" fill="#55327D"/>
<path transform="translate(890,436)" d="m0 0h37l1 3-1 1h-37z" fill="#56337E"/>
<path transform="translate(916,398)" d="m0 0h8l3 3v2h-38v-3l3-1z" fill="#56337E"/>
<path transform="translate(944,359)" d="m0 0h1v29l-5-3-1-1-1-21 5-2z" fill="#55337D"/>
<path transform="translate(837,153)" d="m0 0 4 1-2 1v2h-53v-1l6-1v-1z" fill="#171339"/>
<path transform="translate(951,203)" d="m0 0 1 2h-3v2l-7 1h-28l-9-1-2-3z" fill="#171537"/>
<path transform="translate(729,133)" d="m0 0 3 2-1 16h29l4 1 14 1v1h-48l-1-1z" fill="#C8C0DD"/>
<path transform="translate(573,247)" d="m0 0 3 1v3l2 1-16 8-4 1-3-2v-5z" fill="#B0B7C6"/>
<path transform="translate(925,95)" d="m0 0h2l1 17 38 1v1l-43 1-50-1v-1l50-1z" fill="#5B4A99"/>
<path transform="translate(1296,201)" d="m0 0h13l1 4v6h-14l-2-3 1-6z" fill="#EBC8B8"/>
<path transform="translate(696,93)" d="m0 0h3v20l-4 1h-48v-1l16-1v-1h33z" fill="#C0ABC9"/>
<path transform="translate(669,130)" d="m0 0 4 2v21h51v1l-50 1-3 2-3-4h2l-1-20-9-1v-1z" fill="#4A4189"/>
<path transform="translate(667,76)" d="m0 0h17l12 1-4 5-7-1-1 1h-15l-3-3z" fill="#17133A"/>
<path transform="translate(888,368)" d="m0 0h9v13l-1 1h-13l-6-3v-1l10-1 5-7z" fill="#593482"/>
<path transform="translate(1006,159)" d="m0 0h1v19h-52l-1-1v-17h1l1 15 50 1z" fill="#FAEAE3"/>
<path transform="translate(1011,183)" d="m0 0h52l1 2-1 17h-1v-17h-49v16h-1z" fill="#F7DCCE"/>
<path transform="translate(1254,146)" d="m0 0 7 1v13h-10l-2-2v-7l5-1z" fill="#E9EEED"/>
<path transform="translate(772,583)" d="m0 0 23 1 9 1v1l-11 1 2 4h-6l-2 1v-2h-11l-2-2 1-1h-2z" fill="#28214D"/>
<path transform="translate(1062,178)" d="m0 0h2l1 6-3-1-42-1-1-3z" fill="#171339"/>
<path transform="translate(1264,150)" d="m0 0h11l2 2 3-1v6h5l-1 3h-5l-3-4h-3l-1-3v4l5 1-1 2h-6l-1-1v-6l-3 1-2 6-2-1v-8z" fill="#E1E6E7"/>
<path transform="translate(617,178)" d="m0 0 23 1 10 1v1l19 1v1h-50l-3-3z" fill="#2F2A6A"/>
<path transform="translate(652,574)" d="m0 0 20 1 15 1v1l-16 2-11 2-12 1v-2h5l1-5z" fill="#2C2051"/>
<path transform="translate(1043,114)" d="m0 0h49l-4 2-3 1-27 1-15-2z" fill="#171437"/>
<path transform="translate(922,370)" d="m0 0h7v9l-5 4-6-1-1-1v-8z" fill="#553C85"/>
<path transform="translate(1215,249)" d="m0 0 7 1 4 1 2 8-2 3-12-3v-9z" fill="#355FD3"/>
<path transform="translate(848,204)" d="m0 0h47l-3 2-7 2-36-1z" fill="#171537"/>
<path transform="translate(1278,201)" d="m0 0 7 1v3l2-4h5l1 1v9h-6-3-6l-1-4v-5z" fill="#F8E9DE"/>
<path transform="translate(786,183)" d="m0 0h46l5 1v1h-50v16l-2 2v-19z" fill="#F4D2C6"/>
<path transform="translate(1179,96)" d="m0 0 26 1 6 2-1 2-3 1-2 3-1-4-4 1-1-1h-12l-2 2v-2h-9l-1-3z" fill="#C46521"/>
<path transform="translate(857,528)" d="m0 0h61v1l-40 1-6 2v1h-15z" fill="#DDE3E4"/>
<path transform="translate(786,204)" d="m0 0h52v1l-7 1-1 1h-38l-6-2z" fill="#171537"/>
<path transform="translate(900,689)" d="m0 0h5l-1 3 1 30h-5z" fill="#232639"/>
<path transform="translate(617,132)" d="m0 0h52l1 1v20h-20v-2h18v-18h-51z" fill="#CCC9D3"/>
<path transform="translate(837,133)" d="m0 0h2v19l-2 2h-48v-1l23-1v-1l24-1z" fill="#BDABD0"/>
<path transform="translate(950,135)" d="m0 0h1v17l-1 1h-51v-2h50z" fill="#FDEAE3"/>
<path transform="translate(1414,150)" d="m0 0 7 1 1-1h5v3l-3-1v2h4v5l-1 1h-5l-2-4-3-1v-3h-2l1 5h4l-1 3-7-1v-8z" fill="#ECEFEF"/>
<path transform="translate(1202,561)" d="m0 0 4 2 1 5-3 7 1 1-1 7-4 4-1-25z" fill="#2385FE"/>
<path transform="translate(955,132)" d="m0 0h51l1 1v17h-1l-1-15-50-1z" fill="#DEE3E5"/>
<path transform="translate(1203,46)" d="m0 0h2l1 5v5l1 3h-4l-1-7-1 1v5l-1 1h-6l-2-7 1-3h7l2 1z" fill="#FBEAE2"/>
<path transform="translate(626,652)" d="m0 0 5 1 8 4 1 3h-23l2-4z" fill="#FCFCFB"/>
<path transform="translate(877,269)" d="m0 0h18l10 2-1 2-11 1-5 3-5-1z" fill="#56337F"/>
<path transform="translate(27,586)" d="m0 0h4v2l-20 9-7 4h-4v-4l5-2 3-3 8-2z" fill="#3576FE"/>
<path transform="translate(1044,92)" d="m0 0h48l1 1v17h-1v-15l-49-1z" fill="#F3E7DC"/>
<path transform="translate(495,324)" d="m0 0h1v51h-1l-1-10-1-1-1-9 3-7h-2v-11h2l-2-3-1-7z" fill="#171437"/>
<path transform="translate(984,114)" d="m0 0h52l-4 2-11 1h-27l-10-2z" fill="#171438"/>
<path transform="translate(781,84)" d="m0 0h29l12 1-2 3-2-1v2l-7 1-7-3-20-1h-6z" fill="#20275A"/>
<path transform="translate(1018,357)" d="m0 0h8l4 4v4h-17l2-5z" fill="#633B91"/>
<path transform="translate(1245,198)" d="m0 0h7l1 2v9l-2 2h-6l-1-1v-11z" fill="#32333C"/>
<path transform="translate(1011,132)" d="m0 0h52l-1 4-1-1-49-1-1 3z" fill="#D9DEE2"/>
<path transform="translate(1116,357)" d="m0 0h7l5 4v4h-17l2-5z" fill="#6B3F97"/>
<path transform="translate(1229,249)" d="m0 0 5 1h3l4 1h-2v6l2-1 2-3v6h-6l-1-4h-5v2h4v2h-7l-1-1v-7z" fill="#E8EBEF"/>
<path transform="translate(1389,150)" d="m0 0h6l1 4v9l-1 1h-7l-1-5 1-8z" fill="#E7ECEF"/>
<path transform="translate(809,93)" d="m0 0 3 1v18l-5 1-45-1v-1h47z" fill="#E8CAC8"/>
<path transform="translate(505,132)" d="m0 0h52v21h-10l1-2h7v-17l-50-1z" fill="#D3D5D5"/>
<path transform="translate(554,603)" d="m0 0 6 1v1l-10 2-14 6-13 6-2 1v-3h-7v-1l9-1 19-8h3v-3z" fill="#3F336F"/>
<path transform="translate(1399,150)" d="m0 0h10l2 1v8l-1 1h-5l-2-2v-5h-3l-1 7h-2v-9z" fill="#ECEFEF"/>
<path transform="translate(1343,147)" d="m0 0h7l1 2v8l-3 3-5-1-1-2v-9z" fill="#362E47"/>
<path transform="translate(1014,710)" d="m0 0m-5 1h5v2l-27 9h-10l4-3 7-2 11-3z" fill="#259CFE"/>
<path transform="translate(919,691)" d="m0 0h1v31h-4v-21z" fill="#24201E"/>
<path transform="translate(951,134)" d="m0 0h3v18l-5 3-44-1v-1l45-1z" fill="#59488E"/>
<path transform="translate(617,204)" d="m0 0h27l5 1-3 3h-22l-5-1z" fill="#1F2259"/>
<path transform="translate(1232,147)" d="m0 0h3l-1 4 8-1 2 2v7h-3v-6l-2 2-1 5h-6z" fill="#DCE1E2"/>
<path transform="translate(324,135)" d="m0 0h10l9 6 3 3v2h2l3 7v4h-2l-7-12-7-6-3-1h-12l1-2z" fill="#3670F1"/>
<path transform="translate(1208,147)" d="m0 0h3v4l8-1 2 2v7l-3 1v-7h-3v7h-6l-1-2z" fill="#E9EDEB"/>
<path transform="translate(871,354)" d="m0 0 5 5 3 4-2 5-3 5-3-1-1-3v-13z" fill="#523681"/>
<path transform="translate(884,343)" d="m0 0h12l6 2v2l-22 2-3 1-2-2h2v-2z" fill="#61418C"/>
<path transform="translate(286,540)" d="m0 0 2 1v30l-4 1v-27z" fill="#272227"/>
<path transform="translate(944,350)" d="m0 0h8v1h-7v8l-2 3-5 1v22h-1v-24l2-10h2l2 2z" fill="#5B3F8E"/>
<path transform="translate(1190,201)" d="m0 0 3 1v3h2v-4l4 1h9v1h-6l-1 7-4 1h-5l-3-9z" fill="#FBF1EC"/>
<path transform="translate(976,87)" d="m0 0 2 4h-48v-1l31-2h13z" fill="#171537"/>
<path transform="translate(836,511)" d="m0 0h7l4 3 8 3 1-6h1v11l-1-2-12-1-8-6z" fill="#4C337C"/>
<path transform="translate(1038,91)" d="m0 0h53v1h-51v19l-4 2 1-21z" fill="#29353A"/>
<path transform="translate(809,179)" d="m0 0h30v2l3 1-1 4h-2l-2-3-26-1z" fill="#171538"/>
<path transform="translate(860,84)" d="m0 0h21l3 2h-4v2h-2v2l-13-1-5-2z" fill="#202559"/>
<path transform="translate(911,417)" d="m0 0h21l2 1v3l-12 1-12-1z" fill="#55337D"/>
<path transform="translate(1196,245)" d="m0 0 4 1-2 1 1 5-2 7h-7v-13h3v3z" fill="#DAE1DE"/>
<path transform="translate(842,132)" d="m0 0h52l1 1v20l-3-1 1-19h-51z" fill="#B1BBC5"/>
<path transform="translate(928,92)" d="m0 0h18l31 1v1l-47 1-1 11h-2v-13z" fill="#F0EEE6"/>
<path transform="translate(1557,637)" d="m0 0 20 8 19 9 4 2-1 3-31-15-10-4z" fill="#269CFF"/>
<path transform="translate(860,399)" d="m0 0h20l2 1v3h-22l-3-1v-2z" fill="#56337E"/>
<path transform="translate(453,489)" d="m0 0h1v24l-1 31-2-2-1-8 1-13z" fill="#24201E"/>
<path transform="translate(899,183)" d="m0 0h52l1 1v18l-3-1v-17h-50z" fill="#E7EBE6"/>
<path transform="translate(723,427)" d="m0 0 4 1v2h18l2 1-1 2h-12l-3 3-6-1-1-2-3-1z" fill="#17133A"/>
<path transform="translate(934,179)" d="m0 0h8l7 2v1h-46v-1l8-1z" fill="#171437"/>
<path transform="translate(1272,245)" d="m0 0 2 1v3l5 1v9h-7l-1-1v-12z" fill="#C3CFEB"/>
<path transform="translate(1287,147)" d="m0 0 3 1v2l3-1v4l1 7h-6l-3-7h-5v-3l6 1z" fill="#CBD5E2"/>
<path transform="translate(1211,100)" d="m0 0h6 2 6v3l-2 1-2 6h-8l1-2 5-1-1-1h-5l2-1-1-2-4 1z" fill="#FBECE5"/>
<path transform="translate(305,516)" d="m0 0 4 1 7 6 8 13v2l-4-1-2-6h-2l-6-9-5-4z" fill="#2D2732"/>
<path transform="translate(861,436)" d="m0 0h21l1 3-4 1h-18l-2-2z" fill="#56337E"/>
<path transform="translate(644,204)" d="m0 0h26l-3 2-1 3h-6l-1-1h-13l1-2z" fill="#1D254F"/>
<path transform="translate(1205,196)" d="m0 0 7 3v5l-1-2h-11l-2 3v-4h-3v4h-2l-1-4 2-3z" fill="#C06123"/>
<path transform="translate(1257,249)" d="m0 0 5 1 1 5-5 2 8-1-1 5-10-2-1-8z" fill="#EAEEEE"/>
<path transform="translate(839,136)" d="m0 0h2l1 17h43v1h-43l-1 2-3-4z" fill="#534689"/>
<path transform="translate(1272,200)" d="m0 0 4 1 1 1v5h5v1h-5l1 5-3 3-4-2v-13z" fill="#BE5F25"/>
<path transform="translate(984,92)" d="m0 0 4 1 40 1v1h-42v11l-3 3v-16z" fill="#9D85C6"/>
<path transform="translate(1207,49)" d="m0 0h8l2 1v8l2 1h-10l-2-2v-4h6v-2h-6z" fill="#FBE5DA"/>
<path transform="translate(1375,146)" d="m0 0 3 1-1 12-1 1h-5l-2-3v-5l2-2h4z" fill="#D8DFEF"/>
<path transform="translate(746,85)" d="m0 0h16l1 2-3 3-7 1-8-2z" fill="#22296B"/>
<path transform="translate(920,534)" d="m0 0 6 1 9 7 4 7 1 6-5-5-6-8-3-2v-2h-2v-2h-4z" fill="#211D43"/>
<path transform="translate(1010,133)" d="m0 0h1v20h-4v-19z" fill="#4D4778"/>
<path transform="translate(1187,100)" d="m0 0 11 1-3 4 3 1v1l3 1-1 2h-6l-2-3v-4l-2 1-1 6h-3z" fill="#FBF4F0"/>
<path transform="translate(633,576)" d="m0 0h13l3 1-2 6h-8v-2l-3-1v-2h-3z" fill="#1C173C"/>
<path transform="translate(1250,250)" d="m0 0h3l1 12-3 2-6-1v-10l3-1v3l2 1h-2v2l2 1-1 1 2 1z" fill="#F6F8F8"/>
<path transform="translate(874,89)" d="m0 0 4 1 43 1v1l-49 1-1 15h-1v-17z" fill="#48367A"/>
<path transform="translate(286,594)" d="m0 0h4l1 14v9l-2 3-3-21z" fill="#2E2834"/>
<path transform="translate(783,372)" d="m0 0 5 1 9 4 1-3h2l1 5h-17z" fill="#1B173D"/>
<path transform="translate(1207,249)" d="m0 0 5 1 1 1v7l-1 1h-6l-2-3 1-6z" fill="#EEF1F1"/>
<path transform="translate(414,621)" d="m0 0h1l-1 7-5 13-5 11h-2l3-9 7-20z" fill="#2D2733"/>
<path transform="translate(878,529)" d="m0 0 10 1 2 1 18 1v1h-36l-2-2 7-1z" fill="#FEFEFE"/>
<path transform="translate(900,306)" d="m0 0h17l1 4h-19z" fill="#56337E"/>
<path transform="translate(707,130)" d="m0 0h12l10 2v19h-2l-1-16-1-2-19-1z" fill="#2C2863"/>
<path transform="translate(695,615)" d="m0 0 10 1 9 4-4 3-6-1-9-5z" fill="#F6F7F6"/>
<path transform="translate(1171,336)" d="m0 0h5l2 3v5l-3 2-5-1-1-1v-5z" fill="#EFF0F3"/>
<path transform="translate(966,324)" d="m0 0h14l1 4-14 1-4-1 1-3z" fill="#56337E"/>
<path transform="translate(589,92)" d="m0 0h22l6 1v1l-26 1-1 18h-1z" fill="#DCE1DF"/>
<path transform="translate(402,634)" d="m0 0 4 5-1 6-6 14-1-4z" fill="#EAEEEE"/>
<path transform="translate(869,341)" d="m0 0 3 1-8 8-6-2-1-3 1-2z" fill="#583682"/>
<path transform="translate(1212,198)" d="m0 0h3l1 4v-3l4 1v2l2 1-3 1 2 7-4-1-1-1v-5h-2v5h-1z" fill="#FAF1EB"/>
<path transform="translate(1380,150)" d="m0 0h5l2 5-2 5h-5l-2-2 1-7z" fill="#E2E6E8"/>
<path transform="translate(702,108)" d="m0 0h2v3l46 1v1h-48z" fill="#EFF4EC"/>
<path transform="translate(984,100)" d="m0 0h1l1 11 47 1v1h-48l-1-1z" fill="#F0F5ED"/>
<path transform="translate(615,165)" d="m0 0h1l1 16 2 2-2 1-1 20-2-3-1-6 1-8-1-13 1-1z" fill="#202758"/>
<path transform="translate(351,155)" d="m0 0 3 3 5 12v8l-2-1-7-18z" fill="#6668DA"/>
<path transform="translate(1026,129)" d="m0 0h14l14 1-2 2h-27l-4-2z" fill="#171537"/>
<path transform="translate(1031,346)" d="m0 0 4 1 1 4h-2l-1 3-5-2-9-1 3-2-3-2z" fill="#5C3A87"/>
<path transform="translate(687,204)" d="m0 0h39v1l-19 1-10 1h-6z" fill="#171537"/>
<path transform="translate(886,304)" d="m0 0 5 1 2 2v3l-10 2-3-1 4-6z" fill="#55337E"/>
<path transform="translate(1293,280)" d="m0 0h16v1l-8 2-11 7h-3v-2l5-3z" fill="#5850B9"/>
<path transform="translate(1319,249)" d="m0 0 5 1v9h-7v-9z" fill="#F7F9F8"/>
<path transform="translate(395,228)" d="m0 0h2l-2 4-8 7-3 5h-3l-3 2 2-5 10-10z" fill="#8E4FA0"/>
<path transform="translate(795,586)" d="m0 0h14l2 2-2 2-14 1-2-4z" fill="#17133A"/>
<path transform="translate(640,179)" d="m0 0h25l4 2-5 1h-21z" fill="#20225A"/>
<path transform="translate(514,699)" d="m0 0h1v23h-3v-19z" fill="#24201E"/>
<path transform="translate(750,606)" d="m0 0 5 1-3 2-8 3 2 2-14 2v-3l17-6z" fill="#483D7A"/>
<path transform="translate(749,590)" d="m0 0 2 1v2l-14 6-1 1-7 1-4 1v-2l21-8z" fill="#322962"/>
<path transform="translate(860,378)" d="m0 0h4v2l4 1 2 3-3 2-9-2 1-5z" fill="#54347E"/>
<path transform="translate(1215,249)" d="m0 0 7 1v9h-3v-7h-2v7h-3v-9z" fill="#F5F7F4"/>
<path transform="translate(886,180)" d="m0 0 13 1-2 5-3-3-46-1v-1z" fill="#171537"/>
<path transform="translate(701,114)" d="m0 0h35v1l-9 2-13-1h-11z" fill="#1D1E4F"/>
<path transform="translate(504,133)" d="m0 0h52v1l-49 1-2 5h-1z" fill="#F2F5EF"/>
<path transform="translate(171,277)" d="m0 0 25 6-2 2-12-2-4-1-5-1h-2l-2 1 1-4z" fill="#3F71F9"/>
<path transform="translate(1094,93)" d="m0 0 2 2 2 10-1 7-4 2z" fill="#1B1E3B"/>
<path transform="translate(500,618)" d="m0 0 16 1-1 2-12 4h-2z" fill="#52337C"/>
<path transform="translate(595,575)" d="m0 0h4v2l5 1 1 3-18-1 2-4z" fill="#17143A"/>
<path transform="translate(1278,201)" d="m0 0 7 1-1 9h-6l-1-4v-5z" fill="#F9F2EC"/>
<path transform="translate(1422,150)" d="m0 0h5v3l-3-1v2h4v5l-1 1h-5l-2-8z" fill="#E9ECEE"/>
<path transform="translate(1166,375)" d="m0 0h1l1 5v9l-1 1h-6l-1-4 3-2z" fill="#63398F"/>
<path transform="translate(782,133)" d="m0 0 1 2h2l1 18h-4z" fill="#2F2D57"/>
<path transform="translate(1252,249)" d="m0 0h5l-2 2v8h8l-2 4-5 1h-5l2-2z" fill="#3B66D7"/>
<path transform="translate(1292,147)" d="m0 0h3l1 4 4 1v7h-7l-2-8h2z" fill="#F4F7F6"/>
<path transform="translate(1290,250)" d="m0 0 3 1v6h2v-7h3v9h-8z" fill="#F5F7F6"/>
<path transform="translate(1019,179)" d="m0 0h19l3 2-2 1h-19z" fill="#171537"/>
<path transform="translate(1010,158)" d="m0 0h1v19l-4-1v-16l2 3z" fill="#635F8F"/>
<path transform="translate(1246,152)" d="m0 0 3 1 2 7-1 2-5 1-2-1 1-9z" fill="#355FD7"/>
<path transform="translate(1179,571)" d="m0 0 4 1-1 2-2 30h-1z" fill="#242324"/>
<path transform="translate(724,84)" d="m0 0h38v1h-16v2h-8l-2 1v-3h-12z" fill="#20265A"/>
<path transform="translate(1306,150)" d="m0 0h6l2 2v7l-3 1v-7h-3v7h-2z" fill="#E4E9E9"/>
<path transform="translate(978,89)" d="m0 0h3v2l2 1v20h-2l-1-20h-5l3-1z" fill="#19173B"/>
<path transform="translate(1058,88)" d="m0 0 17 1-2 2h-29v-1z" fill="#171537"/>
<path transform="translate(953,454)" d="m0 0h9v4h-16l3-3z" fill="#56337E"/>
<path transform="translate(797,401)" d="m0 0h29l-1 3-22-1-6-1z" fill="#B1BBC5"/>
<path transform="translate(1013,371)" d="m0 0h25v1l-17 1-3 2-2 4-3-4z" fill="#654AA0"/>
<path transform="translate(1299,250)" d="m0 0h8v9h-2l-1-6h-1l-1 6h-3z" fill="#F5F7F6"/>
<path transform="translate(782,159)" d="m0 0 2 1 1 3v16l-3-1z" fill="#3B2E5F"/>
<path transform="translate(1332,147)" d="m0 0h7l1 1v10l-3 2-4-1 4-2 1-3-3-1h3l-1-3-3-1v3h-2z" fill="#29252D"/>
<path transform="translate(1172,49)" d="m0 0h5l-1 8 1 2h-5l-2-3v-5z" fill="#F7D7C2"/>
<path transform="translate(644,409)" d="m0 0 5 1 1 2-3 4h-6l-1-6z" fill="#E0922D"/>
<path transform="translate(824,285)" d="m0 0h1v18l-3-1-1-9 2-7z" fill="#1A1D3B"/>
<path transform="translate(1183,101)" d="m0 0h4v7l-3 2h-6l2-2v-6z" fill="#F1CCB6"/>
<path transform="translate(1212,219)" d="m0 0 7 1 2 3h-19l3-3z" fill="#C16120"/>
<path transform="translate(1221,203)" d="m0 0 5 1v8l-5-1-2-3v-4z" fill="#BD6029"/>
<path transform="translate(568,92)" d="m0 0h17l1 1-1 10h-1l-1-8-16-1z" fill="#F7DDD0"/>
<path transform="translate(981,84)" d="m0 0h6l1 1v5l-7 1v-2l-3-1 1-2h2z" fill="#DD9034"/>
<path transform="translate(617,183)" d="m0 0h11v1h-9v18h-3v-18z" fill="#D2D3DB"/>
<path transform="translate(1274,151)" d="m0 0h4 2v6h5l-1 3h-5l-3-4h-3z" fill="#E7EBEB"/>
<path transform="translate(975,348)" d="m0 0h7v2h8v1l-10 2-2 1-5-2z" fill="#553D89"/>
<path transform="translate(946,92)" d="m0 0h34l-1 13h-1l-1-12h-31z" fill="#FBC9BA"/>
<path transform="translate(533,611)" d="m0 0 4 1-16 8v-3h-7v-1l9-1z" fill="#2F2456"/>
<path transform="translate(764,583)" d="m0 0h8l1 4 4-1 1 2-8 1-5-2z" fill="#171537"/>
<path transform="translate(363,184)" d="m0 0h2l1 5v10l-3-1-2-10z" fill="#7F5CBD"/>
<path transform="translate(1223,147)" d="m0 0h2v3h2v3h-2v4h2v3l-4-1-2-7z" fill="#E7EBEC"/>
<path transform="translate(667,575)" d="m0 0 20 1v1l-24 3 3-2z" fill="#40306E"/>
<path transform="translate(1303,201)" d="m0 0h6l1 4v5l-4-1 1-2h-4z" fill="#F8F4F0"/>
<path transform="translate(560,133)" d="m0 0 4 1-1 1v15l1 3-4-1z" fill="#D5D7DE"/>
<path transform="translate(645,93)" d="m0 0 2 1 1 6v11l-3 1z" fill="#C9CDD3"/>
<path transform="translate(922,370)" d="m0 0h7v4h-3l-1 4h-5z" fill="#583781"/>
<path transform="translate(915,207)" d="m0 0h23l1 2-5 1-19-1z" fill="#1B1E3C"/>
<path transform="translate(841,185)" d="m0 0h1v16h-3v-15z" fill="#302B68"/>
<path transform="translate(1208,147)" d="m0 0h3v4h2v8l-4 1-1-2z" fill="#DEE3E5"/>
<path transform="translate(1038,91)" d="m0 0 3 1-1 19-4 2 1-21z" fill="#3C2F5E"/>
<path transform="translate(586,351)" d="m0 0 1 3-6 7-3-1v-2l-3-1z" fill="#1F244A"/>
<path transform="translate(1205,151)" d="m0 0h2l1 6-3 3-5-1v-6l2-1v5h3v-4l-2-1z" fill="#E9EDEE"/>
<path transform="translate(736,114)" d="m0 0h15v2l-11 1-3 1-7-1v-2z" fill="#20225A"/>
<path transform="translate(586,94)" d="m0 0 3 1v16l-3 1z" fill="#3B2D72"/>
<path transform="translate(697,91)" d="m0 0h8l-3 1-1 17h-2l-1-16z" fill="#21265D"/>
<path transform="translate(427,710)" d="m0 0 3 2v10h-5l1-10z" fill="#232025"/>
<path transform="translate(1056,336)" d="m0 0h1v14l-2 2-2-11 1-4z" fill="#452E6F"/>
<path transform="translate(905,287)" d="m0 0h8l1 4-2 1h-7l-1-4z" fill="#56337E"/>
<path transform="translate(895,184)" d="m0 0 3 1v16l-3 1z" fill="#2F2A64"/>
<path transform="translate(611,131)" d="m0 0h5l1 3-1 15h-2l-1-17z" fill="#2A2B57"/>
<path transform="translate(1208,100)" d="m0 0 3 1v2l4-1v3h4v2l-7 3-2-1-2-5z" fill="#EFC9AB"/>
<path transform="translate(409,627)" d="m0 0h1l-1 8-2 5-4-1v-5l4-1 1-5z" fill="#F7F8F8"/>
<path transform="translate(643,574)" d="m0 0h9l2 1-1 5h-5l1-3-4-1zm4 6 1 2-3-1z" fill="#171338"/>
<path transform="translate(1259,362)" d="m0 0h1l1 15 1 9-1 2h-2z" fill="#56337E"/>
<path transform="translate(1237,250)" d="m0 0 4 1h-2v6l2-1 2-3v6h-6l-2-4 1-4z" fill="#F0F2F2"/>
<path transform="translate(1247,249)" d="m0 0h5l-2 1 2 9-1 2-3-1v-4-4l-4 3 1-5z" fill="#C0CEE2"/>
<path transform="translate(1272,245)" d="m0 0 2 1v3h2v2h-2l1 7h-4v-12z" fill="#EDF1F0"/>
<path transform="translate(359,170)" d="m0 0 2 4 2 9-1 5-2-1-2-9z" fill="#7862C5"/>
<path transform="translate(815,95)" d="m0 0h2v16l4 1v1h-6z" fill="#F3E5DA"/>
<path transform="translate(642,94)" d="m0 0h3v14l-3 4z" fill="#464191"/>
<path transform="translate(499,615)" d="m0 0 14 1 1 3h-10l-5-2z" fill="#252054"/>
<path transform="translate(479,418)" d="m0 0h1l2 6v10l-2 3-1-1z" fill="#17133A"/>
<path transform="translate(877,378)" d="m0 0h9l3 2 7 1v1h-13l-6-3z" fill="#694692"/>
<path transform="translate(844,304)" d="m0 0 5 2 7 5v2l-5-1-6-4-2-3z" fill="#E7EDEC"/>
<path transform="translate(1255,198)" d="m0 0h4v13h-3v-11l-2-1z" fill="#503D73"/>
<path transform="translate(785,153)" d="m0 0 7 1 1 2h-7l-1 7-3-4-1-4z" fill="#1D1A3F"/>
<path transform="translate(1190,151)" d="m0 0h5l-2 1 1 7-1 5h-3z" fill="#EEF1F0"/>
<path transform="translate(1340,144)" d="m0 0h11v1h-6v2l-2 1-1 11h-2v-12z" fill="#D3DBD9"/>
<path transform="translate(1063,134)" d="m0 0h1v18l-5 1v-2l2-1 1-14z" fill="#DCE1DF"/>
<path transform="translate(1194,52)" d="m0 0 7 1v5l-1 1h-6l-1-5z" fill="#FBEAE2"/>
<path transform="translate(891,371)" d="m0 0 4 2v3l-3 3-4 1-2-2z" fill="#4C337C"/>
<path transform="translate(893,133)" d="m0 0h2v20l-3-1z" fill="#C5BFE1"/>
<path transform="translate(867,93)" d="m0 0h1v20l-3-2v-16z" fill="#BABACE"/>
<path transform="translate(559,582)" d="m0 0 9 1-4 3-9 3v-2h2l1-4z" fill="#231B4A"/>
<path transform="translate(664,575)" d="m0 0h3l-1 4-8 1-2-1v-3z" fill="#171539"/>
<path transform="translate(1258,388)" d="m0 0h2l-2 4-9 2-1-4 1-1z" fill="#5E3885"/>
<path transform="translate(938,367)" d="m0 0h1l1 17 4 2 1 3-2 1-5-2z" fill="#493076"/>
<path transform="translate(890,287)" d="m0 0h7l1 4-1 1h-7l-1-4z" fill="#56337E"/>
<path transform="translate(665,179)" d="m0 0h5v3h3v3h-2v18h-1l-1-20-5-1z" fill="#181639"/>
<path transform="translate(505,159)" d="m0 0h1l1 17 1 2h-4v-18z" fill="#EEF3EC"/>
<path transform="translate(786,133)" d="m0 0h2l-1 20-2-1v-18z" fill="#D2D7DA"/>
<path transform="translate(687,129)" d="m0 0 14 1 5 1v1h-23l1-2z" fill="#20225A"/>
<path transform="translate(605,580)" d="m0 0 4 1v3l-10 4h-2v-2l6-3z" fill="#241E4F"/>
<path transform="translate(434,430)" d="m0 0 3 1 8 13v2l-3-1-8-13z" fill="#272331"/>
<path transform="translate(1077,396)" d="m0 0 12 2 3 3v2h-6l-2-4-7-2z" fill="#4C337C"/>
<path transform="translate(1288,280)" d="m0 0h5v5l-4 3h-2v-7z" fill="#633790"/>
<path transform="translate(1062,159)" d="m0 0h2v18l-3 1z" fill="#D9DDE2"/>
<path transform="translate(1187,100)" d="m0 0 7 1-1 6-1-4-2 1-1 6h-3z" fill="#FBECE6"/>
<path transform="translate(416,603)" d="m0 0 3 1-1 10-1 3-3 1 1-9z" fill="#282328"/>
<path transform="translate(285,579)" d="m0 0 3 3 1 3v7l-1 2h-2z" fill="#262427"/>
<path transform="translate(502,367)" d="m0 0h2v6l-2 2h-5l2-6z" fill="#20225A"/>
<path transform="translate(927,204)" d="m0 0h13l-5 4-10-1v-2z" fill="#171339"/>
<path transform="translate(1255,146)" d="m0 0 6 1v13h-2l-1-10-3-1z" fill="#EEF1F1"/>
<path transform="translate(758,93)" d="m0 0 2 3 1 7v8l-3 1z" fill="#E2C7BE"/>
<path transform="translate(568,597)" d="m0 0 4 2-10 4-1 1h-6l1-2z" fill="#30265D"/>
<path transform="translate(415,596)" d="m0 0h2l-1 13-1 5h-1v-17z" fill="#E3E3ED"/>
<path transform="translate(802,429)" d="m0 0 2 3 1 5 6-1 2 1v3h-6l-5-5z" fill="#5A3487"/>
<path transform="translate(761,362)" d="m0 0 6 1 9 5-4 1-10-5z" fill="#1B193A"/>
<path transform="translate(1231,255)" d="m0 0h5l1 3 7 1 1-4v6l-7-1v2h-5l2-5h-4z" fill="#4169E0"/>
<path transform="translate(1254,146)" d="m0 0 1 3 4 1-1 7h-1l-1-5-1 5h-3l1-5-2-2h3z" fill="#89A5DA"/>
<path transform="translate(344,145)" d="m0 0 4 1 3 7v4h-2l-6-11z" fill="#426DEB"/>
<path transform="translate(701,94)" d="m0 0h1v19l2 1-8 1-1-2h4v-4h2z" fill="#504391"/>
<path transform="translate(1190,103)" d="m0 0h2l2 8-1 2h-4v-9z" fill="#C76A22"/>
<path transform="translate(534,96)" d="m0 0h1l1 14 3 3h-6v-12z" fill="#EEECE3"/>
<path transform="translate(1250,250)" d="m0 0h3l1 12-3 2-4-1 4-4z" fill="#E9EDEE"/>
<path transform="translate(1359,144)" d="m0 0h3l1 21-3 1v-16z" fill="#EBF0E9"/>
<path transform="translate(1264,150)" d="m0 0h4v3l-2 1-2 6-2-1v-8z" fill="#DFE4E7"/>
<path transform="translate(1205,118)" d="m0 0 12 1 1 2h-16z" fill="#C16120"/>
<path transform="translate(697,578)" d="m0 0h17v1l-8 1v3l-5-2-4-2z" fill="#31275D"/>
<path transform="translate(1246,200)" d="m0 0h4v9l-4-1z" fill="#D2A8BA"/>
<path transform="translate(1387,159)" d="m0 0 6 1 3-1-1 5h-7z" fill="#DCE1EB"/>
<path transform="translate(1211,100)" d="m0 0h6l2 2-1 4h-5l2-1-1-2-4 1z" fill="#F9EEE7"/>
<path transform="translate(1017,358)" d="m0 0 4 1-1 3 3 2h-9l1-4z" fill="#583582"/>
<path transform="translate(896,196)" d="m0 0h1l2 7 5 2 1 2-8-1-3-3z" fill="#1D1F40"/>
<path transform="translate(1245,198)" d="m0 0h7l1 2v9l-3-1v-8h-4l-1 2z" fill="#473163"/>
<path transform="translate(1062,178)" d="m0 0h2l1 6-12-2 2-1v-2z" fill="#191739"/>
<path transform="translate(726,135)" d="m0 0h1v16h2l1 3-3 3-3-4h2z" fill="#242A41"/>
<path transform="translate(782,129)" d="m0 0 1 2h9v1h-6l-1 3h-2l-1-2-10-1v-1z" fill="#1F2650"/>
<path transform="translate(1175,102)" d="m0 0h2l1 8-2 3-4-2 2-1v-7z" fill="#C66922"/>
<path transform="translate(786,428)" d="m0 0 5 2 2 1v3l-7-2-7-1 4-2z" fill="#17133A"/>
<path transform="translate(1319,249)" d="m0 0 5 1v6l-5 1v-5h2v-2z" fill="#C9D5E4"/>
<path transform="translate(1285,152)" d="m0 0 2 3-1 5-2-1 1-2h-5v-4z" fill="#3B64D5"/>
<path transform="translate(1405,150)" d="m0 0 6 1v8l-5-2v-3z" fill="#C0CADB"/>
<path transform="translate(1201,150)" d="m0 0h4v7h-3l-1-4-1 5-2-1 1-5z" fill="#A5B5DD"/>
<path transform="translate(879,303)" d="m0 0 1 3-7 6-5 1v-2l8-5z" fill="#E9EFEE"/>
<path transform="translate(1207,249)" d="m0 0 5 1v4l-1 3-4-1 1-5z" fill="#ABBCE2"/>
<path transform="translate(615,184)" d="m0 0h1v20l-2-3-1-6z" fill="#20225A"/>
<path transform="translate(505,137)" d="m0 0h1l1 14 1 2h-4v-13z" fill="#EFEFE6"/>
<path transform="translate(1193,49)" d="m0 0h7l2 1v2l-7 1h-3z" fill="#F9DCC8"/>
<path transform="translate(692,634)" d="m0 0 4 2 3 4h-9z" fill="#66459C"/>
<path transform="translate(1215,249)" d="m0 0h5l-3 2v8h-3v-9z" fill="#E6EBE8"/>
<path transform="translate(1345,149)" d="m0 0h3v8h-4v-7z" fill="#C5C9D5"/>
<path transform="translate(872,95)" d="m0 0h1v16l5 1v1h-7z" fill="#F4E0D4"/>
<path transform="translate(712,621)" d="m0 0 4 1-3 1 1 4h-4l-2-4z" fill="#291E4D"/>
<path transform="translate(507,355)" d="m0 0 2 3 1 5-6 2 1-6z" fill="#20225A"/>
<path transform="translate(1414,153)" d="m0 0 2 4h4l-1 3-7-1 1-4z" fill="#EAEEED"/>
<path transform="translate(979,94)" d="m0 0h1v19l-4-1 2-7z" fill="#EEF1E9"/>
<path transform="translate(181,280)" d="m0 0 12 2 3 2-2 1-12-2z" fill="#3F73F7"/>
<path transform="translate(1296,151)" d="m0 0 4 1v7h-4l-1-5z" fill="#EAEDEE"/>
<path transform="translate(1180,49)" d="m0 0h7l2 3v6h-3v-8h-6z" fill="#FDE5DC"/>
<path transform="translate(286,570)" d="m0 0 2 1v10h-2l-1-2v-7z" fill="#23201E"/>
<path transform="translate(934,352)" d="m0 0h5l-1 9-4-5-1-3z" fill="#493074"/>
<path transform="translate(719,262)" d="m0 0h4v6l-5-1z" fill="#755536"/>
<path transform="translate(1266,153)" d="m0 0h3v7h-5z" fill="#3F66D9"/>
<path transform="translate(1232,147)" d="m0 0h3l-1 13h-2z" fill="#F5F7F6"/>
<path transform="translate(1194,100)" d="m0 0h5l3 1-2 5-5-1 1-3z" fill="#E7D3CF"/>
<path transform="translate(1079,377)" d="m0 0 2 1-1 2-5 1v1h-6v-3l9-1z" fill="#4C337C"/>
<path transform="translate(1257,249)" d="m0 0 5 1 1 5-4 1z" fill="#D4DAE5"/>
<path transform="translate(454,244)" d="m0 0 3 1 3 6-1 6-2-4z" fill="#8F52A6"/>
<path transform="translate(1386,149)" d="m0 0 3 2-2 11-2-3 1-2-4-1 4-1-1-5z" fill="#476DE1"/>
<path transform="translate(1249,151)" d="m0 0h5l-1 7-3 1-1-1z" fill="#F3F6F4"/>
<path transform="translate(287,656)" d="m0 0 2 3 6 12-4-2-4-8z" fill="#FAFBF9"/>
<path transform="translate(317,478)" d="m0 0 7 5 5 7-4-2-8-8z" fill="#FBFCFB"/>
<path transform="translate(1196,247)" d="m0 0 1 3h2l-2 9h-2v-9z" fill="#F9FAFA"/>
<path transform="translate(1211,147)" d="m0 0 6 1 5 1-1 3-7-1h-3z" fill="#3E66DC"/>
<path transform="translate(1332,147)" d="m0 0h7l1 3-2 2-1-2-3-1v3h-2z" fill="#27262C"/>
<path transform="translate(1217,50)" d="m0 0h7l-4 3v5h-3z" fill="#FCF9F7"/>
</svg>
