<?xml version="1.0" encoding="UTF-8"?>
<svg version="1.1" viewBox="0 0 896 896" width="1280" height="1280" xmlns="http://www.w3.org/2000/svg">
<path transform="translate(0)" d="m0 0h896v896h-896z" fill="#FEFFFE"/>
<path transform="translate(434,111)" d="m0 0h25l32 3 29 5 21 5 33 11 24 11 23 12 16 10 17 12 14 11 12 11 8 7 12 12 7 8 11 13 13 18 9 14 10 17 10 19 8 19 8 22 8 30 6 37 1 14v46l-2 22-5 29-6 23-11 32-8 18-11 22-8 13-12 18-10 13-8 10-11 12-13 14-8 7-10 9-17 13-27 18-12 7-16 8-23 10-15 5-9 1-9-3-5-6-1-4-1-111-3-18-6-16-6-9v-2l-4-2-2-4 27-5 21-5 21-7 16-8 16-10 11-9 10-11 11-16 9-19 6-18 5-25 2-29v-11l-1-16-4-19-5-15-8-16-11-16-5-6 2-10 3-16v-30l-4-20-5-15-1-1h-15l-17 4-19 7-19 10-14 8-7 5h-8l-24-5-20-3-13-1h-50l-24 3-30 6h-7l-20-12-17-9-20-8-16-4-6-1h-12l-3 5-5 16-3 17v27l5 23-1 6-10 13-8 13-8 19-5 20-1 7v42l5 30 7 24 9 19 9 13 12 14 14 12 21 12 20 8 20 6 25 5 10 1 1 3-7 9-7 14-7 22-11 4-20 4h-14l-14-3-12-5-12-9-8-8-11-16-9-12-12-10-11-6-7-2-15-1-8 2-2 1 1 7 4 5 12 8 10 9 9 12 10 17 8 18 8 12 10 9 8 5 13 5 16 3 21 1 25-2 10-1 1 2v64l-3 8-7 6h-14l-18-6-20-9-16-8-18-10-22-15-14-11-14-12-17-16-7-8-10-11-10-13-13-18-10-17-9-16-9-19-9-24-7-22-5-21-4-25-2-19v-49l2-22 5-29 7-26 8-24 11-24 8-17 8-13 11-17 10-14 11-13 9-11 18-18 8-7 14-12 18-13 15-10 16-9 17-9 29-12 18-6 28-7 29-5z" fill="#101219"/>
</svg>
