<svg xmlns="http://www.w3.org/2000/svg" version="1.1" viewBox="-5.0 -10.0 110.0 135.0">
 <g fill-rule="evenodd">
  <path d="m90.75 14.652c1.0547 0 2.1133 0.023437 3.168 0.0625 2.2305 0.089844 3.9922 1.9258 3.9922 4.1602 0.003906 10.969 0.003906 41.926 0.003906 53.359 0 1.1094-0.44141 2.1719-1.2266 2.9531s-1.8516 1.2188-2.9609 1.2109c-13.613 0.003906-27.227 5.4609-40.844 18.52-1.6133 1.5508-4.1602 1.5508-5.7695 0-13.613-13.059-27.23-18.516-40.844-18.535-1.1055 0.007813-2.168-0.42969-2.9492-1.207-0.78516-0.77734-1.2227-1.8398-1.2227-2.9453-0.015625-11.434-0.015625-42.391-0.015625-53.359 0-2.2383 1.7656-4.0742 3.9961-4.1641 1.0547-0.039062 2.1133-0.0625 3.168-0.0625 0 13.605 0.003906 36.613 0.027344 46.078 0 3.9297 3.1367 7.1484 7.0703 7.2539 10.434 0.32422 20.75 6.2227 31.184 19.66l0.035156 0.042969 0.039062 0.046874 0.007813 0.007813 0.011719 0.015625 0.042968 0.042969 0.015626 0.019531 0.027343 0.027344 0.011719 0.015625 0.16406 0.16406 0.019532 0.015625 0.027344 0.027344 0.019531 0.015625 0.015625 0.011719 0.011718 0.007812 0.019532 0.015625 0.015625 0.011719 0.011719 0.007812 0.019531 0.015626 0.015625 0.011718 0.011718 0.007813 0.019532 0.015625 0.015625 0.011718 0.011719 0.007813 0.019531 0.015625 0.015625 0.007812 0.011718 0.011719 0.019532 0.015625 0.011718 0.007813 0.015626 0.011719 0.035156 0.023437 0.015625 0.011719 0.035156 0.023437 0.015625 0.011719 0.035156 0.023438 0.015625 0.011718 0.023438 0.011719 0.011719 0.007813 0.039062 0.023437 0.011719 0.007813 0.039062 0.023437 0.011719 0.007813 0.039062 0.023437 0.011719 0.007813 0.019531 0.011718 0.019532 0.007813 0.015625 0.007812 0.019531 0.011719 0.019531 0.007812 0.015625 0.007813 0.023438 0.007813 0.015625 0.007812 0.039062 0.015625 0.015625 0.007813 0.023438 0.007812 0.019531 0.007812 0.035156 0.011719 0.03125 0.011719 0.046875 0.019531 0.007813 0.003907 0.050781 0.019531 0.007812 0.003906 0.054688 0.019531 0.03125 0.007813c0.16406 0.050781 0.32812 0.085937 0.49219 0.10938l0.015624 0.003906 0.11719 0.015625 0.058594 0.003906 0.042968 0.003907h0.015626l0.027343 0.003906h0.28906l0.027344-0.003906 0.11719-0.007813 0.11719-0.015625 0.015626-0.003906c0.16406-0.023438 0.33203-0.058594 0.49219-0.10938l0.035156-0.007813 0.16406-0.058594 0.011718-0.003906 0.019532-0.007812 0.035156-0.011719 0.019531-0.007813 0.023438-0.007812 0.015625-0.007812 0.039062-0.015626 0.015625-0.007812 0.023438-0.007812 0.015625-0.007813 0.019531-0.007813 0.019531-0.011718 0.015625-0.007813 0.019531-0.007812 0.019532-0.011719 0.011718-0.007812 0.039063-0.023438 0.011719-0.007812 0.039062-0.023438 0.011719-0.007812 0.039063-0.023438 0.011718-0.007812 0.023438-0.011719 0.015625-0.011719 0.035156-0.023438 0.015625-0.011718 0.035156-0.023438 0.015625-0.011718 0.035157-0.023438 0.015624-0.011719 0.011719-0.007812 0.019531-0.015625 0.011719-0.011719 0.015625-0.007813 0.019532-0.015624 0.011718-0.007813 0.015625-0.011719 0.019531-0.015625 0.011719-0.007812 0.015625-0.011719 0.019532-0.015625 0.011718-0.007813 0.015625-0.011718 0.019531-0.015625 0.011719-0.007813 0.015625-0.011718 0.019532-0.015626 0.027343-0.027343 0.019531-0.015625 0.16406-0.16406 0.011719-0.015625 0.027344-0.027344 0.015624-0.019531 0.042969-0.042969 0.019531-0.023437 0.03125-0.039063 0.003907-0.007812 0.035156-0.042969c10.434-13.434 20.75-19.336 31.184-19.66 3.9336-0.10547 7.0703-3.3242 7.0703-7.2617 0.023438-9.457 0.027344-32.457 0.027344-46.062z"/>
  <path d="m48.438 83.762c-10.664-13-21.332-18.574-31.996-18.906-2.2461-0.054688-4.043-1.8906-4.043-4.1367-0.027344-11.254-0.027344-41.656-0.027344-52.629 0-1.1289 0.45703-2.207 1.2656-2.9922 0.80859-0.78516 1.9023-1.207 3.0312-1.1719 10.586 0.42969 21.176 6.0195 31.766 18.93v60.914zm-27.672-37.496c5.9375 1.3047 11.867 4.4492 17.805 9.8047 0.64063 0.57813 1.6289 0.52734 2.207-0.11328s0.52734-1.6289-0.11328-2.207c-6.4062-5.7734-12.82-9.125-19.227-10.535-0.84375-0.18359-1.6758 0.34766-1.8633 1.1914-0.18359 0.83984 0.34766 1.6758 1.1914 1.8633zm0-8.8633c5.9375 1.3047 11.867 4.4492 17.805 9.8047 0.64063 0.57812 1.6289 0.52734 2.207-0.11328s0.52734-1.6289-0.11328-2.207c-6.4062-5.7734-12.82-9.125-19.227-10.535-0.84375-0.18359-1.6758 0.34766-1.8633 1.1914-0.18359 0.83984 0.34766 1.6758 1.1914 1.8633zm0-8.4922c5.9375 1.3047 11.867 4.4492 17.805 9.8047 0.64063 0.57812 1.6289 0.52734 2.207-0.11328 0.57812-0.64062 0.52734-1.6289-0.11328-2.207-6.4062-5.7734-12.82-9.125-19.227-10.535-0.84375-0.18359-1.6758 0.34766-1.8633 1.1914-0.18359 0.83984 0.34766 1.6758 1.1914 1.8633zm0-8.8633c5.9375 1.3047 11.867 4.4492 17.805 9.8047 0.64063 0.57813 1.6289 0.52734 2.207-0.11328s0.52734-1.6289-0.11328-2.207c-6.4062-5.7734-12.82-9.125-19.227-10.535-0.84375-0.18359-1.6758 0.34766-1.8633 1.1914-0.18359 0.84375 0.34766 1.6758 1.1914 1.8633z"/>
  <path d="m51.562 22.848v60.914c10.664-13 21.332-18.574 31.996-18.906 2.2461-0.054688 4.043-1.8906 4.043-4.1367 0.027344-11.254 0.027344-41.656 0.027344-52.629 0-1.1289-0.45703-2.207-1.2656-2.9922-0.80859-0.78516-1.9023-1.207-3.0312-1.1719-10.586 0.42969-21.176 6.0195-31.766 18.93zm27 20.367c-6.4062 1.4102-12.82 4.7617-19.227 10.535-0.64063 0.57812-0.69141 1.5664-0.11328 2.207s1.5664 0.69141 2.207 0.11328c5.9375-5.3516 11.867-8.4961 17.805-9.8047 0.84375-0.18359 1.375-1.0195 1.1914-1.8633-0.18359-0.84375-1.0195-1.375-1.8633-1.1914zm0-8.8633c-6.4062 1.4102-12.82 4.7617-19.227 10.535-0.64063 0.57812-0.69141 1.5664-0.11328 2.207s1.5664 0.69141 2.207 0.11328c5.9375-5.3516 11.867-8.4961 17.805-9.8047 0.84375-0.18359 1.375-1.0195 1.1914-1.8633-0.18359-0.84375-1.0195-1.375-1.8633-1.1914zm0-8.4922c-6.4062 1.4102-12.82 4.7617-19.227 10.535-0.64063 0.57812-0.69141 1.5664-0.11328 2.207 0.57812 0.64063 1.5664 0.69141 2.207 0.11328 5.9375-5.3516 11.867-8.4961 17.805-9.8047 0.84375-0.18359 1.375-1.0195 1.1914-1.8633-0.18359-0.84375-1.0195-1.375-1.8633-1.1914zm0-8.8633c-6.4062 1.4102-12.82 4.7617-19.227 10.535-0.64063 0.57812-0.69141 1.5664-0.11328 2.207s1.5664 0.69141 2.207 0.11328c5.9375-5.3516 11.867-8.4961 17.805-9.8047 0.84375-0.18359 1.375-1.0195 1.1914-1.8633-0.18359-0.84375-1.0195-1.375-1.8633-1.1914z"/>
 </g>
<text x="0.0" y="117.5" font-size="5.0" font-weight="bold" font-family="Arbeit Regular, Helvetica, Arial-Unicode, Arial, Sans-serif" fill="#000000">Created by Muh zakaria</text><text x="0.0" y="122.5" font-size="5.0" font-weight="bold" font-family="Arbeit Regular, Helvetica, Arial-Unicode, Arial, Sans-serif" fill="#000000">from Noun Project</text></svg>