<?xml version="1.0" encoding="UTF-8"?>
<svg version="1.1" viewBox="0 0 1200 1200" width="1280" height="1280" xmlns="http://www.w3.org/2000/svg">
<path transform="translate(599,251)" d="m0 0h113l2 26 3 15v4h28l1 19 4 19 8 24 5 10v2l4 2 10 8 17 10 17 8 18 5 17 3 21 1 1 1 1 41 11 2 20 1 2 1v107l-4 1h-37l-24-4-19-5-21-8-16-8-14-8-14-10-8-6-1 245-3 22-6 24-8 21-12 23-8 12-12 16-15 16-10 9-13 10-17 11-16 8-11 5-24 8-26 5-22 2-19-1-18-2-22-5-16-5-21-9-18-10-14-10-11-9-12-11-7-7-11-14-7-10-6-11-12-13-12-16-9-15-8-16-6-14-7-23-4-21-2-13v-35l1-2 3-20 5-21 7-19 11-23 9-14 12-16 12-13 10-10 14-11 14-10 18-10 19-8 19-6 25-5 8-1h35l11 2v39l-3 1-21 2-24 5-21 7-18 8-19 11-16 12-14 12-11 11-11 14-10 14v1l10-14 11-13 11-12 8-7 14-11 17-11 17-9 21-8 21-6 17-3 9-1h12l1-3h14l18 1 1 1v118l-2 1-8-2-10-1h-12l-13 2-16 5-15 8-10 8-10 10-7 10-8 16-4 12-2 11v24l3 14 1 5-4-2-8-7-7-8-9-14-4-7 8 16 9 12 8 8 7 5 5 1 15 8 13 4 12 2h18l16-3 13-5 14-8 10-8 9-9 9-14 6-13 4-14 1-6zm258 196m5 1m-501 184v3zm-2 3 1 2zm-1 2 1 2zm-1 2-1 4 2-4zm-2 4 1 2zm-2 3 1 2zm-1 3 1 2zm-2 3 1 2zm-1 3 1 2zm-3 7 1 2zm71 62 1 2zm1 4 1 2zm209 48m-2 4m-1 3 1 2zm-168 1m166 2 1 2zm-1 3 1 2zm-162 1m161 1v3zm-160 1m158 2 1 2zm-156 1m155 1-9 11-10 10-13 9-14 6-14 4-7 1h-20l-15-3-14-5-9-5-2 1 7 5 14 6 16 4h27l16-4 17-8 11-8 10-9 10-13zm-154 1m2 3m1 1m1 1m1 1m1 2m1 1m1 1m1 1 2 4 6 6 2-1-9-9zm10 10m1 1 5 5 2-1-5-4z"/>
<path transform="translate(868,449)" d="m0 0 12 2 20 1 2 1v107l-4 1h-37l-24-4-19-5-21-8-16-8-14-8-14-10-8-6-1 245-3 22-6 24-8 21-12 23-8 12-12 16-15 16-10 9-13 10-17 11-16 8-11 5-24 8-26 5-22 2-19-1-18-2-22-5-16-5-21-9-18-10-14-10-11-9-12-11-7-7-11-14-7-10 1-3 13 11 10 7 16 10 16 8 20 8 14 4 14 3 13 2 24 1 19-1 24-4 19-5 20-8 23-12 17-12 13-11 18-18 8-10 13-19 12-23 9-24 5-21 3-21 1-247 4 1 10 8 19 12 26 13 21 7 16 4 19 3 13 1h23l6-1v-69z" fill="#FF004F"/>
<path transform="translate(599,251)" d="m0 0h113l2 26 3 15v5h-83v451l-2 15-3 11-3 9h-2l-1 6h-2l-2 5-9 12-12 12-13 9-14 6-14 4-7 1h-20l-15-3-14-5-12-7-9-7-16-16v-3l-2-1-5-8-4-10 3-1 17 9 13 4 12 2h18l16-3 13-5 14-8 10-8 9-9 9-14 6-13 4-14 1-6z" fill="#00F7EF"/>
<path transform="translate(486,490)" d="m0 0h35l11 2v39l-3 1-21 2-24 5-21 7-18 8-19 11-16 12-14 12-11 11-11 14-10 14-7 12-3 9h-2l-1 7-2 4-2 3-5 17-2 6-3 12-3 19v44l2 13 3 15 3 11 5 15 7 16 7 13-1 3-9-11-8-9-12-17-7-12-10-22-7-21-5-22-2-16-1-3v-35l1-2 3-20 5-21 7-19 11-23 9-14 12-16 12-13 10-10 14-11 14-10 18-10 19-8 19-6 25-5zm-133 156 1 2zm-3 6 1 2z" fill="#00F7EF"/>
<path transform="translate(533,531)" d="m0 0h14l18 1 1 1v118l-2 1-8-2-10-1h-12l-13 2-16 5-15 8-10 8-10 10-7 10-8 16-4 12-2 11v24l3 14 1 5-4-2-8-7-7-8-9-14-5-9-2-4-1-4 1-2h-2l-2-14v-18l3-16 6-16 8-14 12-14 14-11 15-8 16-5 5-1h28l11 3v-78z" fill="#FF004F"/>
<path transform="translate(761,367)" d="m0 0 2 1v2l4 2 10 8 17 10 17 8 18 5 17 3 21 1 1 1v42h-5l-4-2-8-2-15-6-12-6-11-7-13-10-15-14-11-13-11-17z" fill="#00F7EF"/>
<path transform="translate(717,296)" d="m0 0h28l1 19 4 19 8 24 2 4-1 3-14-14-11-16-11-21z" fill="#FF004F"/>
</svg>
